<?xml version="1.0" encoding="UTF-8"?>
<svg width="330px" height="98px" viewBox="0 0 330 98" version="1.1" xmlns="http://www.w3.org/2000/svg" xmlns:xlink="http://www.w3.org/1999/xlink">
    <title>-mockplus-</title>
    <g id="页面-1" stroke="none" stroke-width="1" fill="none" fill-rule="evenodd">
        <g id="首页" transform="translate(-122.000000, -80.000000)">
            <g id="编组-5" transform="translate(0.000000, 56.000000)">
                <g id="编组-2" transform="translate(122.000000, 24.000000)">
                    <path d="M110.856,69.48 C113.032,69.48 114.976,69.096 116.688,68.328 C118.4,67.56 119.744,66.424 120.72,64.92 C121.696,63.416 122.184,61.592 122.184,59.448 C122.184,58.072 121.896,56.808 121.32,55.656 C120.744,54.504 119.992,53.512 119.064,52.68 C118.392,52.04 117.672,51.488 116.904,51.024 C116.136,50.56 115.032,49.928 113.592,49.128 C112.088,48.296 110.896,47.592 110.016,47.016 C109.136,46.44 108.408,45.76 107.832,44.976 C107.256,44.192 106.968,43.304 106.968,42.312 C106.968,40.904 107.424,39.84 108.336,39.12 C109.248,38.4 110.504,38.04 112.104,38.04 C113.352,38.04 114.528,38.272 115.632,38.736 C116.736,39.2 117.592,39.752 118.2,40.392 L118.2,40.392 L120.744,36.024 C118.44,34.136 115.64,33.192 112.344,33.192 C109.272,33.192 106.728,34 104.712,35.616 C102.696,37.232 101.688,39.56 101.688,42.6 C101.688,46.28 103.24,49.16 106.344,51.24 C107.016,51.688 108.264,52.36 110.088,53.256 C111.624,54.024 112.808,54.672 113.64,55.2 C114.472,55.728 115.176,56.392 115.752,57.192 C116.328,57.992 116.616,58.936 116.616,60.024 C116.616,61.432 116.08,62.536 115.008,63.336 C113.936,64.136 112.552,64.536 110.856,64.536 C109.544,64.536 108.176,64.208 106.752,63.552 C105.328,62.896 104.28,62.264 103.608,61.656 L103.608,61.656 L101.064,66.216 C101.896,67.048 103.256,67.8 105.144,68.472 C107.032,69.144 108.936,69.48 110.856,69.48 Z M131.16,69.48 C132.152,69.48 132.976,69.152 133.632,68.496 C134.288,67.84 134.616,67.032 134.616,66.072 C134.616,65.08 134.288,64.256 133.632,63.6 C132.976,62.944 132.152,62.616 131.16,62.616 C130.168,62.616 129.344,62.944 128.688,63.6 C128.032,64.256 127.704,65.08 127.704,66.072 C127.704,67.032 128.04,67.84 128.712,68.496 C129.384,69.152 130.2,69.48 131.16,69.48 Z M147.192,69 L147.192,53.064 L155.928,53.064 L155.928,48.36 L147.192,48.36 L147.192,38.376 L158.424,38.376 L158.424,33.72 L141.864,33.72 L141.864,69 L147.192,69 Z M170.328,69 L170.328,33.72 L164.952,33.72 L164.952,69 L170.328,69 Z M183.816,69 L183.816,49.992 L183.672,46.152 L204.312,69 L205.032,69 L205.032,33.72 L199.656,33.72 L199.656,52.776 L199.848,56.808 L179.112,33.672 L178.44,33.672 L178.44,69 L183.816,69 Z M214.008,69 L217.032,62.088 L233.208,62.088 L236.232,69 L242.424,69 L225.432,33.672 L224.904,33.672 L208.008,69 L214.008,69 Z M231.096,57.24 L219.192,57.24 L223.032,48.696 L225.144,43.896 L225.24,43.896 L227.304,48.744 L231.096,57.24 Z M250.776,69 L250.776,49.992 L250.632,46.152 L271.272,69 L271.992,69 L271.992,33.72 L266.616,33.72 L266.616,52.776 L266.808,56.808 L246.072,33.672 L245.4,33.672 L245.4,69 L250.776,69 Z M295.512,69.336 C297.432,69.336 299.328,69.04 301.2,68.448 C303.072,67.856 304.36,67.24 305.064,66.6 L305.064,66.6 L303.48,62.04 C300.856,63.64 298.136,64.44 295.32,64.44 C292.888,64.44 290.792,63.864 289.032,62.712 C287.272,61.56 285.936,59.992 285.024,58.008 C284.112,56.024 283.656,53.816 283.656,51.384 C283.656,48.728 284.168,46.392 285.192,44.376 C286.216,42.36 287.624,40.808 289.416,39.72 C291.208,38.632 293.208,38.088 295.416,38.088 C298.552,38.088 301.096,38.952 303.048,40.68 L303.048,40.68 L305.4,35.88 C305.112,35.592 304.52,35.232 303.624,34.8 C302.728,34.368 301.6,33.984 300.24,33.648 C298.88,33.312 297.416,33.144 295.848,33.144 C292.36,33.144 289.24,33.92 286.488,35.472 C283.736,37.024 281.6,39.176 280.08,41.928 C278.56,44.68 277.8,47.8 277.8,51.288 C277.8,54.584 278.504,57.6 279.912,60.336 C281.32,63.072 283.36,65.256 286.032,66.888 C288.704,68.52 291.864,69.336 295.512,69.336 Z M327.624,69 L327.624,64.248 L315.912,64.248 L315.912,52.968 L324.072,52.968 L324.072,48.168 L315.912,48.168 L315.912,38.424 L326.04,38.424 L326.04,33.72 L310.584,33.72 L310.584,69 L327.624,69 Z" id="S.FINANCE" fill-opacity="0.85" fill="#000000" fill-rule="nonzero"></path>
                    <g id="logo">
                        <polygon id="多边形" fill="#FFFFFF" points="41.5 0 83 24.5 83 73.5 41.5 98 0 73.5 0 24.5"></polygon>
                        <path d="M41.5,49 L54.8492222,56.7946923 L41.4990778,64.5895385 L33.7258273,60.0509344 L28.1488273,63.3069344 L41.5,71.1020656 L60.4262222,60.0506923 L73.7777778,67.8461538 L41.5,86.6923077 L9.22222222,67.8461538 L41.5,49 Z M41.5,11.3076923 L73.7777778,30.1538462 L41.5,49 L28.1482222,41.2046923 L41.5,33.4095192 L49.2958273,37.9609344 L54.8718273,34.7059344 L41.5,26.8979344 L22.5722222,37.9486923 L9.22222222,30.1538462 L41.5,11.3076923 Z" id="形状结合" fill="#EB3C00"></path>
                    </g>
                </g>
            </g>
        </g>
    </g>
</svg>