<?xml version="1.0" encoding="UTF-8"?>
<svg width="291px" height="98px" viewBox="0 0 291 98" version="1.1" xmlns="http://www.w3.org/2000/svg" xmlns:xlink="http://www.w3.org/1999/xlink">
    <title>-mockplus-</title>
    <g id="页面-1" stroke="none" stroke-width="1" fill="none" fill-rule="evenodd">
        <g id="首页" transform="translate(-122.000000, -80.000000)">
            <g id="编组-5" transform="translate(0.000000, 56.000000)">
                <g id="编组-2" transform="translate(122.000000, 24.000000)">
                    <path d="M110.856,45.48 C113.032,45.48 114.976,45.096 116.688,44.328 C118.4,43.56 119.744,42.424 120.72,40.92 C121.696,39.416 122.184,37.592 122.184,35.448 C122.184,34.072 121.896,32.808 121.32,31.656 C120.744,30.504 119.992,29.512 119.064,28.68 C118.392,28.04 117.672,27.488 116.904,27.024 C116.136,26.56 115.032,25.928 113.592,25.128 C112.088,24.296 110.896,23.592 110.016,23.016 C109.136,22.44 108.408,21.76 107.832,20.976 C107.256,20.192 106.968,19.304 106.968,18.312 C106.968,16.904 107.424,15.84 108.336,15.12 C109.248,14.4 110.504,14.04 112.104,14.04 C113.352,14.04 114.528,14.272 115.632,14.736 C116.736,15.2 117.592,15.752 118.2,16.392 L118.2,16.392 L120.744,12.024 C118.44,10.136 115.64,9.192 112.344,9.192 C109.272,9.192 106.728,10 104.712,11.616 C102.696,13.232 101.688,15.56 101.688,18.6 C101.688,22.28 103.24,25.16 106.344,27.24 C107.016,27.688 108.264,28.36 110.088,29.256 C111.624,30.024 112.808,30.672 113.64,31.2 C114.472,31.728 115.176,32.392 115.752,33.192 C116.328,33.992 116.616,34.936 116.616,36.024 C116.616,37.432 116.08,38.536 115.008,39.336 C113.936,40.136 112.552,40.536 110.856,40.536 C109.544,40.536 108.176,40.208 106.752,39.552 C105.328,38.896 104.28,38.264 103.608,37.656 L103.608,37.656 L101.064,42.216 C101.896,43.048 103.256,43.8 105.144,44.472 C107.032,45.144 108.936,45.48 110.856,45.48 Z M139.992,45 L139.992,14.424 L149.112,14.424 L149.112,9.72 L125.64,9.72 L125.64,14.424 L134.664,14.424 L134.664,45 L139.992,45 Z M155.784,45 L158.808,38.088 L174.984,38.088 L178.008,45 L184.2,45 L167.208,9.672 L166.68,9.672 L149.784,45 L155.784,45 Z M172.872,33.24 L160.968,33.24 L164.808,24.696 L166.92,19.896 L167.016,19.896 L169.08,24.744 L172.872,33.24 Z M197.256,45 C201.064,45 203.976,44.488 205.992,43.464 C208.008,42.44 209.336,41.16 209.976,39.624 C210.616,38.088 210.936,36.296 210.936,34.248 C210.936,32.296 210.4,30.6 209.328,29.16 C208.256,27.72 206.584,26.712 204.312,26.136 C205.848,25.432 206.968,24.368 207.672,22.944 C208.376,21.52 208.728,20.008 208.728,18.408 C208.728,16.008 207.896,13.96 206.232,12.264 C204.568,10.568 201.208,9.72 196.152,9.72 L196.152,9.72 L187.176,9.72 L187.176,45 L197.256,45 Z M197.016,24.696 L192.456,24.696 L192.456,14.28 L196.776,14.28 C201.128,14.28 203.304,15.8 203.304,18.84 C203.304,20.536 202.824,21.936 201.864,23.04 C200.904,24.144 199.288,24.696 197.016,24.696 L197.016,24.696 Z M197.976,40.488 L192.456,40.488 L192.456,28.968 L198.408,28.968 C200.744,28.968 202.488,29.432 203.64,30.36 C204.792,31.288 205.368,32.6 205.368,34.296 C205.368,36.088 204.864,37.568 203.856,38.736 C202.848,39.904 200.888,40.488 197.976,40.488 L197.976,40.488 Z M232.776,45 L232.776,40.2 L222.648,40.2 L222.648,9.72 L217.224,9.72 L217.224,45 L232.776,45 Z M254.952,45 L254.952,40.248 L243.24,40.248 L243.24,28.968 L251.4,28.968 L251.4,24.168 L243.24,24.168 L243.24,14.424 L253.368,14.424 L253.368,9.72 L237.912,9.72 L237.912,45 L254.952,45 Z M108.024,93 L108.024,77.064 L116.76,77.064 L116.76,72.36 L108.024,72.36 L108.024,62.376 L119.256,62.376 L119.256,57.72 L102.696,57.72 L102.696,93 L108.024,93 Z M131.16,93 L131.16,57.72 L125.784,57.72 L125.784,93 L131.16,93 Z M144.648,93 L144.648,73.992 L144.504,70.152 L165.144,93 L165.864,93 L165.864,57.72 L160.488,57.72 L160.488,76.776 L160.68,80.808 L139.944,57.672 L139.272,57.672 L139.272,93 L144.648,93 Z M174.84,93 L177.864,86.088 L194.04,86.088 L197.064,93 L203.256,93 L186.264,57.672 L185.736,57.672 L168.84,93 L174.84,93 Z M191.928,81.24 L180.024,81.24 L183.864,72.696 L185.976,67.896 L186.072,67.896 L188.136,72.744 L191.928,81.24 Z M211.608,93 L211.608,73.992 L211.464,70.152 L232.104,93 L232.824,93 L232.824,57.72 L227.448,57.72 L227.448,76.776 L227.64,80.808 L206.904,57.672 L206.232,57.672 L206.232,93 L211.608,93 Z M256.344,93.336 C258.264,93.336 260.16,93.04 262.032,92.448 C263.904,91.856 265.192,91.24 265.896,90.6 L265.896,90.6 L264.312,86.04 C261.688,87.64 258.968,88.44 256.152,88.44 C253.72,88.44 251.624,87.864 249.864,86.712 C248.104,85.56 246.768,83.992 245.856,82.008 C244.944,80.024 244.488,77.816 244.488,75.384 C244.488,72.728 245,70.392 246.024,68.376 C247.048,66.36 248.456,64.808 250.248,63.72 C252.04,62.632 254.04,62.088 256.248,62.088 C259.384,62.088 261.928,62.952 263.88,64.68 L263.88,64.68 L266.232,59.88 C265.944,59.592 265.352,59.232 264.456,58.8 C263.56,58.368 262.432,57.984 261.072,57.648 C259.712,57.312 258.248,57.144 256.68,57.144 C253.192,57.144 250.072,57.92 247.32,59.472 C244.568,61.024 242.432,63.176 240.912,65.928 C239.392,68.68 238.632,71.8 238.632,75.288 C238.632,78.584 239.336,81.6 240.744,84.336 C242.152,87.072 244.192,89.256 246.864,90.888 C249.536,92.52 252.696,93.336 256.344,93.336 Z M288.456,93 L288.456,88.248 L276.744,88.248 L276.744,76.968 L284.904,76.968 L284.904,72.168 L276.744,72.168 L276.744,62.424 L286.872,62.424 L286.872,57.72 L271.416,57.72 L271.416,93 L288.456,93 Z" id="STABLEFINANCE" fill-opacity="0.85" fill="#000000" fill-rule="nonzero"></path>
                    <g id="logo">
                        <polygon id="多边形" fill="#FFFFFF" points="41.5 0 83 24.5 83 73.5 41.5 98 0 73.5 0 24.5"></polygon>
                        <path d="M41.5,49 L54.8492222,56.7946923 L41.4990778,64.5895385 L33.7258273,60.0509344 L28.1488273,63.3069344 L41.5,71.1020656 L60.4262222,60.0506923 L73.7777778,67.8461538 L41.5,86.6923077 L9.22222222,67.8461538 L41.5,49 Z M41.5,11.3076923 L73.7777778,30.1538462 L41.5,49 L28.1482222,41.2046923 L41.5,33.4095192 L49.2958273,37.9609344 L54.8718273,34.7059344 L41.5,26.8979344 L22.5722222,37.9486923 L9.22222222,30.1538462 L41.5,11.3076923 Z" id="形状结合" fill="#EB3C00"></path>
                    </g>
                </g>
            </g>
        </g>
    </g>
</svg>