<?xml version="1.0" encoding="UTF-8"?>
<svg width="34px" height="40px" viewBox="0 0 34 40" version="1.1" xmlns="http://www.w3.org/2000/svg" xmlns:xlink="http://www.w3.org/1999/xlink">
    <title>-mockplus-</title>
    <g id="页面-1" stroke="none" stroke-width="1" fill="none" fill-rule="evenodd">
        <g id="首页" transform="translate(-24.000000, -8.000000)">
            <g id="logo" transform="translate(24.000000, 8.000000)">
                <polygon id="多边形" fill="#FFFFFF" points="17 0 34 10 34 30 17 40 0 30 0 10"></polygon>
                <path d="M17,20 L22.4687778,23.1803846 L16.9996222,26.3630769 L13.8154714,24.5097487 L11.5304714,25.8387487 L17,29.0212513 L24.7527778,24.5093846 L30.2222222,27.6923077 L17,35.3846154 L3.77777778,27.6923077 L17,20 Z M17,4.61538462 L30.2222222,12.3076923 L17,20 L11.5307778,16.8173846 L17,13.6365385 L20.1934714,15.4937487 L22.4774714,14.1657487 L17,10.9787487 L9.24677778,15.4893846 L3.77777778,12.3076923 L17,4.61538462 Z" id="形状结合" fill="#EB3C00"></path>
            </g>
        </g>
    </g>
</svg>