<?xml version="1.0" encoding="UTF-8"?>
<svg width="24px" height="24px" viewBox="0 0 24 24" version="1.1" xmlns="http://www.w3.org/2000/svg" xmlns:xlink="http://www.w3.org/1999/xlink">
    <title>-mockplus-</title>
    <g id="页面" stroke="none" stroke-width="1" fill="none" fill-rule="evenodd">
        <g id="dForce池-挖矿奖励" transform="translate(-68.000000, -590.000000)">
            <g id="编组" transform="translate(24.000000, 20.000000)">
                <g id="编组-4" transform="translate(24.000000, 550.000000)">
                    <g id="icon/coins/sfg" transform="translate(20.000000, 20.000000)">
                        <circle id="椭圆形" stroke="#DADEDF" fill="#F8F9FE" cx="12" cy="12" r="11.5"></circle>
                        <g id="编组-3" transform="translate(6.600000, 4.800000)" fill-rule="nonzero">
                            <path d="M5.18061972,14.4 L1.88315493,14.4 L1.88315493,3.8291831 L3.12811268,3.8291831 L3.12811268,13.1536901 L5.18061972,13.1536901 C6.93160563,13.1536901 8.38039437,12.5915493 9.48642254,11.4828169 C10.5924507,10.3740845 11.1471549,8.88507042 11.1471549,7.0451831 C11.1471549,5.28743662 10.5897465,3.86771831 9.4908169,2.82557746 C8.38411268,1.77769014 6.97385915,1.24630986 5.29926761,1.24630986 L1.87943662,1.24630986 L1.87943662,0 L5.29690141,0 C7.30073239,0 8.99898592,0.645971831 10.3446761,1.92033803 C11.7021972,3.20484507 12.3904225,4.92878873 12.3904225,7.04383099 C12.3904225,9.22546479 11.7092958,11.0143099 10.3663099,12.3606761 C9.02332394,13.7070423 7.27301408,14.4 5.18061972,14.4 Z" id="路径" fill="#070237"></path>
                            <path d="M3.77340845,12.3082817 L3.77340845,12.3082817 C5.60315493,12.3082817 7.1256338,11.8215211 8.29825352,10.8611831 C9.48709859,9.888 10.0898028,8.58050704 10.0898028,6.97385915 C10.0898028,5.42704225 9.48439437,4.17430986 8.29014085,3.25047887 C7.11887324,2.34456338 5.6376338,1.94366197 3.88732394,1.94366197 L-3.84293536e-15,1.94366197 L-3.84293536e-15,12.3082817 L1.22569014,12.3082817 L1.22569014,3.15278873 L4.00901408,3.15278873 C4.71346479,3.15278873 5.36552113,3.24371831 5.94692958,3.42321127 C6.52157746,3.60067606 7.04653521,3.81194366 7.50456338,4.16687324 C7.9548169,4.51504225 8.29656338,4.92709859 8.51864789,5.39121127 C8.74073239,5.85532394 8.85667606,6.39616901 8.85667606,6.98907042 C8.85667606,7.61171831 8.74174648,8.17791549 8.51492958,8.67177465 C8.28811268,9.1656338 7.9524507,9.59729577 7.4988169,9.96743662 C7.03118306,10.3474795 6.49543838,10.6349691 5.92022535,10.8145352 C5.32292958,11.004507 4.64619718,11.1008451 3.90895775,11.1008451 L3.77374648,11.1052394 L3.77340845,12.3082817 Z" id="路径" fill="#D5A24E"></path>
                        </g>
                    </g>
                </g>
            </g>
        </g>
    </g>
</svg>