<?xml version="1.0" encoding="UTF-8"?>
<svg width="48px" height="48px" viewBox="0 0 48 48" version="1.1" xmlns="http://www.w3.org/2000/svg" xmlns:xlink="http://www.w3.org/1999/xlink">
    <title>-mockplus-</title>
    <g id="页面" stroke="none" stroke-width="1" fill="none" fill-rule="evenodd">
        <g id="dForce池-抵押" transform="translate(-416.000000, -76.000000)">
            <g id="编组" transform="translate(24.000000, 20.000000)">
                <g id="下拉" transform="translate(392.000000, 56.000000)">
                    <circle id="椭圆形" fill="#F8F9FE" cx="24" cy="24" r="24"></circle>
                    <g id="编组-3" transform="translate(13.200000, 9.600000)" fill-rule="nonzero">
                        <path d="M10.3612394,28.8 L3.76630986,28.8 L3.76630986,7.6583662 L6.25622535,7.6583662 L6.25622535,26.3073803 L10.3612394,26.3073803 C13.8632113,26.3073803 16.7607887,25.1830986 18.9728451,22.9656338 C21.1849014,20.748169 22.2943099,17.7701408 22.2943099,14.0903662 C22.2943099,10.5748732 21.179493,7.73543662 18.9816338,5.65115493 C16.7682254,3.55538028 13.9477183,2.49261972 10.5985352,2.49261972 L3.75887324,2.49261972 L3.75887324,0 L10.5938028,0 C14.6014648,0 17.9979718,1.29194366 20.6893521,3.84067606 C23.4043944,6.40969014 24.7808451,9.85757746 24.7808451,14.087662 C24.7808451,18.4509296 23.4185915,22.0286197 20.7326197,24.7213521 C18.0466479,27.4140845 14.5460282,28.8 10.3612394,28.8 Z" id="路径" fill="#070237"></path>
                        <path d="M7.5468169,24.6165634 L7.5468169,24.6165634 C11.2063099,24.6165634 14.2512676,23.6430423 16.596507,21.7223662 C18.9741972,19.776 20.1796056,17.1610141 20.1796056,13.9477183 C20.1796056,10.8540845 18.9687887,8.34861972 16.5802817,6.50095775 C14.2377465,4.68912676 11.2752676,3.88732394 7.77464789,3.88732394 L-7.68587072e-15,3.88732394 L-7.68587072e-15,24.6165634 L2.45138028,24.6165634 L2.45138028,6.30557746 L8.01802817,6.30557746 C9.42692958,6.30557746 10.7310423,6.48743662 11.8938592,6.84642254 C13.0431549,7.20135211 14.0930704,7.62388732 15.0091268,8.33374648 C15.9096338,9.03008451 16.5931268,9.85419718 17.0372958,10.7824225 C17.4814648,11.7106479 17.7133521,12.792338 17.7133521,13.9781408 C17.7133521,15.2234366 17.483493,16.355831 17.0298592,17.3435493 C16.5762254,18.3312676 15.9049014,19.1945915 14.9976338,19.9348732 C14.0623661,20.6949591 12.9908768,21.2699382 11.8404507,21.6290704 C10.6458592,22.0090141 9.29239437,22.2016901 7.81791549,22.2016901 L7.54749296,22.2104789 L7.5468169,24.6165634 Z" id="路径" fill="#D5A24E"></path>
                    </g>
                </g>
            </g>
        </g>
    </g>
</svg>