<?xml version="1.0" encoding="UTF-8"?>
<svg width="36px" height="36px" viewBox="0 0 36 36" version="1.1" xmlns="http://www.w3.org/2000/svg" xmlns:xlink="http://www.w3.org/1999/xlink">
    <title>-mockplus-</title>
    <g id="页面" stroke="none" stroke-width="1" fill="none" fill-rule="evenodd">
        <g id="usdg" transform="translate(-415.000000, -327.000000)">
            <g id="-mockplus-" transform="translate(415.800000, 327.800000)">
                <g id="icon/coins/dai" transform="translate(0.000000, 0.000000)">
                    <circle id="椭圆形" stroke="#DADEDF" fill="#F8F9FE" cx="17.6" cy="17.6" r="17.1"></circle>
                    <path d="M28.16,12.6371653 L21.8876922,15.9898864 L21.8876922,19.8778549 L24.0450754,18.7096824 L24.0450754,20.9641893 L17.9661211,24.5347053 L13.080378,21.6650928 C12.3414087,21.2311187 11.8862799,20.4290106 11.8865179,19.5610623 L11.8865179,13.8231574 L16.9286306,10.8618071 C17.5702304,10.485015 18.360714,10.485015 19.0023138,10.8618071 L24.0444266,13.8231574 L27.1309444,12.01018 L19.2761231,7.39688858 C18.4645091,6.92103714 17.4651377,6.92103714 16.6535237,7.39688858 L8.8,12.01084 L8.8,21.3700798 C8.8,22.2412593 9.25678129,23.0451204 9.9977532,23.4807101 L17.9661211,28.16 L25.9228098,23.48731 C26.6709437,23.0481111 27.1317711,22.2361738 27.1315933,21.3575401 L27.1315933,17.0399217 L28.1593512,16.4842147 L28.1593512,12.6371653 L28.16,12.6371653 Z" id="路径" fill="#D35756" fill-rule="nonzero"></path>
                </g>
            </g>
        </g>
    </g>
</svg>