<?xml version="1.0" encoding="UTF-8"?>
<svg width="48px" height="48px" viewBox="0 0 48 48" version="1.1" xmlns="http://www.w3.org/2000/svg" xmlns:xlink="http://www.w3.org/1999/xlink">
    <title>-mockplus-</title>
    <g id="页面" stroke="none" stroke-width="1" fill="none" fill-rule="evenodd">
        <g id="挖矿-抵押" transform="translate(-232.000000, -988.000000)">
            <g id="编组-3" transform="translate(24.000000, 932.000000)">
                <g id="下拉" transform="translate(208.000000, 56.000000)">
                    <path d="M25.8294194,23.1979355 C28.7735527,23.2332656 31.141676,25.6299773 31.141676,28.5743226 C31.141676,31.5186679 28.7735527,33.9153796 25.8294194,33.9507097 L17.9527742,33.9507097 C17.3122842,33.9343098 16.8015955,33.4103774 16.8015955,32.7696774 C16.8015955,32.1289775 17.3122842,31.6050451 17.9527742,31.5886452 L25.8294194,31.5886452 C27.4941837,31.5886452 28.8437419,30.239087 28.8437419,28.5743226 C28.8437419,26.9095582 27.4941837,25.56 25.8294194,25.56 L22.131871,25.56 C19.1877376,25.5246699 16.8196143,23.1279582 16.8196143,20.1836129 C16.8196143,17.2392676 19.1877376,14.8425559 22.131871,14.8072258 L30.0077419,14.8072258 C30.648232,14.8236257 31.1589206,15.3475581 31.1589206,15.9882581 C31.1589206,16.628958 30.648232,17.1528904 30.0077419,17.1692903 L22.131871,17.1692903 C20.4671066,17.1692903 19.1175484,18.5188485 19.1175484,20.1836129 C19.1175484,21.8483773 20.4671066,23.1979355 22.131871,23.1979355 L25.8294194,23.1979355 Z" id="路径" fill="#FFFFFF"></path>
                    <path d="M27.77801,16.1710831 C28.1253512,15.6066536 28.8644874,15.4306688 29.4289169,15.77801 C29.930632,16.0867578 30.1254279,16.7050719 29.918573,17.2350802 L29.82199,17.4289169 L20.22199,33.0289169 C19.8746488,33.5933464 19.1355126,33.7693312 18.5710831,33.42199 C18.069368,33.1132422 17.8745721,32.4949281 18.081427,31.9649198 L18.17801,31.7710831 L27.77801,16.1710831 Z" id="路径-6" fill-opacity="0.5" fill="#FFFFFF" fill-rule="nonzero"></path>
                    <circle id="椭圆形" fill="#FF2C7E" cx="24" cy="24" r="24"></circle>
                    <path d="M31.9090909,15.9290273 C36.1265381,15.9290273 39.5454545,19.3479437 39.5454545,23.5653909 C39.5454545,27.7828381 36.1265381,31.2017546 31.9090909,31.2017546 C30.8812012,31.2017546 29.9007451,30.9986675 29.0056588,30.6304298 L29.8522999,33.3103315 L27.7717869,33.9674436 L25.6768605,27.334601 L32.591734,25.5674973 L33.1319396,27.681382 L29.7062567,28.5568352 C30.3799266,28.8545762 31.1251978,29.0199364 31.9090909,29.0199364 C34.9215532,29.0199364 37.3636364,26.5778532 37.3636364,23.5653909 C37.3636364,20.5529287 34.9215532,18.1108455 31.9090909,18.1108455 C29.5682596,18.1108455 27.5718262,19.5853886 26.7979692,21.6562964 L24,21.6563 C24.6957312,20.635362 25.1864235,19.9016731 25.4720771,19.4552333 C26.8288963,17.3346992 29.2048375,15.9290273 31.9090909,15.9290273 Z M21.1662671,13.9090909 L22.1977963,20.7879909 L15.0916205,21.4516141 L14.8887501,19.2792481 L18.9225423,18.9024965 C18.0971249,18.4001714 17.1278048,18.1108455 16.0909091,18.1108455 C13.0784468,18.1108455 10.6363636,20.5529287 10.6363636,23.5653909 C10.6363636,26.5778532 13.0784468,29.0199364 16.0909091,29.0199364 C18.3275107,29.0199364 20.2497014,27.6737832 21.0914644,25.7474935 L23.4109654,25.7474644 C22.4721028,28.9016848 19.550111,31.2017546 16.0909091,31.2017546 C11.8734619,31.2017546 8.45454545,27.7828381 8.45454545,23.5653909 C8.45454545,19.3479437 11.8734619,15.9290273 16.0909091,15.9290273 C17.2662149,15.9290273 18.379506,16.1945434 19.3740714,16.6688645 L19.0085737,14.232649 L21.1662671,13.9090909 Z M33.8181818,22.4744818 L33.8181818,24.6563 L14.1818182,24.6563 L14.1818182,22.4744818 L33.8181818,22.4744818 Z" id="形状" fill="#FFFFFF" fill-rule="nonzero"></path>
                </g>
            </g>
        </g>
    </g>
</svg>