<?xml version="1.0" encoding="UTF-8"?>
<svg width="40px" height="40px" viewBox="0 0 40 40" version="1.1" xmlns="http://www.w3.org/2000/svg" xmlns:xlink="http://www.w3.org/1999/xlink">
    <title>-mockplus-</title>
    <defs>
        <filter x="-23.5%" y="-23.5%" width="146.9%" height="146.9%" filterUnits="objectBoundingBox" id="filter-1">
            <feOffset dx="0" dy="4" in="SourceAlpha" result="shadowOffsetOuter1"></feOffset>
            <feGaussianBlur stdDeviation="4" in="shadowOffsetOuter1" result="shadowBlurOuter1"></feGaussianBlur>
            <feColorMatrix values="0 0 0 0 0   0 0 0 0 0   0 0 0 0 0  0 0 0 0.15 0" type="matrix" in="shadowBlurOuter1" result="shadowMatrixOuter1"></feColorMatrix>
            <feMerge>
                <feMergeNode in="shadowMatrixOuter1"></feMergeNode>
                <feMergeNode in="SourceGraphic"></feMergeNode>
            </feMerge>
        </filter>
        <circle id="path-2" cx="9.8" cy="9.8" r="9.8"></circle>
        <filter x="-17.9%" y="-12.8%" width="135.7%" height="135.7%" filterUnits="objectBoundingBox" id="filter-3">
            <feOffset dx="0" dy="1" in="SourceAlpha" result="shadowOffsetOuter1"></feOffset>
            <feGaussianBlur stdDeviation="1" in="shadowOffsetOuter1" result="shadowBlurOuter1"></feGaussianBlur>
            <feColorMatrix values="0 0 0 0 0   0 0 0 0 0   0 0 0 0 0  0 0 0 0.15 0" type="matrix" in="shadowBlurOuter1"></feColorMatrix>
        </filter>
    </defs>
    <g id="页面" stroke="none" stroke-width="1" fill="none" fill-rule="evenodd">
        <g id="兑换-oku" transform="translate(-131.000000, -165.000000)">
            <g id="编组-5" transform="translate(0.000000, 132.000000)">
                <g id="icon/pools/2" transform="translate(122.000000, 24.000000)" filter="url(#filter-1)">
                    <g id="-mockplus-" transform="translate(9.800000, 9.800000)">
                        <g id="icon/coins/dai" transform="translate(0.000000, 0.000000)">
                            <path d="M38.4930687,14.4049758 C41.3643477,24.8381355 35.2298062,35.6240979 24.7932459,38.4935598 C14.3566855,41.3630217 3.57321986,35.2320949 0.705860659,24.7969752 C-2.16149854,14.3618555 3.96520334,3.57589306 14.4017636,0.706431144 C24.838324,-2.16303078 35.6217896,3.96789606 38.4930687,14.4049758 Z" id="路径" fill="#26A17B"></path>
                            <path d="M28.5818855,9.8 L28.5818855,14.1710104 L21.9905968,14.1710104 L21.9905968,17.0397631 L23.0431961,17.1002874 C27.8580386,17.4278449 31.36,18.4257227 31.36,19.6053646 C31.36,20.8692665 27.3398913,21.9245109 21.9921468,22.1701946 L21.9921468,22.1701946 L21.9921468,31.36 L17.225679,31.36 L17.225679,22.170966 C11.8701842,21.9245109 7.84,20.8684952 7.84,19.6034361 C7.84,18.4227144 11.3490504,17.4240925 16.1727147,17.0970678 L16.1727147,17.0970678 L17.225679,17.037449 L17.225679,14.1710104 L10.6336152,14.1710104 L10.6336152,9.8 L28.5818855,9.8 Z M21.9929219,17.3722268 L21.9929219,20.5753717 C21.8911985,20.5846283 21.4500822,20.6212205 20.6157869,20.6389381 L20.6157869,20.6389381 L19.6484397,20.6486526 C19.0365492,20.6486526 18.5089439,20.6356356 18.0955594,20.619967 L18.0955594,20.619967 L17.2280041,20.5753717 L17.2280041,17.3722268 C12.4952503,17.5812701 8.96186378,18.400473 8.96186378,19.3820508 C8.96186378,20.3636286 12.4948628,21.1839886 17.2280041,21.3926462 L17.2280041,21.3926462 C17.4719852,21.4014399 18.0745908,21.4261856 18.9356241,21.4355779 L18.9356241,21.4355779 L20.2792226,21.4366538 C20.7732856,21.4324441 21.1486019,21.4238148 21.4217296,21.4149792 L21.4217296,21.4149792 L22.9856877,21.335866 C27.2009938,21.0623589 30.2416239,20.2891356 30.2416239,19.3808937 C30.2416239,18.4726519 27.2023304,17.6997612 22.9859741,17.4263015 L22.9859741,17.4263015 L21.9929219,17.3722268 Z" id="形状结合" fill="#FFFFFF"></path>
                            <g id="ok" transform="translate(19.600000, 19.600000)">
                                <g id="椭圆形">
                                    <use fill="black" fill-opacity="1" filter="url(#filter-3)" xlink:href="#path-2"></use>
                                    <use fill="#FFFFFF" fill-rule="evenodd" xlink:href="#path-2"></use>
                                </g>
                                <g id="Okex" transform="translate(1.960000, 1.960000)" fill-rule="nonzero">
                                    <line x1="0.11723533" y1="15.6281234" x2="0.11723533" y2="0" id="路径" fill="#DBD9D9"></line>
                                    <path d="M6.91587062,6.9729194 C7.46102562,7.10826562 8.03033991,7.10826562 8.57549491,6.9729194 C8.88599872,5.69269832 9.87187943,4.69312482 11.1345632,4.37830846 C11.4784715,2.95220849 10.9178192,1.45895485 9.72563017,0.625724824 C8.53344111,-0.207505201 6.95753971,-0.207505201 5.76535066,0.625724824 C4.5731616,1.45895485 4.01250936,2.95220849 4.35641758,4.37830846 C5.61938234,4.69275949 6.60553729,5.69246075 6.91587062,6.9729194 L6.91587062,6.9729194 Z" id="路径" fill="#7ABDF7"></path>
                                    <path d="M8.57549491,8.65481393 C8.03033991,8.51946771 7.46102562,8.51946771 6.91587062,8.65481393 C6.60536681,9.93503501 5.6194861,10.9346085 4.35680229,11.2494249 C4.01289406,12.6755248 4.57354631,14.1687785 5.76573536,15.0020085 C6.95792442,15.8352385 8.53382582,15.8352385 9.72601487,15.0020085 C10.9182039,14.1687785 11.4788562,12.6755248 11.1349479,11.2494249 C9.87198318,10.9349738 8.88582824,9.93527259 8.57549491,8.65481393 L8.57549491,8.65481393 Z" id="路径" fill="#0D74F5"></path>
                                    <path d="M11.9643754,4.27650547 C11.684889,4.27646734 11.4064128,4.31051624 11.1349479,4.37791841 C10.8247758,5.65810985 9.83891889,6.65765916 8.57626432,6.9721393 C8.44277216,7.5248659 8.44277216,8.10208733 8.57626432,8.65481393 C9.83893226,8.96951871 10.824744,9.96917258 11.1349479,11.2494249 C12.442858,11.5733264 13.8178671,11.1053144 14.668066,10.0468571 C15.5182649,8.98839985 15.6919111,7.52840952 15.1142538,6.29537792 C14.5365966,5.06234632 13.3107356,4.27634352 11.9643754,4.27572537 L11.9643754,4.27650547 Z" id="路径" fill="#4494F7"></path>
                                    <path d="M6.91587062,8.65481393 C7.04936278,8.10208733 7.04936278,7.5248659 6.91587062,6.9721393 C5.65315603,6.657627 4.66719604,5.65812341 4.35680229,4.37791841 C2.95023794,4.02923368 1.47743983,4.59767276 0.655623911,5.80642 C-0.166192004,7.01516723 -0.166192004,8.61295615 0.655623911,9.82170339 C1.47743983,11.0304506 2.95023794,11.5988897 4.35680229,11.250205 C4.66689907,9.96959338 5.65289492,8.96960257 6.91587062,8.65481393 L6.91587062,8.65481393 Z" id="路径" fill="#005CF4"></path>
                                    <path d="M8.57549491,6.9729194 C9.83817872,6.65810304 10.8240594,5.65852954 11.1345632,4.37830846 C9.87187943,4.69312482 8.88599872,5.69269832 8.57549491,6.9729194 L8.57549491,6.9729194 Z" id="路径" fill="#186EF9"></path>
                                    <path d="M8.57549491,8.65481393 C8.88576354,9.9351694 9.87174689,10.934847 11.1345632,11.2494249 C10.8240594,9.96920379 9.83817872,8.9696303 8.57549491,8.65481393 L8.57549491,8.65481393 Z" id="路径" fill="#0246F2"></path>
                                    <path d="M6.91587062,6.9729194 C6.60536681,5.69269832 5.6194861,4.69312482 4.35680229,4.37830846 C4.6673061,5.65852954 5.65318681,6.65810304 6.91587062,6.9729194 Z" id="路径" fill="#0046F8"></path>
                                    <path d="M6.91587062,8.65481393 C5.65318681,8.9696303 4.6673061,9.96920379 4.35680229,11.2494249 C5.6194861,10.9346085 6.60536681,9.93503501 6.91587062,8.65481393 L6.91587062,8.65481393 Z" id="路径" fill="#0729F1"></path>
                                    <path d="M6.91587062,6.9729194 C7.46102562,7.10826562 8.03033991,7.10826562 8.57549491,6.9729194 C8.88599872,5.69269832 9.87187943,4.69312482 11.1345632,4.37830846 C11.4784715,2.95220849 10.9178192,1.45895485 9.72563017,0.625724824 C8.53344111,-0.207505201 6.95753971,-0.207505201 5.76535066,0.625724824 C4.5731616,1.45895485 4.01250936,2.95220849 4.35641758,4.37830846 C5.61938234,4.69275949 6.60553729,5.69246075 6.91587062,6.9729194 L6.91587062,6.9729194 Z" id="路径" fill="#7ABDF7"></path>
                                    <path d="M8.57549491,8.65481393 C8.03033991,8.51946771 7.46102562,8.51946771 6.91587062,8.65481393 C6.60536681,9.93503501 5.6194861,10.9346085 4.35680229,11.2494249 C4.01289406,12.6755248 4.57354631,14.1687785 5.76573536,15.0020085 C6.95792442,15.8352385 8.53382582,15.8352385 9.72601487,15.0020085 C10.9182039,14.1687785 11.4788562,12.6755248 11.1349479,11.2494249 C9.87198318,10.9349738 8.88582824,9.93527259 8.57549491,8.65481393 L8.57549491,8.65481393 Z" id="路径" fill="#0D74F5"></path>
                                    <path d="M11.9643754,4.27650547 C11.684889,4.27646734 11.4064128,4.31051624 11.1349479,4.37791841 C10.8247758,5.65810985 9.83891889,6.65765916 8.57626432,6.9721393 C8.44277216,7.5248659 8.44277216,8.10208733 8.57626432,8.65481393 C9.83893226,8.96951871 10.824744,9.96917258 11.1349479,11.2494249 C12.442858,11.5733264 13.8178671,11.1053144 14.668066,10.0468571 C15.5182649,8.98839985 15.6919111,7.52840952 15.1142538,6.29537792 C14.5365966,5.06234632 13.3107356,4.27634352 11.9643754,4.27572537 L11.9643754,4.27650547 Z" id="路径" fill="#4494F7"></path>
                                    <path d="M6.91587062,8.65481393 C7.04936278,8.10208733 7.04936278,7.5248659 6.91587062,6.9721393 C5.65315603,6.657627 4.66719604,5.65812341 4.35680229,4.37791841 C2.95023794,4.02923368 1.47743983,4.59767276 0.655623911,5.80642 C-0.166192004,7.01516723 -0.166192004,8.61295615 0.655623911,9.82170339 C1.47743983,11.0304506 2.95023794,11.5988897 4.35680229,11.250205 C4.66689907,9.96959338 5.65289492,8.96960257 6.91587062,8.65481393 L6.91587062,8.65481393 Z" id="路径" fill="#005CF4"></path>
                                    <path d="M8.57549491,6.9729194 C9.83817872,6.65810304 10.8240594,5.65852954 11.1345632,4.37830846 C9.87187943,4.69312482 8.88599872,5.69269832 8.57549491,6.9729194 L8.57549491,6.9729194 Z" id="路径" fill="#186EF9"></path>
                                    <path d="M8.57549491,8.65481393 C8.88576354,9.9351694 9.87174689,10.934847 11.1345632,11.2494249 C10.8240594,9.96920379 9.83817872,8.9696303 8.57549491,8.65481393 L8.57549491,8.65481393 Z" id="路径" fill="#0246F2"></path>
                                    <path d="M6.91587062,6.9729194 C6.60536681,5.69269832 5.6194861,4.69312482 4.35680229,4.37830846 C4.6673061,5.65852954 5.65318681,6.65810304 6.91587062,6.9729194 Z" id="路径" fill="#0046F8"></path>
                                    <path d="M6.91587062,8.65481393 C5.65318681,8.9696303 4.6673061,9.96920379 4.35680229,11.2494249 C5.6194861,10.9346085 6.60536681,9.93503501 6.91587062,8.65481393 L6.91587062,8.65481393 Z" id="路径" fill="#0729F1"></path>
                                </g>
                            </g>
                        </g>
                    </g>
                </g>
            </g>
        </g>
    </g>
</svg>