<?xml version="1.0" encoding="UTF-8"?>
<svg width="20px" height="20px" viewBox="0 0 20 20" version="1.1" xmlns="http://www.w3.org/2000/svg" xmlns:xlink="http://www.w3.org/1999/xlink">
    <title>icon/coins/qusd</title>
    <defs>
        <radialGradient cx="49.9970416%" cy="50%" fx="49.9970416%" fy="50%" r="50.0024084%" gradientTransform="translate(0.499970,0.500000),scale(1.000000,0.999820),translate(-0.499970,-0.500000)" id="radialGradient-1">
            <stop stop-color="#69CFFF" offset="0%"></stop>
            <stop stop-color="#4C91F2" offset="100%"></stop>
        </radialGradient>
        <linearGradient x1="100.057982%" y1="49.6073298%" x2="0.0579822188%" y2="49.6073298%" id="linearGradient-2">
            <stop stop-color="#58ABFD" offset="0%"></stop>
            <stop stop-color="#56C7FD" offset="100%"></stop>
        </linearGradient>
    </defs>
    <g id="icon/coins/qusd" stroke="none" stroke-width="1" fill="none" fill-rule="evenodd">
        <path d="M8.42235294,0.0741176471 C-4.38705882,2.50705882 -1.95764706,21.2082353 11.4611765,19.8129412 C24.2705882,17.38 21.8411765,-1.32117647 8.42235294,0.0741176471 Z" id="路径" fill="url(#radialGradient-1)" fill-rule="nonzero"></path>
        <path d="M8.87647059,15.64 C2.20352941,8.67176471 2.11764706,11.2482353 8.62117647,4.50470588 C8.79882353,4.30705882 9.32705882,3.68117647 10.2682353,3.83647059 C11.4235294,4.20823529 12.0329412,5.43411765 14.1505882,7.36588235 C15.4811765,8.78941176 16.4941176,9.22352941 15.9094118,10.6611765 C11.5082353,15.3929412 10.1658824,16.9317647 8.87647059,15.64 Z" id="路径" fill="#FFFFFF" fill-rule="nonzero"></path>
        <path d="M7.34661108,11.297978 L12.5348461,11.2997891 C12.7830493,11.2998757 12.9841876,11.5011544 12.9841009,11.7493577 C12.9840143,11.9975609 12.7827356,12.1986992 12.5345323,12.1986126 L7.34629733,12.1968015 C7.09809408,12.1967149 6.89695583,11.9954362 6.89704244,11.7472329 C6.8971291,11.4990297 7.09840783,11.2978914 7.34661108,11.297978 Z M7.34833323,9.49209558 L12.5365682,9.49390661 C12.7847715,9.49399325 12.9859097,9.69527198 12.9858231,9.94347523 C12.9857364,10.1916785 12.7844577,10.3928167 12.5362545,10.3927301 L7.34801949,10.3909191 C7.09981624,10.3908324 6.89867798,10.1895537 6.8987646,9.94135044 C6.89885126,9.69314719 7.10012999,9.49200894 7.34833323,9.49209558 Z M7.34770574,7.69209506 L12.5359407,7.69390609 C12.784144,7.69399273 12.9852822,7.89527146 12.9851956,8.14347471 C12.9851089,8.39167795 12.7838302,8.59281621 12.535627,8.59272957 L7.34739199,8.59091853 C7.09918874,8.59083189 6.89805049,8.38955317 6.8981371,8.14134992 C6.89822377,7.89314667 7.09950249,7.69200842 7.34770574,7.69209506 Z" id="形状" fill="url(#linearGradient-2)" fill-rule="nonzero"></path>
    </g>
</svg>