<?xml version="1.0" encoding="UTF-8"?>
<svg width="24px" height="24px" viewBox="0 0 24 24" version="1.1" xmlns="http://www.w3.org/2000/svg" xmlns:xlink="http://www.w3.org/1999/xlink">
    <title>-mockplus-</title>
    <g id="页面-1" stroke="none" stroke-width="1" fill="none" fill-rule="evenodd">
        <g id="挖矿-挖矿奖励" transform="translate(-60.000000, -556.000000)">
            <g id="编组-4" transform="translate(48.000000, 544.000000)">
                <g id="icon/coins/sfg" transform="translate(12.000000, 12.000000)">
                    <path d="M23.9806452,11.9903226 C23.9806452,5.36825806 18.6123871,0 11.9903226,0 C5.36825806,0 0,5.36825806 0,11.9903226 C0,18.6123871 5.36825806,23.9806452 11.9903226,23.9806452 C18.6123871,23.9806452 23.9806452,18.6123871 23.9806452,11.9903226 L23.9806452,11.9903226 Z" id="路径" fill="#1E1A31"></path>
                    <path d="M12.9147097,11.5989677 C14.3867763,11.6166328 15.570838,12.8149886 15.570838,14.2871613 C15.570838,15.7593339 14.3867763,16.9576898 12.9147097,16.9753548 L8.9763871,16.9753548 C8.65614208,16.9671549 8.40079775,16.7051887 8.40079775,16.3848387 C8.40079775,16.0644887 8.65614208,15.8025225 8.9763871,15.7943226 L12.9147097,15.7943226 C13.7470919,15.7943226 14.421871,15.1195435 14.421871,14.2871613 C14.421871,13.4547791 13.7470919,12.78 12.9147097,12.78 L11.0659355,12.78 C9.59386882,12.762335 8.40980716,11.5639791 8.40980716,10.0918065 C8.40980716,8.6196338 9.59386882,7.42127795 11.0659355,7.4036129 L15.003871,7.4036129 C15.324116,7.41181287 15.5794603,7.67377905 15.5794603,7.99412903 C15.5794603,8.31447901 15.324116,8.5764452 15.003871,8.58464516 L11.0659355,8.58464516 C10.2335533,8.58464516 9.55877419,9.25942426 9.55877419,10.0918065 C9.55877419,10.9241886 10.2335533,11.5989677 11.0659355,11.5989677 L12.9147097,11.5989677 Z" id="路径" fill="#FFFFFF"></path>
                    <path d="M13.889005,8.08554154 C14.0626756,7.8033268 14.4322437,7.7153344 14.7144585,7.88900501 C14.965316,8.04337888 15.0627139,8.35253596 14.9592865,8.61754011 L14.910995,8.71445846 L10.110995,16.5144585 C9.93732438,16.7966732 9.56775628,16.8846656 9.28554154,16.710995 C9.034684,16.5566211 8.93728607,16.247464 9.04071352,15.9824599 L9.08900501,15.8855415 L13.889005,8.08554154 Z" id="路径-6" fill-opacity="0.5" fill="#FFFFFF" fill-rule="nonzero"></path>
                </g>
            </g>
        </g>
    </g>
</svg>