<?xml version="1.0" encoding="UTF-8"?>
<svg width="36px" height="36px" viewBox="0 0 36 36" version="1.1" xmlns="http://www.w3.org/2000/svg" xmlns:xlink="http://www.w3.org/1999/xlink">
    <title>-mockplus-</title>
    <defs>
        <filter x="-26.1%" y="-26.1%" width="152.3%" height="152.3%" filterUnits="objectBoundingBox" id="filter-1">
            <feOffset dx="0" dy="4" in="SourceAlpha" result="shadowOffsetOuter1"></feOffset>
            <feGaussianBlur stdDeviation="4" in="shadowOffsetOuter1" result="shadowBlurOuter1"></feGaussianBlur>
            <feColorMatrix values="0 0 0 0 0   0 0 0 0 0   0 0 0 0 0  0 0 0 0.15 0" type="matrix" in="shadowBlurOuter1" result="shadowMatrixOuter1"></feColorMatrix>
            <feMerge>
                <feMergeNode in="shadowMatrixOuter1"></feMergeNode>
                <feMergeNode in="SourceGraphic"></feMergeNode>
            </feMerge>
        </filter>
    </defs>
    <g id="页面" stroke="none" stroke-width="1" fill="none" fill-rule="evenodd">
        <g id="存取款-流动性奖励-qian" transform="translate(-386.000000, -140.000000)">
            <g id="编组-5" transform="translate(318.000000, 76.000000)">
                <g id="icon/pools/2" transform="translate(24.000000, 20.000000)" filter="url(#filter-1)">
                    <g id="icon/coins/usdc" transform="translate(44.000000, 44.000000)">
                        <path d="M34.5652045,12.9350803 C37.1434959,22.3036319 31.634928,31.9889858 22.2633228,34.5656455 C12.8917176,37.1423052 3.20860559,31.6369832 0.633834061,22.2666716 C-1.94093746,12.89636 3.56059076,3.21100602 12.9321959,0.634346333 C22.3038011,-1.94231335 31.9869131,3.5630087 34.5652045,12.9350803 Z" id="路径" fill="#1BA57B"></path>
                        <path d="M13.9847807,23.060262 C14.3715244,24.4655448 13.5452392,25.9183479 12.1394984,26.3048468 C10.7337576,26.6913458 9.28129084,25.8655475 8.89507511,24.4600007 C8.50885938,23.054454 9.33408861,21.6016509 10.7398294,21.2151519 C12.1455702,20.828653 13.598037,21.6544513 13.9847807,23.060262 Z M26.3047807,23.060262 C26.6915244,24.4655448 25.8652392,25.9183479 24.4594984,26.3048468 C23.0537576,26.6913458 21.6012908,25.8655475 21.2150751,24.4600007 C20.8288594,23.054454 21.6540886,21.6016509 23.0598294,21.2151519 C24.4655702,20.828653 25.918037,21.6544513 26.3047807,23.060262 Z M20.9930409,16.6670161 C21.5086992,18.5407264 20.4069856,20.4777972 18.5326646,20.9931291 C16.6583435,21.508461 14.7217211,20.4073966 14.2067668,18.5333343 C13.6918125,16.659272 14.7921182,14.7222012 16.6664392,14.2068693 C18.5407602,13.6915373 20.4773826,14.7926017 20.9930409,16.6670161 Z M13.9847807,10.740262 C14.3715244,12.1455448 13.5452392,13.5983479 12.1394984,13.9848468 C10.7337576,14.3713458 9.28129084,13.5455475 8.89507511,12.1400007 C8.50885938,10.734454 9.33408861,9.2816509 10.7398294,8.89515195 C12.1455702,8.508653 13.598037,9.33445131 13.9847807,10.740262 Z M26.3047807,10.740262 C26.6915244,12.1455448 25.8652392,13.5983479 24.4594984,13.9848468 C23.0537576,14.3713458 21.6012908,13.5455475 21.2150751,12.1400007 C20.8288594,10.734454 21.6540886,9.2816509 23.0598294,8.89515195 C24.4655702,8.508653 25.918037,9.33445131 26.3047807,10.740262 Z" id="形状结合" fill="#FFFFFF"></path>
                    </g>
                </g>
            </g>
        </g>
    </g>
</svg>