<?xml version="1.0" encoding="UTF-8"?>
<svg width="36px" height="36px" viewBox="0 0 36 36" version="1.1" xmlns="http://www.w3.org/2000/svg" xmlns:xlink="http://www.w3.org/1999/xlink">
    <title>-mockplus-</title>
    <defs>
        <filter x="-26.1%" y="-26.1%" width="152.3%" height="152.3%" filterUnits="objectBoundingBox" id="filter-1">
            <feOffset dx="0" dy="4" in="SourceAlpha" result="shadowOffsetOuter1"></feOffset>
            <feGaussianBlur stdDeviation="4" in="shadowOffsetOuter1" result="shadowBlurOuter1"></feGaussianBlur>
            <feColorMatrix values="0 0 0 0 0   0 0 0 0 0   0 0 0 0 0  0 0 0 0.15 0" type="matrix" in="shadowBlurOuter1" result="shadowMatrixOuter1"></feColorMatrix>
            <feMerge>
                <feMergeNode in="shadowMatrixOuter1"></feMergeNode>
                <feMergeNode in="SourceGraphic"></feMergeNode>
            </feMerge>
        </filter>
    </defs>
    <g id="页面" stroke="none" stroke-width="1" fill="none" fill-rule="evenodd">
        <g id="usdg" transform="translate(-350.000000, -104.000000)">
            <g id="编组-5" transform="translate(318.000000, 76.000000)">
                <g id="icon/pools/2" transform="translate(24.000000, 20.000000)" filter="url(#filter-1)">
                    <g id="-mockplus-" transform="translate(8.800000, 8.800000)">
                        <g id="icon/coins/dai" transform="translate(-0.000000, -0.000000)">
                            <circle id="椭圆形" stroke="#DADEDF" fill="#F8F9FE" cx="17.6" cy="17.6" r="17.1"></circle>
                            <path d="M26.2514215,20.956075 C26.1940574,21.4251937 26.154403,21.8711413 26.0827941,22.3117711 C25.632351,25.0896376 24.0627303,26.9079949 21.3088678,27.7030276 C20.5869824,27.9159731 19.8426245,28.0461087 19.0905321,28.0908577 C18.4587568,28.1250445 17.8250566,28.1725262 17.1936664,28.1569522 C15.6452203,28.1189669 14.1241088,27.9233425 12.6988608,27.2650569 C10.8258647,26.4008908 9.70668701,24.9388358 9.24238418,22.9806926 C9.09762642,22.3706483 9.04988715,21.7378129 8.9694234,21.113714 C8.95325365,20.9887423 8.91128929,20.9549354 8.79271113,20.956075 C8.27373914,20.9602533 7.75322718,20.9522764 7.23618017,20.9610131 C7.08218254,20.963672 7.03752323,20.9184695 7.04010455,20.7680476 C7.04920139,20.2939908 7.04920139,19.819934 7.04010455,19.3458772 C7.03790823,19.2022927 7.08603248,19.1624081 7.2277103,19.1643074 C7.74013738,19.1715246 8.25256447,19.1624081 8.76499155,19.170385 C8.90936432,19.1722843 8.95748858,19.1232832 8.95517862,18.9861562 C8.95158534,18.183653 8.95158534,17.3810232 8.95517862,16.5782668 C8.95517862,16.4491167 8.90974932,16.4023947 8.7750014,16.404294 C8.25602941,16.4107515 7.73551745,16.404294 7.21847044,16.4092321 C7.08564749,16.4092321 7.03906321,16.3712468 7.04098818,16.2375384 C7.04753308,15.7509465 7.04676309,15.2639747 7.04098818,14.7773827 C7.04098818,14.6535506 7.07948759,14.6125264 7.20692062,14.6140458 C7.67456006,14.619617 8.14219951,14.619617 8.60983895,14.6140458 C8.95902856,14.611007 8.95363864,14.6900165 8.95363864,14.2839534 C8.95363864,12.5773995 8.95363864,10.8708457 8.95363864,9.16429186 C8.95517862,8.75594966 8.90820934,8.80267161 9.32477291,8.80077234 C11.0100202,8.80077234 12.6948825,8.80077234 14.3793598,8.80077234 C14.629221,8.80077234 14.629606,8.80077234 14.629606,9.05185531 C14.629606,10.8156404 14.629606,12.5791722 14.629606,14.3424508 C14.629606,14.6155652 14.629606,14.6155652 14.9141166,14.6155652 C16.6886825,14.6155652 18.4631201,14.6155652 20.2374294,14.6155652 C20.5546645,14.6155652 20.5619794,14.6915359 20.5619794,14.3040856 L20.5619794,9.07046812 C20.5619794,8.80229175 20.5619794,8.80153205 20.8368651,8.80153205 L25.9684509,8.80153205 C26.2344817,8.80153205 26.2348667,8.80153205 26.2348667,9.0738868 L26.2348667,14.3641024 C26.2348667,14.6159451 26.2348667,14.6163249 26.4978177,14.6163249 C26.9782903,14.6163249 27.4603028,14.6227824 27.9392354,14.6129063 C28.1028579,14.6094876 28.1640719,14.6467132 28.159452,14.820686 C28.1471322,15.2818278 28.1494422,15.7437293 28.159452,16.204871 C28.162532,16.3590915 28.1209526,16.4134105 27.9569451,16.4103716 C27.444903,16.4004955 26.932091,16.4103716 26.4196639,16.4039141 C26.2776011,16.4039141 26.2321718,16.4418995 26.2333268,16.585484 C26.2389733,17.3879872 26.2389733,18.1907436 26.2333268,18.9937533 C26.2333268,19.1430356 26.2899209,19.1715246 26.4258238,19.1696253 C26.9444108,19.1635477 27.4633828,19.1696253 27.9823547,19.1646872 C28.1147927,19.1646872 28.161762,19.2026726 28.1599215,19.3363809 C28.1529071,19.8165153 28.1521371,20.2970296 28.1599215,20.7771641 C28.162147,20.9188493 28.1174877,20.9625325 27.9738849,20.9606332 C27.4733926,20.9530361 26.9729003,20.9575944 26.475103,20.9575944 L26.2514215,20.956075 Z M17.6017601,19.1673462 C18.5238208,19.1673462 19.4454966,19.1646872 20.3671724,19.1700052 C20.5046152,19.1700052 20.5639043,19.1320199 20.5635212,18.9914742 C20.5601827,18.1892242 20.5601827,17.3871008 20.5635212,16.5851041 C20.5635212,16.4449383 20.5111601,16.4039141 20.3710223,16.4042914 C18.5209975,16.4080925 16.6711011,16.4080925 14.821333,16.4042914 C14.6634855,16.4042914 14.626911,16.4589928 14.628836,16.6018177 C14.6338409,17.3911526 14.6349959,18.1804876 14.628836,18.9698225 C14.628836,19.1297407 14.6819652,19.1722843 14.8386577,19.1711669 C15.7584085,19.1639275 16.6800843,19.1673462 17.6017601,19.1673462 Z M14.7254695,20.9693698 C14.7905335,21.2253909 14.8363478,21.4533028 14.9064167,21.6739975 C15.1797625,22.537024 15.7380039,23.1280756 16.635425,23.3658637 C17.1655618,23.5064094 17.7095584,23.517805 18.2524,23.4418343 C18.7617472,23.3708018 19.2291299,23.202147 19.614509,22.8462245 C19.9918032,22.4978991 20.2116348,22.0641068 20.3413778,21.5801738 C20.3945069,21.38303 20.4333913,21.1824675 20.4819006,20.96899 L14.7254695,20.9693698 Z" id="形状" fill="#D45858" fill-rule="nonzero"></path>
                        </g>
                    </g>
                </g>
            </g>
        </g>
    </g>
</svg>