<?xml version="1.0" encoding="UTF-8"?>
<svg width="20px" height="20px" viewBox="0 0 20 20" version="1.1" xmlns="http://www.w3.org/2000/svg" xmlns:xlink="http://www.w3.org/1999/xlink">
    <title>-mockplus-</title>
    <defs>
        <linearGradient x1="25%" y1="6.68571429%" x2="75%" y2="93.3142857%" id="linearGradient-1">
            <stop stop-color="#343068" offset="0%"></stop>
            <stop stop-color="#23204F" offset="100%"></stop>
        </linearGradient>
    </defs>
    <g id="页面" stroke="none" stroke-width="1" fill="none" fill-rule="evenodd">
        <g id="存取款-存款dForce（存入d代币）" transform="translate(-60.000000, -936.000000)">
            <g id="编组-3" transform="translate(24.000000, 482.000000)">
                <g id="编组-8" transform="translate(24.000000, 422.000000)">
                    <g id="数据录入-/-输入框" transform="translate(0.000000, 24.000000)">
                        <g id="下拉" transform="translate(12.000000, 8.000000)">
                            <circle id="椭圆形" fill="url(#linearGradient-1)" fill-rule="nonzero" cx="10" cy="10" r="10"></circle>
                            <path d="M10.8085714,4.47142857 C13.8319359,4.47142857 16.2828571,6.92234977 16.2828571,9.94571429 C16.2828571,12.8953382 13.9500351,15.3001023 11.0287444,15.4156532 L10.8085714,15.42 L10.4314286,15.42 L10.4314286,12.7685714 L10.5228571,12.7685714 C12.3457143,12.7342857 12.66,11.4485714 12.5428571,10.5657143 C12.4413333,9.80057143 12.2518222,9.59125079 11.9613046,9.43186116 L11.82,9.36 L11.82,9.36 C11.2702288,9.15637843 10.7057365,8.99495848 10.1314286,8.87714286 C9.95102041,8.84 9.78293003,8.61069971 10.1327145,8.57813203 L10.9243663,8.55203861 L10.9243663,8.55203861 L12.3028571,8.48571429 L12.3342857,7 C12.1575,6.97964286 11.9469643,6.97375 11.7150335,6.97343192 L10.9674107,6.9803125 C10.8799554,6.98095982 10.7914955,6.98123884 10.7024888,6.98082031 L10.4342857,6.97714286 L10.4342857,4.47142857 L10.8085714,4.47142857 Z M9.90857143,4.47714286 L9.90857143,6.98857143 C8.98,7.03428571 8.15714286,7.34571429 8.00857143,8.14857143 C7.72285714,9.70571429 8.24857143,10.1828571 8.70285714,10.42 C8.89805804,10.5218973 9.25942714,10.6253772 9.60812345,10.7102662 L10.0090302,10.8019182 L10.0090302,10.8019182 L10.5114286,10.9028571 L10.5383482,10.9327232 L10.5383482,10.9327232 L10.5626438,10.9766419 C10.5829563,11.0348016 10.5597619,11.1111905 10.3314286,11.1428571 C9.76087677,11.1829993 9.18892125,11.1978647 8.61724083,11.1874344 L8.04571429,11.1685714 L7.98571429,12.6771429 L8.92706755,12.7241226 L8.92706755,12.7241226 L9.92285714,12.7571429 L9.92285714,15.4142857 L6.46857143,15.4142857 C5.93248703,15.4142857 5.49113795,15.0086756 5.43467401,14.4876052 L5.42857143,14.3742857 L5.42857143,5.51714286 C5.42857143,4.98105846 5.83418155,4.53970938 6.35525197,4.48324544 L6.46857143,4.47714286 L9.90857143,4.47714286 Z" id="形状" fill="#FFFFFF"></path>
                        </g>
                    </g>
                </g>
            </g>
        </g>
    </g>
</svg>