<svg xmlns="http://www.w3.org/2000/svg" viewBox="0 0 400 400">
  <g fill-rule="evenodd">
    <path fill="#423a4f" d="M182.7.3c-3 0-5.1.3-5.1.5s-1.4.4-3.2.4c-2.1 0-3.2.2-3.3.5-.1.3-1 .5-2.8.4-2 0-2.7 0-2.8.5-.2.5-.7.6-2.2.4-1.6-.2-2-.2-2.2.4-.2.5-.6.6-2.1.4-1.5-.2-1.8-.2-1.8.4 0 .4-.4.6-1.2.6-.7 0-1.2-.2-1.2-.4s-.3-.3-.6-.1c-.3 0-.6.4-.6.8s-.4.5-1.7.4c-1 0-1.7.1-1.8.4-.1.3-.9.5-1.7.5-.9 0-1.6.2-1.6.4s-.6.4-1.4.4c-.8 0-1.4.2-1.4.4s-.6.4-1.4.4c-.8 0-1.4.2-1.4.4s-.6.4-1.4.4c-.8 0-1.4.2-1.4.4s-.5.4-1.2.4-1.2.2-1.2.4-.5.4-1.2.4-1.2.2-1.2.4-.5.4-1.2.4-1.2.2-1.2.4-.4.4-1 .4-1 .2-1 .4c0 .3-.4.4-1 .3-.7-.1-1.1 0-1.3.3 0 .4-.6.6-1.1.6-.5 0-1 .3-1.2.6-.1.4-.5.6-1 .4-.4-.1-.8 0-1 .4 0 .3-.5.6-1 .6-.4 0-.8.2-.8.5 0 .2-.4.3-1.2.2-1-.2-1.1-.1-1 .3.2.4 0 .6-.8.6-.5 0-1 .2-1 .4 0 .3-.4.4-.8.3-.5-.2-.8 0-.8.3s-.4.6-.8.6-.8.2-.8.4-.3.4-.8.4c-.4 0-.9.2-1 .4-.1.2-.6.4-1 .4-.5 0-.8.2-.8.4s-.4.4-.8.4-.8.2-.8.4-.4.4-.8.4-.8.2-.8.4-.4.4-.8.4-.8.2-.8.4c0 .3-.4.4-.8.3-.5-.2-.8 0-.8.3s-.3.6-.6.6-1 .4-1.6 1c-.6.5-1.3 1-1.6 1-.3 0-.6.2-.7.5-.1.4-.3.4-.9 0-.3-.4-.6-.5-.6-.3.2.9 0 1.4-.6 1.4-.3 0-.6.2-.6.4s-.3.4-.6.4-.6.2-.6.4c0 .3-.4.4-.8.3-.5-.1-.8 0-.8.3s-.5.8-1.2 1c-.7.4-1.2.7-1.2.9 0 .2-.3.3-.6.3s-.6.1-.6.3c0 .2-.6.6-1.4.9-.7.3-1.3.7-1.2.9.2.1-.1.3-.6.3-.4 0-.8.3-.8.6 0 .4-.5.7-1.2.9-.7 0-1.2.4-1.2.6 0 .7-1.2 1.6-1.8 1.4-.3-.2-.6 0-.6.2 0 .5-2 2.3-2.7 2.3-.3 0-.5.2-.5.4s-.2.4-.4.4c-.3 0-1 .5-1.6 1.2-1 1.2-2.3 1.7-1.8.7.2-.2.1-.3-.1-.1-.3.1-.5.4-.5.7 0 .5-3.4 3.9-4 3.9-.2 0-2 1.7-4.2 3.8-2.1 2.1-4 3.8-4 3.6-.5-.3-1.8.6-1.8 1.2 0 .4-.2.6-.3.4-.5-.2-3 2.4-2.6 2.7.1.2 0 .3-.4.3-.7 0-1.6 1.3-1.3 1.7.4.3-7 7.6-7.3 7.3-.3-.1-.3.1-.2.6.2.8-3 4.4-3.8 4.4-.3 0-.6.2-.7.5-.2.2-.1.3.1.1 1-.5.5.7-.7 1.8-.7.6-1.2 1.3-1.2 1.6 0 .2-.2.3-.4.2-.2-.1-.4.1-.4.6 0 .4-.2.8-.4.8s-.4.2-.4.4c0 .6-1 1.6-1.6 1.6-.2 0-.3.3-.1.6.2.6-.7 1.8-1.5 1.8-.2 0-.4.4-.4.8s-.4 1-.8 1.3c-.4.3-.8.8-.8 1.2 0 .4-.1.7-.3.5-.2 0-.6.5-1 1.2-.2.8-.6 1.4-.8 1.4-.2 0-.3.3-.3.6s-.1.6-.3.6c-.2 0-.5.5-.8 1.2-.3.7-.8 1.2-1.1 1.2-.3 0-.4.3-.3.8.1.4 0 .8-.3.8-.2 0-.4.3-.4.6s-.2.6-.4.6-.4.3-.4.6c0 .6-.5.8-1.4.6-.2 0 0 .2.2.6.4.4.4.7.1 1-.2 0-.7.8-1 1.5-.4.7-.9 1.3-1.1 1.3-.2 0-.4.4-.4.8s-.3.8-.6.8-.5.3-.3.8c.1.4 0 .8-.3.8-.2 0-.4.4-.4.8s-.2.8-.4.8-.4.4-.4.8-.2.8-.4.8-.4.4-.4.8-.2.8-.4.8-.4.3-.4.8c0 .4-.2.9-.4 1-.2.1-.4.6-.4 1 0 .5-.2.8-.4.8s-.4.4-.4.8-.3.8-.6.8-.5.3-.3.8c.1.4 0 .8-.3.8-.2 0-.4.5-.4 1 0 .8-.2 1-.6.9-.4-.2-.5 0-.3.9.1.8 0 1.2-.5 1.3-.3.2-.5.5-.4.9.2.3 0 .7-.4.8-.4.2-.5.6-.4 1 .2.5 0 .9-.4 1-.3.2-.6.7-.6 1.2s-.2 1-.6 1.1c-.3.2-.4.6-.3 1.3.1.6 0 1-.3 1-.2 0-.4.4-.4 1s-.2 1-.4 1-.4.5-.4 1.2-.2 1.2-.4 1.2-.4.5-.4 1.2-.2 1.2-.4 1.2-.4.5-.4 1.2-.2 1.2-.4 1.2-.4.6-.4 1.4c0 .8-.2 1.4-.4 1.4s-.4.6-.4 1.4c0 .8-.2 1.4-.4 1.4s-.4.6-.4 1.4c0 .7-.2 1.4-.5 1.5-.3.1-.4.7-.4 1.6.1.9 0 1.5-.3 1.5-.2 0-.4.8-.4 1.8 0 1.5-.1 1.8-.6 1.7-.3-.2-.6 0-.7.5-.1.5 0 .8.1.8.2 0 .4.5.4 1.2 0 .8-.2 1.2-.6 1.2-.6 0-.6.3-.4 1.8.2 1.5.1 1.9-.4 2-.6.3-.6.7-.4 2.3.2 1.5.1 2-.4 2.1-.3.2-.6.6-.6 1s-.2.8-.5 1c-.4.1-.4.1 0 .2.6 0 .7 3.6.1 3.6-.2 0-.4 1.3-.4 3.2a318.6 318.6 0 00-.4 47.4c.2-.1.4 1.2.4 3 0 1.7.2 3.3.4 3.4.2.1.4 1.3.4 2.7 0 1.5.2 2.6.6 3 .4.4.5 1 .3 2.5-.2 1.7-.1 2 .5 2 .5 0 .6.3.4 2-.3 1.7-.2 2 .4 2 .6 0 .7.3.4 1.8-.2 1.5-.1 1.8.4 1.8s.6.3.5 1.4c0 .9.1 1.6.4 1.8.4.2.5.8.4 1.6 0 .7.1 1.4.5 1.6.3.2.4.7.3 1.4-.1.7 0 1.1.3 1.3.4 0 .6.8.6 1.5 0 .8.2 1.5.4 1.6.2.1.4.8.4 1.4 0 .7.2 1.2.4 1.2s.4.5.4 1.2.2 1.2.4 1.2.4.6.4 1.4c0 .9.2 1.3.4 1.2.2-.1.4.3.4 1 0 .6.2 1.2.4 1.2s.4.5.4 1.2.2 1.2.4 1.2c.3 0 .4.4.3.8-.2.5 0 1 .3 1 .7.3.8 1.7.1 2-.3 0 0 .2.6.4 1 .2 1 .4.9 1.2-.2.8-.1 1 .4 1s.6.2.4 1c-.2.8 0 1 .4 1 .5 0 .6.2.4 1-.2.8 0 1 .5.7.5-.2.6 0 .4.7-.2.5 0 1 .3 1 .3.2.6.5.6.9 0 .3-.2.4-.5.3-.2-.2-.3-.1-.1.1.1.3.5.5.8.5.4 0 .6.4.6 1 0 .5.2 1 .4 1s.4.4.4.8.2.8.4.8.4.4.4.8.2.8.4.8.4.4.4.8.2.8.4.8.4.4.4.8.2.8.4.8.4.4.4.8.2.8.4.8.4.4.4.8.2.8.4.8.4.3.4.8c0 .4.3.8.6 1 .3 0 .5.4.4.8-.2.4 0 .6.4.6.3 0 .6.3.6.6s.2.6.4.6.4.4.4.8.2.8.4.8.4.3.4.7c0 .4.4 1 .8 1.3.4.3.8.9.8 1.3s.2.7.4.7c.3 0 .4.3.3.6-.2.3.2.8.7 1.3.6.4 1 1 1 1.4 0 .4.2.7.4.7s.4.3.4.6.2.6.4.6.4.2.4.5.4 1 .8 1.4c.4.5.8 1.2.8 1.5 0 .4.2.5.4.4.2-.1.4 0 .4.4 0 .3.2.6.4.6.5 0 1.6 1 1.6 1.4l-.6.2c-.6 0-.6.1-.2.6.3.3.7.5.8.4.5-.3 1.6.7 1.6 1.4a.4.4 0 00.4.4c.3 0 .4.3.3.8-.1.5 0 .7.3.5.4 0 .6 0 .6.4 0 .3.4.8.8 1.1.4.3.8.8.8 1.1 0 .3 1 1.4 2 2.5 1.1 1.1 2 2.2 2 2.5-.1.3 0 .5.1.6.6.1 5.9 5.7 5.9 6.1 0 .3.2.3.4.2.2-.1.4 0 .4.4s-.2.5-.5.4c-.2-.2-.3-.1-.1.1.1.3.4.5.6.5.7 0 3.3 2.8 3 3.2-.1.2 0 .3.3.2.6-.3 2.6 2 2.4 2.6 0 .2.2.3.6.1.4-.2.5 0 .3.2-.1.3 0 .5.2.5.6 0 1.6 1 1.6 1.5 0 .3.2.6.5.7.2.2.3.1.1-.1-.1-.3 0-.5.2-.5a36.8 36.8 0 017 7.3c.6.3.7.4.5 0-.8-1.3.8-.3 2.6 1.6a9 9 0 002.4 2c.2 0 .9.4 1.6 1.1.7.7 1.5 1.2 1.8 1.2.3 0 .5.2.5.4s.2.4.4.4c.6 0 1.6 1 1.6 1.6 0 .2.3.3.6.1.4-.1 1 .3 1.9 1.2.6.7 1.4 1.3 1.7 1.2.2 0 .7.3 1 .9.3.5.8 1 1.2 1 .4 0 1 .4 1.5.8s1.1.8 1.4.8c.3 0 .8.4 1.1.8.3.4 1 .8 1.3.8.5 0 .7.2.6.6-.2.3 0 .4.5.3.8-.2 2 .7 2 1.4 0 .3.2.6.5.7.2.2.3.1.1-.1-.1-.3 0-.5.4-.5.3 0 .6.2.6.4s.4.4.8.4c.9 0 1 .6.3 1h.6c.8-.2 1.1 0 1.1.4 0 .3.2.5.6.3.3 0 .7.1.8.5.2.3.6.5.9.4.3 0 .6 0 .8.4 0 .3.5.6 1 .6.4 0 .7.2.7.4s.4.4.8.4.8.2.8.4.3.4.6.4.6.2.6.4.4.4.8.4.8.2.8.4.4.4 1 .4 1 .2 1 .4.4.4.8.4.8.2.8.4.4.4 1 .4 1 .2 1 .4.4.4.8.4.8.2.8.4.4.4.8.4.8.2.8.4.5.4 1 .4c.8 0 1 .2.9.6-.2.4 0 .5 1 .3.8-.1 1.1 0 1.1.5s.2.6 1 .4c.8-.2 1-.1 1 .4s.2.6.8.4c.5-.1.9 0 1.1.4.3.5.7.6 1.3.5.5-.2 1 0 1 .3.2.3.7.6 1.2.6.6 0 1 .2 1 .4s.5.4 1.2.4c.6 0 1.2.2 1.3.6.2.3.6.4 1.2.3.7-.1 1 0 1.4.8.2.5.5.7.5.4 0-.6 2-.7 2-.1 0 .2.5.4 1.2.4s1.2.2 1.2.4.6.4 1.4.4c.8 0 1.4.2 1.4.4s.6.4 1.4.4c.8 0 1.4.2 1.4.4s.7.4 1.6.4c.9 0 1.6.2 1.6.4s.7.4 1.6.4c.9 0 1.6.2 1.7.5.1.3.9.5 2 .5 1.2 0 1.7.1 1.6.5-.1.5.3.5 1.7.3 1.6-.2 2-.1 2.7.6.6.6.9.7 1.5.4 1.1-.6 2.4-.5 2.7.2.2.6.6.6 2.3.4 1.8-.2 2.2-.1 2.5.4.3.6.8.7 2.8.5 1.7-.2 2.8 0 3.5.3.7.4 2.5.6 5.2.6 2.4 0 4.2.2 4.3.4 0 .3 3.8.4 10.1.4 16.5 0 17.9 0 17.6-.4-.3-.4 1.3-.6 5.7-.4 2.2 0 3 0 3.5-.6.6-.5 1.2-.6 3.4-.4 2.3.3 2.7.2 3-.4.2-.6.5-.6 2.5-.4 2 .2 2.4.2 2.7-.4.2-.6.5-.7 2-.5 1.4.2 1.8.1 2.1-.4.3-.5.8-.6 2.2-.4 1.5.2 1.9 0 1.9-.4s.4-.5 1.7-.4c1 0 1.7-.1 1.8-.4 0-.3.9-.5 1.7-.5.9 0 1.6-.2 1.6-.4s.7-.4 1.6-.4c.9 0 1.6-.2 1.6-.4s.6-.4 1.4-.4c.8 0 1.4-.2 1.4-.4s.6-.4 1.4-.4c.8 0 1.4-.2 1.4-.4s.6-.4 1.4-.4c.8 0 1.4-.2 1.4-.4s.5-.4 1-.4c.6 0 1.3-.3 1.6-.6.4-.3 1-.5 1.3-.3.3.1.8 0 1-.5.3-.4.7-.6 1.3-.4.6.1 1 0 1.2-.4.1-.5.5-.6 1.2-.5.7.1 1 0 1-.4s.3-.5.8-.4c.5.2 1 0 1-.3.2-.3.7-.6 1.2-.6.6 0 1-.2 1-.4s.4-.4 1-.4 1-.2 1-.4.4-.4 1-.4 1-.2 1-.4.4-.4 1-.4 1-.2 1-.4.3-.4.8-.4c.4 0 .9-.2 1-.4.1-.2.6-.4 1-.4.5 0 .8-.2.8-.4s.4-.4.8-.4.8-.2.8-.4.4-.4.8-.4.8-.2.8-.4.3-.4.6-.4c.7 0 4.3-2 4.5-2.5.1-.1.5-.3 1-.3.4 0 .7-.2.7-.4s.4-.4.8-.4.8-.1.8-.3c0-.2.6-.6 1.4-.9.8-.3 1.4-.7 1.4-.8s.6-.5 1.4-.8c.8-.3 1.4-.7 1.4-.9 0-.2.4-.3.8-.3s.8-.2.8-.4.3-.4.6-.4.6-.2.6-.4.2-.4.5-.4 1-.4 1.4-.8l1-.8a95.6 95.6 0 0010.1-6.8c.3 0 .6-.2.6-.4s.2-.4.5-.4.8-.4 1.1-.8c.3-.4.8-.8 1-.8.3 0 .9-.5 1.4-1 .6-.6 1.6-1.5 2.4-2 .8-.5 2-1.6 2.9-2.4a9.3 9.3 0 012.5-1.9l3.9-3.5a256.7 256.7 0 0020.1-21.1c.8-.8 1.9-2.1 2.4-2.9.5-.8 1.4-1.8 2-2.4.5-.5 1-1.1 1-1.4 0-.2.4-.7.8-1 .4-.3.8-.8.8-1 0-.4.2-.6.4-.6s.4-.3.4-.6.1-.6.3-.6c.2 0 .6-.5 1-1.1A95.6 95.6 0 00370 304c.1 0 .3-.3.3-.6s.2-.6.4-.6.4-.4.4-.8.1-.8.3-.8c.2 0 .6-.6.9-1.4.3-.8.7-1.4.8-1.4s.5-.6.8-1.4c.3-.8.7-1.4.9-1.4.2 0 .3-.4.3-.8s.2-.8.4-.8.4-.3.4-.8c0-.4.2-.8.3-.9.5-.2 2.5-3.8 2.5-4.5 0-.3.2-.6.4-.6s.4-.4.4-.8.2-.8.4-.8.4-.4.4-.8.2-.8.4-.8.4-.3.4-.8c0-.4.2-.9.4-1 .2-.1.4-.6.4-1 0-.5.2-.8.4-.8s.4-.5.4-1 .2-1 .4-1 .4-.5.4-1 .2-1 .4-1 .4-.5.4-1 .2-1 .4-1 .4-.4.4-1c0-.5.3-1 .6-1.1.3-.2.5-.6.3-1-.1-.6 0-.9.4-.9s.5-.3.4-1c-.1-.7 0-1 .5-1.2.4-.2.5-.6.4-1.2-.2-.7 0-1 .4-1.3.4-.1.6-.5.5-1-.1-.4 0-1 .3-1.3.3-.3.6-1 .6-1.6 0-.5.2-1 .4-1s.4-.6.4-1.4c0-.8.2-1.4.4-1.4s.4-.6.4-1.4c0-.8.2-1.4.4-1.4s.4-.6.4-1.4c0-.8.2-1.4.4-1.4s.4-.7.4-1.6c0-.9.2-1.6.4-1.6s.4-.7.4-1.6c0-.8.2-1.6.5-1.7.3-.1.4-.8.4-1.8-.1-1.3 0-1.7.4-1.7.5 0 .6-.4.4-1.9-.2-1.4 0-1.9.4-2.2.5-.2.6-.7.4-2.3-.2-1.7-.1-2 .5-2s.6-.3.4-2.4c-.2-2-.2-2.4.4-2.7.6-.2.7-.6.4-3-.2-2-.1-2.7.4-3.2.4-.5.6-1.6.5-4.9 0-3 .1-4.4.5-4.6a196 196 0 00-.9-36.5c-.4-.1-.5-1.1-.4-3.4 0-2.6 0-3.3-.5-3.5-.5-.2-.6-.6-.4-2.3.2-1.8.2-2.2-.4-2.4-.7-.3-.8-1.6-.2-2.7.3-.6.2-1-.4-1.5-.7-.7-.8-1-.6-2.7.3-1.6.2-1.8-.4-1.5-.6.2-.7 0-.5-1.6.2-1.5 0-1.9-.3-1.9-.4 0-.6-.5-.6-1.8 0-1-.2-1.8-.4-1.8s-.4-.7-.4-1.6c0-.9-.2-1.6-.4-1.6s-.4-.6-.4-1.4c0-.8-.2-1.4-.4-1.4s-.4-.6-.4-1.4c0-.8-.2-1.4-.4-1.4s-.4-.5-.4-1.2-.2-1.2-.4-1.2c-.3 0-.4-.5-.3-1.2 0-.7-.1-1.4-.5-1.6-.3-.2-.4-.7-.3-1.2.2-.5 0-1-.3-1-.3-.2-.6-.8-.6-1.4 0-.7-.2-1.2-.4-1.2s-.4-.4-.4-1c0-.5-.3-1-.6-1.1a.6.6 0 01-.4-.9c.2-.3 0-.9-.4-1.2-.4-.4-.5-1-.4-1.4.2-.6 0-.8-.4-.8-.5 0-.6-.2-.5-.8.2-.5 0-1-.4-1-.4-.2-.5-.7-.4-1.4.2-1 .1-1.1-.3-1-.4.2-.6 0-.6-.8 0-.5-.2-1-.4-1s-.4-.4-.4-.8-.2-.8-.4-.8-.4-.4-.4-.8-.2-.8-.4-.8-.4-.5-.4-1-.2-1-.4-1-.4-.4-.4-.8-.2-.8-.4-.8-.4-.5-.4-1-.2-1-.4-1-.4-.3-.4-.6-.2-.6-.4-.6-.4-.4-.4-.8-.2-.8-.4-.8-.4-.4-.4-.8-.2-.8-.4-.8-.4-.3-.4-.8c0-.4-.3-.8-.6-1a.6.6 0 01-.4-.8c.2-.4 0-.6-.4-.6-.5 0-.6-.2-.5-.8.2-.5 0-.8-.4-.8s-.5-.3-.4-1.1v-.6c-.3.8-.9.6-.9-.3 0-.4-.2-.8-.4-.8s-.4-.3-.4-.6c0-.4.2-.5.5-.4.2.2.3.1.1-.1-.1-.3-.4-.5-.7-.5-.7 0-1.6-1.2-1.4-2 .1-.5 0-.7-.3-.5-.4.1-.6 0-.6-.6 0-.4-.4-1-.8-1.3-.4-.3-.8-.9-.8-1.3s-.2-.7-.3-.7c-.2 0-.6-.5-1-1.1-.2-.6-1-1.5-1.4-2-.6-.5-.9-1-.8-1.2.1 0-.4-.8-1.1-1.5-.8-.7-1.4-1.6-1.4-1.9 0-.3-.4-.8-.8-1.1-.4-.3-.8-.8-.8-1 0-.4-.2-.6-.4-.6a.4.4 0 01-.4-.4c0-.4-.8-1.4-1.9-2.6-.3-.3-.5-.7-.5-1 0-.5-1.8-2.4-2.2-2.4-.2 0-.6-.4-1-.9-.9-1-1-2.1-.3-1.6.3.2.3 0 0-.4s-.7-.6-1-.5c0 .1-.8-.4-1.6-1.2a460.3 460.3 0 00-3-3.2c-1.6-1.7-2.3-3-1.2-2.4.3.2.4.2.2 0l-.7-.4c-.4 0-1.6-1.3-1.6-1.8 0-.2-.2-.3-.5-.2-.3.2-.4.1-.2-.4.2-.4.1-.5-.1-.4-.5.3-3.7-2.6-3.4-3 .2-.2 0-.4-.3-.4s-.8-.4-1.1-.8c-.3-.4-.8-.8-1.1-.8-.4 0-.5-.2-.4-.6.2-.3 0-.7-.2-.8-.2-.2-.3-.1-.1.1.6 1.1-.8.4-2.5-1.3l-3.2-3.1c-.7-.7-1.3-1.5-1.3-1.7 0-.3-.3-.4-.7-.3-.5 0-1.2-.4-2.2-1.5-.8-.9-1.6-1.6-1.9-1.6s-.3-.2-.2-.4c.1-.2-.1-.4-.6-.4-.4 0-.8-.2-.8-.3 0-.2-.5-.6-1-1-.6-.2-1-.7-.8-1 .1-.4 0-.5-.6-.3-.5.1-.8 0-.8-.2a.4.4 0 00-.4-.4c-.7 0-1.7-1.1-1.4-1.6 0-.1 0-.5-.4-.8-.5-.4-.6-.4-.6.2 0 .9-.5.8-1.3-.4-.4-.5-1.2-1-1.7-1.2-.6-.1-1-.5-1-.8a.6.6 0 00-.6-.6c-.3 0-.6-.2-.6-.4s-.2-.4-.5-.4-1-.4-1.4-.8c-.5-.4-1.1-.8-1.5-.8-.3 0-.6-.2-.6-.4s-.3-.4-.6-.4-.6-.2-.6-.4-.3-.4-.6-.4-.6-.2-.6-.4-.4-.4-.8-.4-.8-.2-.8-.4-.3-.4-.6-.4-.6-.2-.6-.4-.3-.4-.6-.4-.6-.2-.6-.4-.4-.4-.8-.4-.8-.2-.8-.4c0-.1-.4-.4-.8-.5-.5-.1-.8-.4-.6-.6.1-.3-.1-.3-.6-.2-.6.1-.8 0-.8-.5s-.2-.6-.6-.5c-.4.2-.7 0-.9-.3 0-.3-.5-.6-1-.6-.4 0-.7-.2-.7-.4s-.4-.4-.8-.4-.8-.2-.8-.4-.4-.4-.8-.4-.8-.2-.8-.4-.4-.4-.8-.4-.8-.2-.8-.4-.4-.4-.8-.4-.8-.2-.8-.4-.5-.4-1-.4-1-.2-1-.4-.4-.4-.8-.4-.8-.2-.8-.4-.4-.4-.8-.4-.8-.2-.8-.4-.5-.4-1-.4c-.8 0-1-.2-.9-.6.2-.5 0-.5-1-.3s-1.2.1-1-.4c.2-.5 0-.6-.6-.4-.5.1-1 0-1.3-.4-.2-.4-.8-.6-1.2-.6-.5 0-.8-.1-.7-.4 0-.3-.4-.5-1.1-.5-.7 0-1.2-.2-1.2-.4 0-.3-.3-.4-.7-.4-1.3.1-1.8 0-1.5-.4.1-.2-.3-.4-1-.4-.6 0-1.2-.2-1.2-.4s-.5-.4-1.2-.4-1.2-.2-1.2-.4-.5-.4-1.2-.4-1.2-.2-1.2-.4-.5-.4-1.2-.4-1.2-.2-1.2-.4-.6-.4-1.4-.4c-.8 0-1.4-.2-1.4-.4s-.6-.4-1.4-.4c-.8 0-1.4-.2-1.4-.4s-.6-.4-1.4-.4c-.7 0-1.4-.2-1.5-.5-.2-.4-.7-.5-1.5-.4-.8.1-1.4 0-1.6-.3-.2-.3-1-.6-1.9-.6-.9 0-1.5-.2-1.4-.5.1-.6-1-1-1.3-.5-.4.7-2.6.5-2.6-.2 0-.5-.3-.6-1.8-.4-1.5.2-1.8.2-2-.4-.3-.6-.6-.6-2.3-.4-1.5.2-2 .1-2.2-.4-.1-.5-.7-.6-2.8-.5-1.8 0-2.7 0-2.8-.4-.1-.3-1.1-.5-3.3-.5-1.8 0-3.2-.2-3.3-.4-.1-.5-28.8-.8-38.8-.5M214.4 16a248.2 248.2 0 0118.2 2.4A272.6 272.6 0 01261 26a47 47 0 004.4 1.6l2.2.8a76 76 0 016.6 2.8 188 188 0 0178.2 65.6 202.3 202.3 0 0121.2 42.3c0 .4.1 1 .3 1.1.2.2.6 1.2.9 2.2a36.5 36.5 0 001.4 4.4l.6 2.2a199.5 199.5 0 016.4 34.1c.6 4.8.6 28 0 33.1a194.4 194.4 0 01-11.5 49.5c-2.4 6.1-8.6 19.2-11.6 24.5a126 126 0 01-9.4 14.5.6.6 0 00-.3.5 185.7 185.7 0 01-136 78A185.2 185.2 0 01147 376a36.7 36.7 0 00-2.7-.7c-.6-.1-1.2-.4-1.3-.5-.1-.2-.6-.4-1-.4-.5 0-1.1-.2-1.5-.4a220.3 220.3 0 01-31.7-14.3A205.7 205.7 0 0184.2 343a18.2 18.2 0 00-1.6-1.3A200.2 200.2 0 0139 289.8 302.8 302.8 0 0126.8 263a270.6 270.6 0 01-4.8-15 187.3 187.3 0 019-122.3 203.8 203.8 0 0119.8-34.5l2.6-3.4A69.6 69.6 0 0157 83a193 193 0 0126.3-26.2 13 13 0 001.3-1.1c2.4-2.3 16.6-12 22.2-15.3a384.6 384.6 0 003.1-1.7A232.9 232.9 0 01144 24l4-1.2a199.7 199.7 0 0136.2-6.8c2.4-.5 25.3-.5 30.2 0m-28.5 13.4a187.4 187.4 0 00-45.5 10.2c0 .2-.4.4-.8.4s-1.1.2-1.5.4a71.6 71.6 0 01-8.2 3.6c-1.3.7-2.7 1.2-3 1.2-.3 0-.5.2-.5.4s-.2.4-.5.4a50.5 50.5 0 00-10.7 5.6A158.7 158.7 0 0088 70.8c-3.8 3-4 2.2 2 8.2 5.6 5.7 5 5.3 6.2 4.1a78.6 78.6 0 018-6.7l1.3-1c.6-.5 1.1-1 1.3-1a129.3 129.3 0 0112.4-8.4 212.7 212.7 0 0125.5-12.4c.3 0 1-.2 1.5-.5 2-1 2.3-1.1 3-1.1.5 0 1-.2 1.1-.4.1-.2.8-.4 1.4-.4.7 0 1.2-.2 1.2-.4s.5-.4 1.2-.4c.6 0 1.3-.2 1.4-.4.1-.2.8-.4 1.4-.4.6 0 1.3-.2 1.4-.4.1-.2.7-.4 1.2-.4a133.8 133.8 0 0140.2-5 128.5 128.5 0 0142.8 5.8c.6 0 1.3.2 1.4.4.1.2.8.4 1.4.4.6 0 1.3.2 1.4.4.1.2.7.4 1.2.4s1 .2 1.2.4c.1.2.7.4 1.2.4s1 .2 1.2.4c.1.2.6.4 1 .4.5 0 1.2.2 1.6.4l1.6.8 1.2.4 2 .8 2 .8a87.2 87.2 0 0110.8 5.2c.5 0 .8.2.8.4s.4.4.8.4.8.1.8.3a136.2 136.2 0 0121.6 14.2 44 44 0 002.4 2c.8.5 2.4 2 3.6 3 2.9 2.7 2.5 2.8 8-2.7 5.3-5.2 5.2-5 3.9-6a1036.4 1036.4 0 01-1.9-1.7l-6.2-5.1a140.5 140.5 0 01-2-1.6 45.8 45.8 0 00-2.6-2 25 25 0 01-2.2-1.7c-.4-.4-1-.7-1.2-.7a105 105 0 00-13.8-8.7c0-.2-.6-.6-1.3-.9a50.5 50.5 0 00-9.5-4.8c0-.2-.2-.4-.5-.4s-1.7-.5-3-1.2l-2.7-1.2-2.2-1c-1-.5-2.7-1.1-3.8-1.4-1-.3-1.8-.7-1.8-.9 0-.2-.4-.3-1-.3-.5 0-1-.2-1.2-.4-.1-.2-.7-.4-1.2-.4s-1-.2-1.2-.4c-.1-.2-.7-.4-1.2-.4s-1-.2-1.2-.4c-.1-.2-.8-.4-1.4-.4-.6 0-1.3-.2-1.4-.4-.1-.2-.8-.4-1.4-.4-.6 0-1.3-.2-1.4-.4-.1-.2-.8-.4-1.4-.4-.6 0-1.3-.2-1.4-.4 0-.2-.9-.4-1.7-.5l-3.3-.7c-4.2-1-14.7-3-20.8-3.7-3.8-.4-31.3-.9-31.7-.5m134.7 60c-5.7 5.7-5.6 5.3-2.7 8.4a73.1 73.1 0 013.1 3.6 53.8 53.8 0 003 3.8l1.2 1.6c.4.3 7.2 10.3 8 11.8l1.3 2.2.7 1.2a140.8 140.8 0 0110.8 23.2l.8 1.6c.2.4.4 1.1.4 1.6 0 .4.2.9.4 1 .2.1.4.8.4 1.4 0 .6.2 1.3.4 1.4.2.1.4.7.4 1.2s.2 1 .4 1.2c.2.1.4.8.4 1.4 0 .6.2 1.3.4 1.4.2.1.4.9.4 1.6 0 .7.2 1.5.4 1.6a81.4 81.4 0 001.2 4.6c2.9 13.3 3.2 16.4 3.5 32.6.1 8.7 0 14.4-.3 16.6l-.8 6.6a163 163 0 01-8 31.8 3.9 3.9 0 01-.4 1.5l-1.6 3.9a130.5 130.5 0 01-7.2 15c0 .5-.2.8-.4.8s-.4.4-.4.8-.1.8-.3.8c-.2 0-.6.6-.9 1.4-.3.8-.7 1.4-.9 1.4a127.8 127.8 0 01-17.2 23.7c-2.2 2.3-2.5 1.7 4 8l4.4 4.4 1.6-1.8a96 96 0 011.7-1.9 227 227 0 006-7.4 43.5 43.5 0 002-2.6l1.2-1.6c.8-.6 6.8-10 10.5-16.4a109 109 0 005.9-11.6c.2 0 .4-.2.4-.5l.6-1.7 1.8-4.2a863.3 863.3 0 011.7-4 80.3 80.3 0 001.5-3.7 3.9 3.9 0 00.4-1.5c0-.4.2-.9.4-1 .2-.1.4-.7.4-1.2s.2-1 .4-1.2c.2-.1.4-.8.4-1.4 0-.6.2-1.3.4-1.4.2-.1.4-.8.4-1.4 0-.6.2-1.3.4-1.4.2-.1.4-.8.4-1.4 0-.6.2-1.3.4-1.4.2-.1.4-.9.4-1.6 0-.7.2-1.5.4-1.6.2 0 .4-.9.5-1.7l.6-3.3c5.2-23.7 5.2-48.7 0-72.4a58.6 58.6 0 01-.6-3.3c0-.8-.3-1.6-.5-1.7-.2-.1-.4-.9-.4-1.6 0-.7-.2-1.5-.4-1.6-.2-.1-.4-.8-.4-1.4 0-.6-.2-1.3-.4-1.4-.2-.1-.4-.8-.4-1.4 0-.6-.2-1.3-.4-1.4-.2-.1-.4-.8-.4-1.4 0-.6-.2-1.3-.4-1.4-.2-.1-.4-.7-.4-1.2s-.2-1-.4-1.2c-.2-.1-.4-.6-.4-1a3.9 3.9 0 00-.4-1.5l-2-4.9c-2.6-6.4-9-20-9.7-20.3a.6.6 0 01-.3-.5 101 101 0 00-6.8-11.5c0-.3-.1-.5-.3-.6-.2 0-1-1-1.7-2.1l-1.6-2.2-1.5-2a28 28 0 00-1.8-2.5l-2-2.3a83.8 83.8 0 00-3.7-4.6c-.2-.2-1-1.2-1.9-2l-1.4-1.7-5.1 5M72 86.9a284.4 284.4 0 01-3 3.5 143.5 143.5 0 00-9.5 12c-.2 0-.3.2-.3.5s-.4 1-.8 1.4A249.8 249.8 0 0041.6 136a138 138 0 00-1.3 2.9l-.7 1.7a4 4 0 00-.4 1.5c0 .4-.2.8-.4.8s-.4.5-.4 1.2c0 .6-.2 1.3-.4 1.4-.2.1-.4.7-.4 1.2s-.2 1-.4 1.2c-.2.1-.4.7-.4 1.2s-.2 1-.4 1.2c-.2 0-.4.8-.5 1.5-.4 2.2-.7 3.7-1.1 4.5a322.8 322.8 0 01-1.2 4.9c-1.7 7.5-2.9 14.2-3.7 20.9a338 338 0 000 35.4 211 211 0 007.3 34.6c.2 0 .4.5.4 1.2 0 .6.2 1.3.4 1.4.2.1.4.6.4 1 0 .5.2 1.2.4 1.6l.8 1.6.4 1.6c0 .4.2.8.4.8s.4.2.4.5c0 .7 3 7.7 5.6 12.9a32 32 0 012.3 5c.2 0 .6.7 1 1.5 1 2 2.3 4.4 5 8.4l2.1 3.7c0 .2.2.4.4.4.1 0 .5.5.8 1.2.3.7.6 1.2.8 1.2l.8 1 1 1.8a423.5 423.5 0 016 7.6 74.7 74.7 0 012 2.5c1.9 2.4 4.8 5.5 5.2 5.5.4 0 9.3-8.9 10-10 .1-.2-.4-1-1.1-1.7A141 141 0 0160 269.2a.4.4 0 01-.4-.4c0-.2-.8-2.2-1.8-4.3a141 141 0 01-3.9-8.9 23.5 23.5 0 00-.7-1.7 3.9 3.9 0 01-.4-1.5c0-.4-.2-.9-.4-1-.2-.1-.4-.7-.4-1.2s-.2-1-.4-1.2c-.2-.1-.4-.7-.4-1.2s-.2-1-.4-1.2c-.2-.1-.4-.8-.4-1.4 0-.6-.2-1.3-.4-1.4-.2-.1-.4-.8-.4-1.4 0-.6-.2-1.3-.4-1.4-.2-.1-.4-.7-.4-1.2s-.2-1.4-.4-1.9a138.7 138.7 0 01-4.6-38.3c0-14.6.5-19.7 3.1-31.6l1-5.1c.1-.7.3-1.4.5-1.5.2-.1.4-.8.4-1.4s.2-1.3.4-1.4c.2-.1.4-.9.4-1.6 0-.8.2-1.4.4-1.4s.4-.5.4-1.2c0-.6.2-1.3.4-1.4.2-.1.4-.8.4-1.4 0-.6.2-1.3.4-1.4.2-.1.4-.6.4-1 0-.5.2-1.2.4-1.6l.8-1.6c.2-.4.4-1 .4-1.4 0-.3.2-1 .4-1.3l1-2.1a193.2 193.2 0 019-18.6A176.7 176.7 0 0184 95l-6.3-6.3-4-4L72 87m17.8 233.4c-4.6 4.7-5.5 5.7-4.7 5.7a52.6 52.6 0 007.7 6.3l3.6 3a317 317 0 013.3 2.5l1.1.6c.2 0 .4.2.4.4s.2.4.4.4.8.4 1.3.8 1 .8 1.4.8c.3 0 .5.1.5.3 0 .2.5.6 1.1 1a80 80 0 0011.9 7.2l2.2 1c.5.6 2 1.3 2.6 1.3.3 0 .6.2.6.4s.4.4.8.4.8.2.8.4.4.4.8.4.8.2.8.4.3.4.6.4 1 .2 1.3.4l8.7 3.8 3.8 1.5 1.7.7a3.9 3.9 0 001.5.4c.4 0 .9.2 1 .4.1.2.7.4 1.2.4s1 .2 1.2.4c.1.2.8.4 1.4.4.6 0 1.3.2 1.4.4.1.2.8.4 1.4.4.6 0 1.3.2 1.4.4.1.2.8.4 1.4.4.6 0 1.3.2 1.4.4.1.2.9.4 1.6.4.7 0 1.5.2 1.6.4a80.8 80.8 0 015.2 1.2 171.1 171.1 0 0086.6-4c.7 0 1.2-.2 1.2-.4s.5-.4 1.2-.4c.6 0 1.3-.2 1.4-.4.1-.2.6-.4 1-.4a3.9 3.9 0 001.5-.4 27.1 27.1 0 011.7-.7 120 120 0 006.7-2.7 274.3 274.3 0 013.7-1.7l5.4-2.5a32.2 32.2 0 015-2.3c0-.2.7-.6 1.5-1l3.1-1.7a82.8 82.8 0 012.8-1.6l3.5-2.3c1.2-.8 2.4-1.5 2.7-1.5.2 0 .4-.2.4-.3 0-.2.5-.6 1.1-1 .6-.2 1.4-.8 1.9-1.2.4-.4 1-.7 1.2-.7.3 0 .6-.1.7-.3 0-.2 1.5-1.4 3.3-2.7a89.3 89.3 0 008-6.4l2.8-2.4c1-.8 1.8-1.7 1.8-2 0-.3-9.8-10.2-10.2-10.2l-2.5 2.2a81.5 81.5 0 01-10.5 8.5c-.7.4-1.2.8-1.2 1 0 .2-.3.3-.6.3s-.6.2-.6.4-.3.4-.6.4-.6.2-.6.4-.3.4-.6.4-.6.1-.7.3A68.4 68.4 0 01274 337c0 .2-.4.3-.8.3s-.8.2-.8.4-.4.4-.8.4-.8.2-.8.4-.4.4-.8.4-.8.2-.8.4-.3.4-.8.4a81.4 81.4 0 01-17 7.2c-.1.2-.7.4-1.2.4-.6 0-1 .2-1 .4s-.5.4-1.2.4c-.6 0-1.3.2-1.4.4-.1.2-.8.4-1.4.4-.7 0-1.2.2-1.2.4s-.6.4-1.4.4c-.7 0-1.5.2-1.6.4-.1.2-.8.4-1.4.4-.6 0-1.3.2-1.4.4-.1.2-.9.4-1.7.5l-3.1.6a179.3 179.3 0 01-19.8 3.3c-4.4.5-23.6.5-28 0a177 177 0 01-19.8-3.3 38.2 38.2 0 00-3.1-.6c-.8 0-1.6-.3-1.7-.5-.1-.2-.8-.4-1.4-.4-.6 0-1.3-.2-1.4-.4-.1-.2-.9-.4-1.6-.4-.8 0-1.4-.2-1.4-.4s-.5-.4-1.2-.4c-.6 0-1.3-.2-1.4-.4-.1-.2-.8-.4-1.4-.4-.7 0-1.2-.2-1.2-.4s-.4-.4-1-.4c-.5 0-1-.2-1.2-.4-.1-.2-.6-.4-1-.4-.5 0-1.2-.2-1.6-.4l-1.6-.8-1.2-.4c-.5 0-2.9-1-7-3-1.6-.8-3-1.4-3.3-1.4-.3 0-.5-.2-.5-.4s-.4-.4-.8-.4-.8-.2-.8-.4-.4-.4-.8-.4-.8-.2-.8-.4-.4-.4-.8-.4-.8-.2-.8-.4-.4-.4-.8-.4-.8-.1-.8-.3A93.5 93.5 0 01111 328c-.3 0-.6-.2-.6-.4s-.3-.4-.6-.4-.6-.1-.6-.3c0-.2-.5-.6-1.1-1a26 26 0 01-2.3-1.6c-4.6-3.6-8.2-6.6-9.3-7.8-1.7-1.6-.9-2-6.7 3.8"/>
    <path fill="#eb9444" d="M168.2 99.3l-.3 15.7-.1 15.2-19.2.1c-14.7 0-19.2.2-19.5.6-.1.3-.3 4.9-.3 10.2v9.6l8.9.2c10.2.1 11.6.5 14.2 3.8 2.2 3 2.1 1.6 2 49.2l-.1 44.3-1 1.5c-1.9 2.7-2.4 2.9-11.4 3-8.9.2-8.9.2-9.2 2.8a76.4 76.4 0 01-.6 3.7 195.8 195.8 0 00-2 11.7c-.3 2.4-.6 4.4-.5 4.5.1.1 8.8.2 19.4.2h19l.2 16.1.1 16.1h18.8l.2-15.6.2-15.6 7.7-.1 7.7-.1.1 15.7.1 15.7h18.8l.2-15.8.2-15.8 1-.2c.6-.2 2-.3 3.2-.4 7.5-.1 22.1-3 28.6-5.6 16-6.4 23.7-17.3 25.4-36.3 1.8-18.8-6.3-31.3-23.8-37-3.8-1.2-3.8-1.1-.2-3.5a27.8 27.8 0 0012.3-18.1c.6-2.2.7-13.3.1-15l-.8-3.3c-2.5-11.3-14-20.6-29.6-24a167 167 0 00-13.6-2.3l-2.2-.3-.2-15.6-.2-15.6-9.5-.1-9.5-.1V114l-.2 15.3h-15.2l-.1-15.3-.1-15.3h-9.4c-7.2 0-9.5.1-9.6.5m38 53.1c12.9 1.1 20 4.1 24.2 10.2 2.1 3.2 3.1 11.7 1.7 14.7l-1 2.2c-1.4 3.2-7.9 7.8-12.7 9l-2.4.7c-5.2 1.4-23 2.6-27 1.8l-1.4-.2.1-19.1.1-19.1 2.2-.2c3.8-.4 11-.4 16.1 0m4.7 58.2c23 2.2 32.2 9.2 30.8 23.6-1.3 12.8-17.9 19.5-47 19l-6.8-.2v-42.4l2.4-.2c4.7-.5 14.5-.4 20.6.2"/>
    <path fill="#fbfbfb" d="M188.8 16.2c-.2.1-2.6.4-5.4.6a158.8 158.8 0 00-42.6 8.8l-2.2.8a40.3 40.3 0 00-6.4 2.4l-2 .8-1.9.8a184 184 0 00-97 96 172.4 172.4 0 00-2 4.8 60.7 60.7 0 01-2.1 5.3c-.2.4-.4 1-.4 1.4s-.2 1-.3 1.1c-.2.2-.8 1.7-1.3 3.4a257.9 257.9 0 01-1.4 4.6 185.3 185.3 0 00-2.6 95.6 229 229 0 008.4 25.9 200.8 200.8 0 0021.6 38.9 186.2 186.2 0 0026.6 29.4 180.5 180.5 0 0057 34.4l1.6.8c.4.2 1.1.4 1.5.4s1 .1 1.1.3c.2.2 1.2.6 2.2.9l2.6.8a204 204 0 0032.6 7.2 195.5 195.5 0 0074-5.6 203 203 0 017.7-2.4c.4-.2 1-.4 1.4-.4s1-.1 1.1-.3a119.7 119.7 0 0041-20.5c.2 0 .4-.1.4-.3 0-.2.5-.6 1-1a762 762 0 0113.1-9.7 205.8 205.8 0 0028-28.5 981.1 981.1 0 014.5-5.8c.3-.4.6-.8.6-1a170.7 170.7 0 0020.8-37.8 49.4 49.4 0 001.2-3.1 66.3 66.3 0 011.6-4.4l.8-2.2a83.9 83.9 0 002.4-7.8c.5-1.4 3-11.3 3.5-14l.7-3.4c2-9.4 2.8-19.8 2.8-33.6a162.5 162.5 0 00-3.7-38.6 184.4 184.4 0 00-20.8-53.6l-3.2-5.1a44 44 0 01-3.2-5.3c-.2 0-.6-.5-1-1a183.7 183.7 0 00-162.4-80m19.5 12.2a187.8 187.8 0 0145 8.4c1 .3 2 .7 2.2.9.2.2.7.3 1 .3s1.1.2 1.5.4l5.1 2A184.5 184.5 0 01315 73c1 .6.6 1.2-4.7 6.6-5.4 5.4-6 5.8-7 4.6a139 139 0 00-18.9-14.6c-3-2-4.3-2.7-8.6-5.2a297.1 297.1 0 00-21.2-10l-2.4-.8a9 9 0 01-2-.8c-.2-.2-.8-.3-1.3-.3s-1-.2-1-.4c-.2-.1-.8-.4-1.4-.5a36.7 36.7 0 01-2.6-.7l-9.3-2.4a161.1 161.1 0 00-87.6 5.2l-4.4 1.7c-5 2-14 6.1-17.6 8.2a229.3 229.3 0 00-18.8 12.3l-6.3 5-4.9 4c-.4 0-11-10.1-11.2-10.8-.1-.3 0-.8.3-1A181 181 0 01154 34.4c13.4-4.3 38.4-7 54.2-6m119.4 57.1c5.2 5.4 12.8 15.6 18.6 24.8 3.7 6 8.5 15.4 11.6 22.9 2.5 6 2.5 6 3 7.8.3.9.7 1.8.9 2 .2.2.3.8.3 1.3s.2 1 .4 1.1c.2.1.4.7.4 1.2s.2 1 .4 1.2c.1 0 .4.7.5 1.3l.6 2.5 2.5 9.4a172.8 172.8 0 01-8.4 103.2 169.9 169.9 0 01-30.5 48.9c-2.6 2.7-2 2.9-7.7-2.8-6.2-6.3-6-6-5-7a168.7 168.7 0 0023.6-34.9 162.7 162.7 0 0012-33.2 154.8 154.8 0 00-34.4-138 39.5 39.5 0 01-1.2-1.3l-1-1.1 5.6-5.6c6.5-6.5 5.6-6 7.8-3.7M79.5 89.3c2.9 2.9 5.3 5.4 5.3 5.6 0 .2-1.7 2.4-3.7 4.8A146.8 146.8 0 0053.6 147c-.2.1-.4.7-.4 1.2s-.2 1-.4 1.2c-.2.1-.4.7-.4 1.2s-.2 1-.4 1.2c-.1 0-.4.7-.5 1.3l-.7 2.6a148.2 148.2 0 00-6.1 43.9c0 11.5.1 14 1.5 23.4a156.9 156.9 0 0018.2 52.8 275.6 275.6 0 0011.2 17 164.3 164.3 0 009.2 11.4c0 .7-10.3 11.4-11 11.4A94.7 94.7 0 0159.2 298a168.3 168.3 0 01-24-49.8 175.1 175.1 0 017.1-116.4 178.8 178.8 0 0129.3-45.7c2.3-2.7 1.7-3 7.9 3.2m108 25l.1 15.3h7.3l7.3-.2.2-15.2.2-15.2 9.7-.1 9.7-.1V114c0 16.6 0 16.3 2.2 16.3 1.2 0 7.6.9 9.8 1.3 21.2 4.6 31 12.4 34.4 27.7a59 59 0 010 16 27.5 27.5 0 01-12.5 18c-1.5 1-2.7 2-2.6 2 .2.2 2 .9 4.2 1.6 17 5.7 24.9 19.3 22.5 39-3.1 25.6-18.7 37-54 39.8-1.7.1-3.3.4-3.5.5a88 88 0 00-.6 16l-.1 15.5h-19.2l-.1-15.7-.1-15.7h-15.2v15.7l-.2 15.7h-19.2l-.1-15.9-.1-15.9h-18.9c-10.4 0-19.1-.2-19.4-.3-.4-.3-.3-1.8.7-7.5a1736.8 1736.8 0 002.3-14l.3-1.2 8.2-.2c9.1-.2 10-.5 11.9-3.1 1.3-2 1.4-2.8 1.2-48.5l-.1-43-.9-1.6c-2.4-4.6-4.6-5.4-14.7-5.4-4.5 0-8.4-.1-8.8-.2-.5-.3-.6-1.5-.6-10.4v-10.2l19.5-.1 19.5-.1.1-15.7.1-15.7h9.7l9.7.2.1 15.3m.6 38.4c-.4.3-.5 4.4-.4 19.1l.1 18.8 8.4.1c24.8.4 36.4-5.7 36.4-19.1 0-10.1-5.7-15.3-20.2-18.4a191 191 0 00-24.3-.5m0 58c-.6.2-.7 41.5-.1 41.9.6.4 17 .2 22.2-.2 21.2-1.7 31.2-8.4 31.2-20.8 0-11.5-7-17.2-25-20.4-2.7-.5-27.4-1-28.3-.6M95.7 314.7a162.6 162.6 0 0062.6 34.5 161.4 161.4 0 0086.9-1.2l2.6-.8 2.6-1A162.1 162.1 0 00301 317c3.6-3.2 2.6-3.6 9.2 2.7 6.3 6 6.2 5.6 2.5 8.7a870 870 0 00-4 3.5l-5.4 4.2a626.4 626.4 0 00-5.3 4 212.1 212.1 0 01-15.6 9.6 199.5 199.5 0 01-31.6 13.5l-2.6.8a86.6 86.6 0 01-12.4 3.1A169.7 169.7 0 01115.6 349a180.8 180.8 0 01-16.8-11A102.4 102.4 0 0184 325.5c0-.6 10.5-11.1 11-11.1.3 0 .6.1.7.3m250 21.9c-.5.5-.7 1-.6 1.1.2.3.6-.1 1.6-1.4.9-1 0-.8-1 .3m-2 2.2c-.3.4-.4.8-.3.8.3 0 1.4-1 1.4-1.4 0-.5-.6-.2-1.1.6m-5 5c-.5.3-.7.7-.6.8.1.2.6 0 1-.4.8-.8.5-1.1-.5-.4m-2.1 2c-1.3 1.4-1 1.6.4.4.6-.5 1-1 .8-1.1-.2-.1-.7.2-1.2.8"/>
    <path fill="#a9a6ae" d="M183.2 16.4l-2.2.3h2.2c1.2 0 3-.1 4-.3l1.8-.3h-1.8l-4 .3m27.2 0c1.8.3 7 .5 6.8.3a36.9 36.9 0 00-6.8-.3m-34.6.8l-1.6.3h1.6c.9 0 2-.1 2.6-.3l1-.3h-1l-2.6.3m44.2 0c1 .3 4.3.5 4 .2l-2.6-.3c-1.6-.2-2-.1-1.4 0m-49.6.9l-1 .3h1c.6 0 1.4-.1 1.8-.3l.8-.3h-.8l-1.8.3m55.8 0a6 6 0 002 .3h1.2l-1.2-.3-2-.3h-.8l.8.3m-60.6.8l-1 .3h1c.6 0 1.3 0 1.6-.3.8-.5 0-.5-1.6 0m65.8 0c.4.2 1.2.3 1.6.3h.8l-.8-.3c-.4-.2-1.2-.3-1.6-.3h-.8l.8.3m-69.6.8c-.5.2-.6.3-.2.3.3 0 1-.1 1.4-.3.5-.2.6-.3.2-.3-.3 0-1 .1-1.4.3m73.8 0c.3.2 1 .4 1.4.4h.8l-.8-.4c-1.2-.5-2.2-.5-1.4 0m-77.4.8c-.5.2-.6.3-.2.3.3 0 1-.1 1.4-.3.5-.2.6-.3.2-.3-.3 0-1 .1-1.4.3m81.2 0c.4.2 1 .3 1.4.3.4 0 .3 0-.2-.3-.4-.2-1-.3-1.4-.3-.4 0-.3 0 .2.3m-84.6.8c-.5.3-.5.4 0 .4l1.2-.4c.5-.3.5-.4 0-.4l-1.2.4m88.2 0c.4.2 1 .3 1.4.3.4 0 .3 0-.2-.3-.4-.2-1-.3-1.4-.3-.4 0-.3 0 .2.3m-91.4.8c-.8.5.2.5 1.4 0l.8-.3h-.8c-.4 0-1 0-1.4.3m93.6-.3l1.4.5c.9.2 1 .1.6-.2-.5-.3-2.4-.6-2-.3m-96.4 1.1c-.4.3-.3.4.6.2 1.5-.4 1.8-.6.8-.6a3 3 0 00-1.4.4m101.8.4c1.3.5 2.4.7 2.5.6.2-.1-4-1.4-4.6-1.4l2 .8m-106.5 1c-1.4.5-2.3 1-2 1a20.3 20.3 0 005.4-2c-.4 0-2 .5-3.4 1m111.2.3a19 19 0 004.3 1.5c.4 0-2-1-3.2-1.3l-1.1-.2m-65.4 4c-7.6.5-16.4 1.6-20.8 2.6-2.7.5-1 .4 3.6-.3 17-2.8 36.3-2.8 53.8 0 4.8.7 6.5.8 3.8.3-10.5-2.4-28-3.5-40.4-2.6M164 32l-1 .3h1c.6 0 1.4-.1 1.8-.3l.8-.3h-.8c-.4 0-1.3.1-1.8.3m69.4 0c.4.2 1.3.3 1.8.3h1l-1-.3c-.5-.2-1.4-.3-1.8-.3h-.8l.8.3m-73.2.8l-.8.3h.8c.4 0 1.2-.1 1.6-.3l.8-.3h-.8c-.4 0-1.2.1-1.6.3m77.2 0c.4.2 1.2.3 1.6.3.6 0 .6 0-.2-.3-1.4-.4-2.4-.4-1.4 0m-119 1.7a9.9 9.9 0 00-2.3 1.3c0 .1 1.4-.4 3-1.2 1.4-.7 2.5-1.4 2.3-1.4l-3 1.3m38.6-.9l-.8.3h.8c.4 0 1.2-.1 1.6-.3l.8-.3h-.8c-.4 0-1.2.1-1.6.3m83.6 0c.4.2 1.2.3 1.6.3h.8l-.8-.3c-.4-.2-1.2-.3-1.6-.3h-.8l.8.3m-86.6.8c-.8.5.2.5 1.4 0l.8-.3h-.8c-.4 0-1 0-1.4.3m89.8 0c1.2.5 2.2.5 1.4 0-.3-.2-1-.4-1.4-.4h-.8l.8.4m37 .6l2.2 1c.2 0-.4-.5-1.4-1l-2.2-1c-.2 0 .4.5 1.4 1m-129.6.2c-.8.5.2.5 1.4 0l.8-.3h-.8c-.4 0-1 0-1.4.3m95.4 0c1.2.5 2.2.5 1.4 0-.3-.2-1-.4-1.4-.4h-.8l.8.4m-98 .8c-.3.5.1.5 1.2 0 .8-.3.8-.3 0-.4-.6 0-1 .2-1.2.4m100.8 0c1.1.5 1.5.5 1.2 0-.1-.2-.6-.4-1.1-.4-.9 0-.9 0-.1.4m34.4.3c.6.6 3.5 2.2 3.6 2 .1-.1-.7-.7-1.9-1.3-1.2-.6-2-1-1.7-.7m-138 .5a22.9 22.9 0 01-1.6.6c-.4.1-.6.3-.5.4 0 .1 1.1-.1 2.3-.6 1.2-.4 1.8-.7 1.4-.7-.4 0-1.2.1-1.6.3m107.4.4c1.2.5 2.2.7 2.3.6.1-.1-.1-.3-.5-.4a30.2 30.2 0 01-1.7-.6l-1.6-.4c-.4 0 .3.4 1.5.8m-140.5.2l-1.1.8c0 .4.6.2 1.6-.6 1.2-1 1-1-.5-.2m28.5 1l-5.8 2.4c-4.9 2-7.6 3.2-7 3.2l2.9-1.1a133.3 133.3 0 0110.5-4.2c.9-.4 1.3-.7.8-.7-.4 0-1 .2-1.4.4m116.2.3a3542.3 3542.3 0 0013.3 5.3c.7 0-2-1.3-6.9-3.2a142 142 0 01-7.3-2.8c-.4 0 0 .3.9.7m-150.3 2c-1.5.7-1.4 1 .1.3.7-.3 1.2-.7 1.2-.8 0-.3 0-.3-1.3.4m183.7-.4s.5.5 1.2.8l1.2.4s-.5-.5-1.2-.8l-1.2-.4M98.6 46a104 104 0 00-6.6 4.6l13.6-8.8c.7-.8-1.3.4-7 4.2m196.2-3.5c.4.5 11.2 7.5 11.2 7.3a141 141 0 00-11.2-7.3m-106 1.9c-1.2 0 3.6.2 10.8.2s12-.1 10.8-.3c-2.7-.3-18.6-.3-21.6 0m-65.7 2c-1.5.7-2.7 1.4-2.7 1.5 0 .2 5.6-2.5 6-2.8.5-.5-1 0-3.3 1.2m57.5-1l-1.2.3h1.2l3-.3 1.8-.3h-1.8c-1 0-2.3.1-3 .3m35.2 0l3.2.3h1.2l-1.2-.3c-.7-.2-2.1-.3-3.2-.3h-2l2 .3m-41.8.9a256 256 0 01-7.6 1.5 1041 1041 0 01-8.8 2.3c-.3.3 1.7 0 4.8-.9a146 146 0 0113.4-2.8c2.1-.3 2.6-.5 1.6-.5-.9 0-2.4.2-3.4.4m48.2 0c.9.1 2 .3 2.4.2h.8l-.8-.3c-.4-.2-1.5-.3-2.4-.3h-1.6l1.6.3m52.2-.3c.4.4 2.8 1.5 2.8 1.3 0-.2-2.2-1.4-2.6-1.4-.2 0-.3 0-.2.1m-48.8.8l2.2.4c1.3.2 1.7.2 1.2 0-.8-.4-3.7-.7-3.4-.4m5.6 1.1a295.7 295.7 0 0115.2 3.8l1 .2-1-.4a101 101 0 00-15.2-3.6M118 48.9l-3.2 1.8a98.5 98.5 0 00-8.8 5.5c0 .3 1.5-.5 3.4-1.8a77.9 77.9 0 0110-5.9c1.2-.8.2-.5-1.4.4m161.8-.4l3 1.8a159.9 159.9 0 0129 20.5c3.8 3.1 4 2.5-2.2 8.6l-5.1 5.1-4.6-3.8c-7.2-6-18-13.9-18.5-13.4-.1.1 1.1 1 2.8 2a39.8 39.8 0 016 4.3c3.4 2.3 11.5 8.8 13 10.5 1.2 1.2 1.7.8 7.1-4.6 5.3-5.4 5.8-6 4.8-6.6a217.9 217.9 0 00-12.8-10.5A243.8 243.8 0 00281 49c-1.7-1-2.5-1.2-1.3-.4m-124.2 1.9c-.8.3-.9.3-.2.4.4 0 1-.2 1.4-.4.7-.5.2-.5-1.2 0M90 52l-1.4 1.3 1.3-.9c1.1-.7 2-1.6 1.6-1.6L90 52m63-.8c-.8.3-.8.3 0 .4.6 0 1-.2 1.2-.4.3-.5-.1-.5-1.2 0m154.6-.1c0 .2.6.7 1.4 1.2 1.8 1.2 1.8.9 0-.5-.8-.6-1.4-.9-1.4-.7m-59.8.9c.1.2.6.4 1.1.4.9 0 .9 0 .1-.4-1.1-.5-1.5-.5-1.2 0m-162 3.2c-1.4 1-2.7 2.2-2.8 2.4-.2.3 1-.6 2.6-1.8 2.4-2 3.1-2.6 2.7-2.6l-2.6 2m166.7-1.6l1.2.4c.5 0 .5 0 0-.4l-1.2-.4c-.5 0-.5 0 0 .4m58.4-.3l3.5 3a159.3 159.3 0 017.1 5.8 95 95 0 00-10.6-8.8m-52.3 2.5c.3.3 3.1 1.4 3.1 1.2l-1.4-.8c-1.5-.6-2-.7-1.7-.4m-156.1 2.7A167.5 167.5 0 0084 73c-.3.2-.4.7-.3 1 .2.7 10.8 10.8 11.2 10.8a67 67 0 005.1-4 143.4 143.4 0 017.9-6.5c0-.4-5.4 3.7-9.6 7.3a25.8 25.8 0 01-3.5 2.8c-.5 0-10.5-10.1-10.5-10.7 0-.3 2.3-2.5 7-6.5a238.2 238.2 0 0114.2-10.6c0-.3 0-.3-3.2 2m34.4-1.3a108 108 0 00-9.9 5l4.1-1.8a1750.4 1750.4 0 016.2-3l1.8-1c-.2 0-1.2.3-2.2.8m131 2.9a53 53 0 006.1 2.8c.2-.2-11-5.8-11.7-5.8-.2 0 2.3 1.4 5.6 3m-188 0l-2.4 2.3 2.5-2.1c2.2-1.9 2.7-2.4 2.4-2.4l-2.5 2.2m45.3 2.8l-1.1.8c0 .4.6.2 1.6-.6 1.2-1 1-1-.5-.2m-51 2.3a11 11 0 00-2.2 2.3c.6-.3 5.4-4.8 5-4.8-.2 0-1.5 1.1-2.9 2.5m250.2-.5c1.1 1.1 2.2 2 2.3 2 .1 0-.7-.9-1.9-2-1.1-1.1-2.2-2-2.3-2-.1 0 .7.9 1.9 2m-49-.8c1 .8 1.6 1 1.6.6 0 0-.6-.5-1.3-.8l-1.3-.6 1 .8m-154.4 1.5a158 158 0 00-12.4 8.3l4.1-2.5a223 223 0 017.6-4.9c3-1.7 4-2.4 3.4-2.4l-2.7 1.5m157 0c1 .7 3 1.8 3 1.6 0-.3-3.1-2.3-3.5-2.3-.2 0 0 .3.5.6m51.5 4.3c1 1 1.8 1.7 1.9 1.6.2-.2-2.9-3.3-3.3-3.3-.2 0 .5.8 1.4 1.7m-259.9-.1c-1 1.2-.6 1.3.5.1.5-.5.8-.9.6-.9-.2 0-.7.4-1.1.8m-2.8 3l-3.7 4.2C61.2 78.5 60 80 60.4 80a39.9 39.9 0 015.6-6c1-1.1 1.7-2 1.6-2.2-.1 0-.6.3-1 .8m265.9.2c.2.5 4 4.5 4.1 4.3l-2-2.4a10.5 10.5 0 00-2.1-2M338 79c.8 1 1.5 1.6 1.6 1.5 0 0-.5-.8-1.4-1.6l-1.6-1.5L338 79M58 82.5l-2 2.3c-.6.6-1.3 1.6-1 1.6a25 25 0 002.6-3 23 23 0 002.3-3l-2 2.1m283-.2a1098.2 1098.2 0 015 6.1c.2 0 .1-.1-3-4.1a28.4 28.4 0 00-2.8-3.1l.7 1.1m-21 6.9l-5.6 5.6 1 1 1.2 1.4c2.4 2.3 10 12.4 13.8 18.3 1.7 2.7 3.2 4.8 3.3 4.7a145.8 145.8 0 00-16.4-22.7l-2.4-2.7 5.3-5.4c3-3 5.5-5.4 5.7-5.4a153.4 153.4 0 0116.1 20c.9 0-9.8-14-14.2-18.5-2.2-2.4-1.3-2.8-7.8 3.7M71.6 86a380.9 380.9 0 01-2.2 2.5c-2.4 2.6-7.4 9-9.4 12s-.9 1.7 2.6-3a116 116 0 0111.2-13.2A173 173 0 0184.4 95c0 .2-1 1.5-2.3 3-5 5.7-16.1 21-15.6 21.4.1.1 1.4-1.7 3-4A142 142 0 0181 99.6c2-2.4 3.7-4.6 3.7-4.8 0-.5-10.6-10.9-11-10.9-.2 0-1.2 1-2.2 2m-19.8 4.2c-.6.8-.9 1.4-.7 1.4.2 0 .7-.6 1.2-1.4 1.2-1.8.9-1.8-.5 0m295-.3c.4.7 1 1.4 1.3 1.6.3.1 0-.3-.4-1a7.8 7.8 0 00-1.4-1.6c-.3-.1 0 .3.4 1m2.5 3.3c1.2 1.8 1.2 1.8 1.2 1.4 0-.2-.5-1-1-1.6l-1-1.2.8 1.4M46.4 98a43.8 43.8 0 00-3.1 5c0 .1 1.6-2 3.4-4.8l3.1-5-3.4 4.8m304.4-2.6c0 .5 1.1 2 1.4 1.8 0-.1-.2-.7-.6-1.2-.4-.6-.8-.8-.8-.6m1.6 2.3c0 .3 4.7 7.5 5 7.9.5.4-.7-1.8-2.7-4.7-2-3.3-2.3-3.6-2.3-3.2m-165 16.5c0 8.4 0 11.8.1 7.7a597 597 0 00-.1-7.7m15 0c-.1 8.5 0 15.2.1 15 .2-.1.3-7 .2-15.2l-.1-15-.2 15.3M57.7 103.8c-.3.6-.4 1-.3 1l.8-1c.3-.6.5-1 .3-1s-.6.5-.8 1m284.7 1.3c.2.5.6 1 .8 1.1.4.2.4 0 0-.5-.2-.5-.6-1-.8-1.1-.4-.2-.4 0 0 .5m-286.3 1l-1.3 2.2c-.5.7-.8 1.3-.7 1.3l1.6-2.2c.9-1.2 1.4-2.2 1.2-2.2-.2 0-.6.4-.8.9m-15.5 1.2l-.6 1.3.8-1c.8-1 1-1.6.6-1.6 0 0-.5.6-.8 1.3m303.4.4l1.6 2.5 2.8 4.7 1.9 3c0-.1-.2-.9-.7-1.7l-1.6-2.8c-2.2-4-5.5-8.7-4-5.7m14.4-.2c0 .2.4.8.8 1.3l.8 1-.6-1.3c-.6-1.2-1-1.7-1-1M39 110.1l-.6 1.3.8-1c.8-1 1-1.6.6-1.6 0 0-.5.6-.8 1.3m13.3 2.2a32 32 0 00-3.4 6.3l1-1.3a62.8 62.8 0 014-7.1c-.1-.1-.8.8-1.6 2m307.7-1.9c0 .2.4.8.8 1.3l.8 1-.6-1.3c-.6-1.2-1-1.7-1-1m-324 5.3c-.7 1.4-1.2 2.5-1.1 2.6l1.4-2.3 1.2-2.6c-.1 0-.8 1-1.5 2.3m327.2.5c0 .3 3.6 7.2 3.6 7a51.6 51.6 0 00-3.6-7m-10.6 6.7a117 117 0 013.2 6.3 66 66 0 00-5-10.5c-.3-.2.6 1.7 1.8 4.2M48 120.1a156 156 0 00-5.6 11.7 131.8 131.8 0 01-1.4 3.4 68 68 0 00-.9 2.2 61 61 0 01-.7 1.8c-.9 2-2.2 6-2 6.2 0 .1.4-.5.7-1.3a110.6 110.6 0 014.4-11.5c0-.3 2.2-5 4.4-9.4 2-3.8 2.4-5 1.1-3.1m17.6.8c-.3.5-.8 1.3-1 1.9-.7 1.4.5 0 1.3-1.7.7-1.3.5-1.5-.3-.2m269.3 2.1l1.7 2.8c.6.6-1.5-3.4-2.3-4.4-.4-.4 0 .3.6 1.6m-272.2 3c-.6 1.2-.9 2-.7 1.8.7-.7 2.2-3.5 2-3.7-.2 0-.7.8-1.3 2m274.2.4l2 4a174.6 174.6 0 016.2 13.8c.2-.2-1-3.5-2.5-6.7-3.2-7.1-5.7-12-5.7-11m-277 4.7c-2.3 5-4.3 9.5-4 9.8l1.4-3a220.6 220.6 0 012.9-6.3c.8-1.7 1.4-3.2 1.3-3.3l-1.5 2.8m296.1-1.6c0 .5 1.3 3.2 1.5 3 0-.1-.2-1-.7-1.8-.4-.8-.8-1.4-.8-1.2m1.6 4l.4 1a96.4 96.4 0 013.2 7.4l-.4-1.6-2-5c-.9-2.2-1.2-2.8-1.2-1.9m14.8 3.9c0 .5.2 1 .4 1.1.5.3.5-.1 0-1.2-.3-.8-.3-.8-.4 0m-346 0c0 .3-.1.9-.3 1.3-.2.5-.1.6.3.2.3-.2.4-.7.3-1.2-.1-.4-.2-.5-.3-.2m334.8 5.6c.1 1 .7 1.9.8 1 0-.5-.2-1-.4-1.1-.2-.1-.4-.1-.4 0M24 145.7c-.4 1-.7 2.2-.7 2.5 0 .3.4-.6.8-1.9.5-1.3.7-2.4.7-2.5-.1 0-.5.8-.8 1.9m321.3-.4l.4 1.2c.3.5.4.5.4 0l-.4-1.2c-.3-.5-.4-.5-.4 0m16.8.3c.1 1 .7 1.9.8 1 0-.5-.2-1-.4-1.1-.2-.1-.4-.1-.4 0m13.4 1.2c.6 2.2 1.3 4.4 1.4 3.9 0-.7-1.2-4.9-1.4-4.9v1M52.8 148l-.3 1.2c-.2.5-.1.6.3.2.3-.2.4-.7.3-1.2-.1-.4-.2-.5-.3-.2m310 0c.1 1 .7 1.9.8 1 0-.5-.2-1-.4-1.1-.2-.1-.4-.1-.4 0m-327 1.4c-.1.5-.2 1 0 1 0 .2.3-.1.4-.6.2-.5.2-1 0-1 0-.2-.2.1-.4.6m-13.2.2a3.9 3.9 0 00-.2 1.3c0 .4.2.2.4-.5.4-1.2.3-1.9-.2-.8m324.2.5c0 .5.2 1 .4 1.1.5.3.5-.1 0-1.2-.3-.8-.3-.8-.4 0m-294.8.5l-.3 1.2c-.2.5-.1.6.3.2.3-.2.4-.7.3-1.2-.1-.4-.2-.5-.3-.2m311.6.1l.4 1.4.3.8v-.8c0-.4 0-1-.3-1.4-.3-.5-.4-.5-.4 0M35 152c-.1.5-.2 1 0 1 0 .2.2-.1.4-.6.1-.5.2-1 0-1 0-.2-.2.1-.4.6m342 .2c.4 1.5.6 1.8.6.8 0-.5-.2-1-.4-1.4-.3-.4-.4-.3-.2.6m-355.2.4c-.1.6-.2 1.2 0 1.3l.4-1c.1-.5.2-1 0-1.2l-.4 1m325.8-.4c0 .5.2 1 .4 1.1.5.3.5-.1 0-1.2-.3-.8-.3-.8-.4 0m-152.9.1a73.8 73.8 0 005.8 0c1.6 0 .3-.1-2.9-.1s-4.5 0-2.9.1m-144.2 3a67.3 67.3 0 00-3 13.5l.5-2.6a403.2 403.2 0 002.4-9c1.1-3.6 1.3-4.4 1.1-4.6 0-.1-.6 1.1-1 2.7m314-2.1c0 .3.1 1 .3 1.4l.3.8v-.8c0-.4 0-1-.3-1.4-.3-.5-.4-.5-.4 0m-330.1 1.4c-.2.3-.3 1-.3 1.3 0 .5.2.4.4-.3.2-.5.4-1.1.3-1.3 0-.3-.3-.1-.4.3m314.1.3c0 .6.2 1.2.4 1.3.3.2.3-.1.2-.9-.4-1.5-.6-1.6-.6-.4m29.3-.5c0 .3.1 1 .3 1.4.2.5.3.6.3.2 0-.3-.1-1-.3-1.4-.2-.5-.3-.6-.3-.2M21 155.8c-.1.6-.2 1.2 0 1.3l.4-1c.1-.5.2-1 0-1.2l-.4 1m344.3.3c0 .4.1 1.2.3 1.6l.3.8v-.8c0-.4-.1-1.2-.3-1.6l-.3-.8v.8m-331.9 1.6v1.3c0 .1.3-.3.4-.9.2-.6.2-1.1.1-1.2-.1-.1-.3.2-.5.8m316 0a119.3 119.3 0 013.5 16c.3 2.2.6 3.4.7 2.7 0-.8-.2-2.1-.4-3l-.8-4.1c-.6-3.2-2.9-12.3-3.1-12.6v1m29.2-.2c0 .3.1 1 .3 1.4.2.5.3.6.3.2 0-.3-.1-1-.3-1.4-.2-.5-.3-.6-.3-.2M20.2 159v1.3c0 .1.3-.3.4-.9.2-.6.2-1.1.1-1.2-.1-.1-.3.2-.5.8m345.9.4c0 .4.1 1.2.3 1.6l.3.8v-.8c0-.4-.1-1.2-.3-1.6l-.3-.8v.8m-333.5 1.8c-.2.7-.2 1.3 0 1.5l.4-1.1c.2-.7.2-1.3 0-1.5l-.4 1.1m346.7.2c0 .4.1 1.2.3 1.6l.3.8v-.8c0-.4-.1-1.2-.3-1.6l-.3-.8v.8m-359.9 1.4c-.3 1.7 0 2 .4.4.2-.7.2-1.3 0-1.4l-.4 1m347.5.2c0 .4.1 1.2.3 1.6l.3.8v-.8c0-.4-.1-1.2-.3-1.6l-.3-.8v.8m-335 1.6c-.2.8-.3 1.6-.2 1.7.2 0 .4-.5.5-1.3.2-.8.2-1.5.1-1.6-.1-.1-.3.4-.5 1.2m237.1 3c0 1.9.1 2.6.2 1.7v-3.4c0-.9-.2-.2-.2 1.7m111.2-2.2c0 .4.1 1.2.3 1.6.4 1 .4 0 0-1.4-.3-.8-.3-.8-.3-.2M18.6 167c-.1.8-.2 1.6 0 1.7 0 0 .3-.5.4-1.3.2-.8.2-1.5.1-1.6-.1-.1-.3.4-.5 1.2m349-.2l.4 2 .3 1v-1c0-.6-.1-1.5-.3-2l-.3-1v1m-336.4.6a35 35 0 01-.3 2.2c-.2 1.3-.2 1.3.2.4a5 5 0 00.3-2.2c-.1-.7-.2-.9-.2-.4m349.6 2.6c0 .6.1 1.4.3 1.8l.3.8v-.8c0-.4-.1-1.3-.3-1.8l-.3-1v1m-334.2.8c-.2.6-.3 1.5-.3 2.2 0 1 .2.8.4-.6.4-2 .3-3.2-.1-1.6m321.8.4c0 .8.1 1.9.3 2.4.5 1.4.5 0 0-2.2l-.3-1.6v1.4m-350.6.8c-.2 1-.2 1.8-.1 1.9.2.3.7-2.6.5-3.2 0-.3-.3.3-.4 1.3m12.2 2.6c-2.6 19-2.6 36 .2 51 .5 3.3.4 1.4-.3-4.4a173.1 173.1 0 01.7-49.4c0-.4-.3.8-.6 2.8m15.8 1a12 12 0 00-.3 2.3c0 .7.2.5.4-.7.2-1 .4-2 .3-2.4 0-.3-.3 0-.4.7m335.7.1c0 .8.2 1.8.4 2.2.3.5.3.1.1-1.2-.2-2.4-.5-2.9-.5-1m-12.2 1.2l.6 7.6c1 10 .7 26.9-.8 37.6-.7 5.3-.8 7.3-.3 4.2 2.6-13.8 3-34.6.7-49.2l-.3-2.4v2.2m-352-.4L17 179c-.2 1.4-.2 1.5.2.6.2-.5.4-1.7.3-2.6 0-.9-.2-1.2-.2-.6m336.6 4.4l.4 3.2c.2.3 0-3.8-.3-5-.2-.7-.3 0-.1 1.8M45 181a19 19 0 00-.2 3.2c0 1.4 0 1.3.4-.8.4-2.8.2-4.8-.2-2.4m337.4 1.6c0 1.1 0 2.7.3 3.6l.3 1.6v-1.4l-.3-3.6-.3-2.2v2m-366.2 4.5c-.2 2.5-.3 4.7-.2 4.8.3.2.8-7 .6-8.3 0-.6-.3 1-.4 3.5m338.4 2.9c.1 3 .3 5.5.4 5.6.2.3 0-7-.3-9-.2-1.3-.2 0-.1 3.4m-310.4.7c-.4 3.7-.3 15.8 0 19.1a939.4 939.4 0 00.2-22.2l-.2 3m339.1 9c0 4.7 0 6.7.1 4.3a173.6 173.6 0 00-.1-4.3m-28.5 6a287.3 287.3 0 01-.3 5.4c-.2 3-.2 3.1.2 1 .2-1.2.4-3.6.3-5.4-.1-2.5-.2-2.7-.2-1m-338.6 6c.1 2.5.3 4.7.4 4.8.2.3 0-5.4-.3-7.4-.2-1.3-.3-.5-.1 2.6m192.6-.9h1.4c.4-.1 0-.2-.7-.2s-1 0-.7.2m173.8 3c-.2 1.1-.3 2.8-.2 3.7 0 1.1.1.7.4-1.4.4-3.4.2-5.2-.2-2.2m-337.8 1.6c0 1.1.1 2.5.3 3.2l.3 1.2v-1.2l-.3-3.2-.3-2v2m309 2.4c-.2 1.5-.2 2.8-.1 2.9.2.3.7-3.2.5-4.5 0-.7-.2-.1-.4 1.6m44.9 1c0 .5.2.7.4.6.2-.1.4-.5.4-.8 0-.3-.2-.6-.4-.6s-.4.4-.4.8M17.1 221l.4 2.6c.3.3 0-3.4-.3-4.2-.2-.5-.3 0-.1 1.6m28.5.5l.4 3.4c1.4 7 1.5 7.4 2.8 12.9 1 3.7 2.2 7.9 1.8 5.6a120.8 120.8 0 00-2.6-10.6c-.3-1.4-.8-3.7-1.8-9.6-.3-1.7-.5-2.4-.6-1.7m336.3.5a12 12 0 00-.3 2.4c0 .6.2.4.4-.8.2-1 .4-2 .3-2.4 0-.3-.3 0-.4.8m-28.6.3a32.3 32.3 0 01-.3 2.6c-.2 1.2-.2 1.2.2.3.2-.5.4-1.7.3-2.6-.1-1.3-.2-1.4-.2-.3m-335.6 3.5l.3 2 .3 1.2v-1.2a6 6 0 00-.3-2l-.3-.8v.8m334.2 4.2a126.7 126.7 0 01-3.3 14c-.7 3.7 1.7-4.6 3-10.4.2-1.2.6-3 .9-3.8.2-1 .3-2.1.2-2.6 0-.6-.4.7-.8 2.8m29-1.8c0 .8-.1 1.5 0 1.6.1.1.3-.4.5-1.2.1-.8.2-1.6 0-1.7 0 0-.3.5-.4 1.3m-350 2.4l.5 2.2c.3.3 0-2.6-.3-3.4-.3-.5-.3-.1-.1 1.2m336.8-.6a8 8 0 00-.3 2c0 .9.1.8.5-.3.2-.8.3-1.7.2-2 0-.5-.2-.4-.4.3m-349.4.8c0 1 .6 2.7.6 1.8 0-.4-.1-1.2-.3-1.6-.2-.5-.3-.6-.3-.2m261.6 2c0 .8 0 1 .2.7v-1.4c-.1-.4-.2 0-.2.7m100.2-.2c-.2.3-.3 1-.3 1.3 0 .5.2.4.4-.3.2-.5.4-1.1.3-1.3 0-.3-.3-.1-.4.3m-348.6 1.2c0 .4.1 1.3.3 1.8l.3 1v-1c0-.5-.1-1.4-.3-1.8l-.3-.8v.8m335.3 1c-.2.7-.2 1.3 0 1.5l.4-1.1c.2-.7.2-1.3 0-1.5l-.4 1.1m-347.8.4l.4 1.4.3.8v-.8c0-.4 0-1-.3-1.4-.3-.5-.4-.5-.4 0m360.2 1.8c-.1.6-.2 1.2 0 1.3l.4-1c.1-.5.2-1 0-1.2l-.4 1m-347 .3l.4 1.8.3 1v-1c0-.5-.1-1.4-.3-1.8l-.3-.8v.8m333.7 1c-.2.7-.2 1.3 0 1.5l.4-1.1c.2-.7.2-1.3 0-1.5l-.4 1.1m-346.2.8l.4 1.4.3.8v-.8c0-.4 0-1-.3-1.4-.3-.5-.4-.5-.4 0m358.6 1.4c-.1.6-.2 1.2 0 1.3l.4-1c.1-.5.2-1 0-1.2l-.4 1m-345.4.3c0 .4.2 1 .4 1.4.5.8.5-.2 0-1.4l-.3-.8v.8m332.1.6c-.2.7-.2 1.3 0 1.5l.4-1.1c.2-.7.2-1.3 0-1.5l-.4 1.1m-344.5.8c0 .3.1 1 .3 1.4.2.5.3.6.3.2 0-.3-.1-1-.3-1.4-.2-.5-.3-.6-.3-.2m215.9 1.1l-1.4 1.5 1.5-1.4 1.5-1.5c0-.3-.3 0-1.6 1.4m141 .3v1.3c0 .1.3-.3.4-.9.2-.6.2-1.1.1-1.2-.1-.1-.3.2-.5.8M34 244l.4 1.4.3.8v-.8c0-.4 0-1-.3-1.4-.3-.5-.4-.5-.4 0m330.6.6v1.3c0 .1.3-.3.4-.9.2-.6.2-1.1.1-1.2-.1-.1-.3.2-.5.8m30.3-.7c-.6.2-.7 1.3-.1 1.3.3 0 1-1.2.7-1.4h-.6m-344 1.3c0 1 .6 1.9.7 1 0-.5-.2-1-.4-1.1-.2-.1-.4-.1-.4 0m-29.1.6c0 .3.1 1 .3 1.4.2.5.3.6.3.2 0-.3-.1-1-.3-1.4-.2-.5-.3-.6-.3-.2m325.7 1.6c-.3 1.2-.6 2.2-.4 2.3l.8-2c.8-2.7.5-3-.4-.3m29.6-.2c-.1.6-.2 1.2 0 1.3l.4-1c.1-.5.2-1 0-1.2l-.4 1m-342.2 0c0 .5.2 1 .4 1.1.5.3.5-.1 0-1.2-.3-.8-.3-.8-.4 0m329 .4v1.3c0 .1.3-.3.4-.9.2-.6.2-1.1.1-1.2-.1-.1-.3.2-.5.8m-312.2.2l.4 1.2c.3.5.4.5.4 0l-.4-1.2c-.3-.5-.4-.5-.4 0m-29.2 1c0 .4.2 1 .4 1.4.5.8.5-.2 0-1.4l-.3-.8v.8m353.6 1.8c-.7 2.2-.6 3 .1.9.4-1 .6-2 .5-2.1 0-.2-.3.3-.6 1.2M52.4 250l.4 1.2c.3.5.4.5.4 0l-.4-1.2c-.3-.5-.4-.5-.4 0m293.8.8c-.1.5-.2 1 0 1 0 .2.3-.1.4-.6.1-.5.2-1 0-1 0-.2-.3.1-.4.6m-309.8 1.5c0 .5.2 1 .4 1.1.5.3.5-.1 0-1.2-.3-.8-.3-.8-.4 0m326-.3l-.3 1.2c-.2.5-.1.6.3.2.3-.2.4-.7.3-1.2-.1-.4-.2-.5-.3-.2m-338.6 1.3c.5 2 2.2 6.6 2.2 6 0-.5-2-6.5-2.3-6.8v.8m164.3-.3c.1.2 2.3.3 4.8.2l4.6-.1-4.9-.2c-2.7-.1-4.7 0-4.5.1m11.5.2h4c1 0 .1-.2-2.1-.2s-3 .1-1.9.2m175.2 2l-.7 2.6c0 .3.4-.6.8-1.9.5-1.3.7-2.4.7-2.5-.1 0-.5.8-.8 1.9m-337.5-.5c0 .5.2 1 .4 1.1.5.3.5-.1 0-1.2-.3-.8-.3-.8-.4 0m16.8-.3l.6 2a108.3 108.3 0 011.6 3.2l-.8-2.7c-1.1-2.7-1.4-3.2-1.4-2.5m307.3 1.2c-1.1 3.2-2.4 6.5-3.4 8.9a17.7 17.7 0 00-1.8 4.7 98 98 0 005.8-14.7c0-.2-.4.2-.6 1M38 256.8c0 .2.2 1 .5 1.6a143.4 143.4 0 011.7 4.5c1 3 4.3 10 4.5 9.9a161 161 0 01-3.5-8.6l-.8-1.8a545.8 545.8 0 01-2.4-5.6m18.4 3.6l.4 1.2a358.3 358.3 0 015.4 10.8l-2.1-5a929.6 929.6 0 01-3-6.1c-.4-.8-.7-1.2-.7-.9m285.2 2.2a168.8 168.8 0 01-26.5 40.9c-.8 1-1.1.6 5.1 6.9 5.6 5.7 5.1 5.5 7.7 2.8a129 129 0 0014.7-19.5s-1 1.1-1.8 2.4c-4.9 7.1-14.5 19-15.3 18.7-.2 0-2.6-2.4-5.5-5.3l-5.2-5.1 1.3-1.5c7.1-8.4 13-16.4 17.5-24 3.5-6 9.5-17.9 9-18.2 0-.1-.5.7-1 1.9m10.8 13.8a155 155 0 01-7.1 12.9c-1.5 2-2.7 4.3-1.8 3.2a140.6 140.6 0 0011.6-21s-1.3 2.1-2.7 5m-289.2-2c2 3.8 9.8 16 12 18.4l1.3 1.4-1-1.4-1.1-1.6c-.5-.4-8.7-13-10-15.4-1.5-2.8-2.5-4-1.2-1.5m303.4 1.8a570.6 570.6 0 01-1.2 3.1c.3 0 2.3-4.5 2-4.7l-.8 1.6m-334.2-.4c0 .4 4 8.8 4.2 8.6.1 0-.8-2.1-2-4.5a31.5 31.5 0 00-2.2-4.1m189.4.8c-.3.9-.4 31.4-.1 31.2.2 0 .3-7.1.3-15.7 0-12 .1-15.6.5-15.7.4-.2.4-.2 0-.3-.3 0-.6.2-.7.5m-175.4 0c0 .4 2.5 5 2.9 5.3.2.2-.3-1-1-2.5-1.3-2.5-1.9-3.4-1.9-2.7m140.4 15.7c-.1 8.6 0 15.5.1 15.4.2-.2.3-7.3.2-15.7l-.1-15.4-.2 15.7m176.5-9.4c-1 1.8-1.6 3.3-1.6 3.4.1 0 1-1.4 1.8-3.2l1.6-3.4c-.1 0-1 1.4-1.8 3.2m-313.7-.4c0 .8 9.2 15.5 9.7 15.5.2 0-1-1.9-2.5-4.2a137 137 0 01-3.6-5.6l-1.6-2.9c-1.1-1.9-2-3.2-2-2.8m-11.4 5c.3.7.7 1.3.8 1.3.4 0 .2-.6-.6-1.6l-.8-1 .6 1.3m341.4-.5c0 .3.2.6.4.6s.4-.3.4-.6-.2-.6-.4-.6-.4.3-.4.6m-338.3 6l1.3 2c.6.7.6.7 0-.4-.3-.7-.8-1.6-1.2-2-.6-.7-.6-.7 0 .4m316 .6l-.4 1.2s.5-.5.8-1.2l.4-1.2s-.5.5-.8 1.2m-280.5 1.5c.5.7 1.5 2 5.8 7 2 2.5 2.5 1.6-3.4 7.9-5.3 5.5-5.5 5.7-6.7 4.3-4-4.7-7.8-9.2-10-12.3-2.9-3.8-4-4.9-1.7-1.7 3.7 5.4 12 15.3 13 15.3.6 0 10.9-10.7 10.9-11.4 0-.3-.1-.6-.3-.7-.2 0-2-2.1-4-4.6-3.4-4-5-5.7-3.6-3.8M44.4 298c.7 1.3 3.6 5.6 3.8 5.6a51 51 0 00-4-6.2l.2.6m309.6 1c-.4.8-.6 1.3-.4 1.2.4-.3 1.7-2.6 1.4-2.6l-1 1.4m-4.3 6.2c-.8 1.3-.3 1.4.5.2.3-.5.5-1 .3-1s-.5.4-.8.8M50.5 307c1.8 2.6 2.2 2.7.6.3-.7-1.2-1.4-2-1.6-2-.2-.1.2.7 1 1.7m293.3 6.2a227.2 227.2 0 01-5.6 7.2c.4-.3 2.5-2.8 4.7-5.6 5-6.2 4.8-6 4.6-6l-3.7 4.4m-289.4-.9a120 120 0 005.2 5.8 231.6 231.6 0 01-3.3-4c-1-1.4-2-2.5-2.2-2.5-.1 0 0 .3.3.7m34.9 7.4c-3 3-5.3 5.5-5.3 5.8 0 .8 10.7 9.8 14.8 12.4l1.4 1-1.2-1c-9.8-7.8-14.6-11.9-14.6-12.5a70.6 70.6 0 0111.2-10.6c0-1-1.4 0-6.3 4.9m214-4.8c-.5.7-2.1 2-5.8 5a29 29 0 00-3.1 2.8c0 .3 2-1.2 6-4.7 2-1.8 3.9-3.2 4-3.1.5.1 10.8 10.3 10.8 10.6l-1.1 1.2a339 339 0 01-12 10 217.9 217.9 0 01-14 9.3 97.5 97.5 0 01-11.6 6.3c-3.8 1.9-6.8 3.5-6.7 3.6a140.5 140.5 0 0016.2-8.2 212.1 212.1 0 0017.3-11.7 162 162 0 009.4-7.6c3.7-3.1 3.8-2.7-2.5-8.7-5.6-5.3-6.1-5.6-6.8-4.8m-206 1.8c2.8 2.6 7.4 6.4 7.4 6a113.6 113.6 0 00-7.4-6m263.5 1a5 5 0 00-.7 1.5c-.4 1.1.4.5 1.3-1.1.5-1 .2-1.2-.6-.4m-298.7 3.9a13 13 0 001.7 1.6c.4 0-2.5-3.1-2.9-3.2-.2 0 .3.7 1.2 1.6m272.9 1.8c-1 1.1-1.9 2.2-1.9 2.4 0 .1.2 0 .5-.3l2.3-2.4c1-1 1.6-1.9 1.4-1.9-.2 0-1.3 1-2.3 2.2m-229.6-.1a103.1 103.1 0 0016.4 10.6 311.4 311.4 0 01-16.4-10.6m187.7 0a194.4 194.4 0 01-18.8 12.6c0 .5 8.3-4.7 14.3-8.9 6-4.1 5.5-3.8 5.2-4 0 0-.4 0-.7.4m-223.6 6l5.9 5.7A206 206 0 0064 323.6l5.6 5.8m284.9-3.2c-.8.9-.3 1.3.5.5.3-.4.6-.7.6-.9 0-.4-.6-.2-1.1.4m-25.2 3.3a23.1 23.1 0 00-3 3.3c.4 0 6.7-6.3 6.5-6.5-.1 0-1.7 1.4-3.5 3.2m21 2c-1 .7-1.5 1.4-1.4 1.6.2.2 1.5-1 2.6-2.4 1-1.1.4-.8-1.3.7m-28 4.8a29 29 0 01-3.5 3c-.2 0-.3.2-.3.4 0 .3 1.5-.8 3.3-2.5 4.3-3.8 4.4-3.9 4-3.9-.2 0-1.7 1.4-3.5 3m-244.8.5c.8 1 1.6 1.6 1.7 1.5.1-.1.2-.2 0-.3l-1.7-1.5-1.6-1.4 1.6 1.7m190.2 2.3l-5.5 3c.5 0 10-4.6 11.2-5.4 1.7-1.2 0-.5-5.7 2.4m-140.8-2a120.6 120.6 0 0020.2 8.9 143.7 143.7 0 01-15.4-6.8c-5.1-2.6-4.8-2.4-4.8-2.1m-47.2 1.6l3.3 2.9c4.1 3.4 4.7 3.9 4.7 3.6l-2.5-2.2a231.6 231.6 0 01-4-3.3c-.8-.7-1.5-1.2-1.5-1m20.8.5a62 62 0 009 6.1c5.3 3.3 11.8 7 12 6.7.1-.1-1.6-1.2-3.9-2.4-6-3.4-7-4-12.3-7.5-2.6-1.7-4.8-3-4.8-2.9m240.7 2.2c-.9.8-1.5 1.6-1.4 1.7.2.2 3.5-3 3.5-3.2 0-.5-.8 0-2.1 1.5m-26.4 1.3c-3 2.4-4.9 4.1-3.5 3.2a98 98 0 006.8-5.6c0-.3 0-.3-3.3 2.4m-58 1.3c-2.6 1-4.6 2-4.5 2 .2.2 8.6-3 9.2-3.6.5-.4.5-.4-4.7 1.6M148 346.4l1.2.4c.5 0 .5 0 0-.4l-1.2-.4c-.5 0-.5 0 0 .4m102 0c-.5.3-.5.4 0 .4l1.2-.4c.5-.3.5-.4 0-.4l-1.2.4m58.8.8l-1.4 1.2 1.5-.9c.8-.5 1.5-1 1.5-1.2 0-.5-.1-.4-1.6 1M90 347a14.8 14.8 0 003.7 2.7 12 12 0 00-2-1.8c-1.1-.7-1.8-1-1.7-.9m59.9 0c0 .2 4 1.5 4.2 1.3.1-.1-.7-.5-1.8-.8-2-.7-2.4-.8-2.4-.5m95.5.8c-.1.2-1 .4-1.8.7l-2.9.7c-4.9 1.5-11.5 2.8-19.6 4.1-.7.1-.5.2.5.2.9 0 2.3 0 3.2-.3l4.1-.8a77.2 77.2 0 0016.5-4.6m-90 1a128 128 0 0022 4.7c1 0 1.2 0 .5-.2-8.1-1.3-14.5-2.6-19.8-4.1-2.6-.7-3.9-1-2.7-.4m150.1.6c-.8.6-1.2 1-1 1 .2 0 1-.4 1.6-1 1.5-1.3 1.2-1.2-.6 0m25.5 1c-.9.9-1.4 1.6-1.2 1.6.4 0 3.3-2.6 3.3-3 0-.5-.7 0-2.1 1.4m-235.5.6l2.9 2.1c3 2 5.2 3.3 4.5 2.6-.6-.6-7.4-5-7.4-4.7m207 .4c-.4.3-.7.7-.6.8.1 0 .7-.2 1.2-.6.6-.4.8-.8.6-.8l-1.2.6m-3.3 2.2c-2.3 1.7-2.1 1.8.3.3l2-1.4c0-.3-.7 0-2.3 1.1m-119.1.4c1.2.3 5.3.5 5 .3a21 21 0 00-5-.3m35.6 0l-2 .3h2c1.1 0 2.5-.1 3.2-.3l1.2-.3H219l-3.2.3m110.3.6c-.8.9-.3 1.3.5.5.3-.4.6-.7.6-.9 0-.4-.6-.2-1.1.4m-137.7.3a169.8 169.8 0 0022.4 0c1.2-.2-3.8-.3-11.2-.3-7.4 0-12.4.1-11.2.3m-58.7 1.1c.9.5 1.7.8 1.8.7.2-.2-2.5-1.5-3-1.5-.2 0 .4.4 1.2.8m165.6.2c-1.9 1.2-2.3 1.7-.6.8 1.2-.6 2.8-1.8 2.5-1.8l-1.9 1m-191.7 0l1 .8c.6.3 1 .5 1 .3s-.4-.6-1-.8c-.5-.3-1-.4-1-.3m163.2.7a82 82 0 01-7.6 3c-4.6 1.7-5.4 2-4.6 2 .5 0 1 0 1.2-.2a9 9 0 012-.8l2.4-.9 4-1.6c3.3-1.3 5.5-2.4 4.8-2.4l-2.2.9m-134.8 0c0 .1 2 1 4.3 1.9l5 2c.4.2 1 .4 1.4.4.4 0 0-.3-.9-.7l-4.8-1.8c-1.8-.7-3.4-1.4-3.6-1.6-.4-.3-1.4-.4-1.4-.1m186.8 3.3c-.7.3-1.6 1.1-1.6 1.5 0 .3 1.6-.6 2.3-1.3.6-.5.3-.6-.7-.2m-175 1.1c.3.5 3 1.4 3.8 1.4.3 0 0-.3-.8-.6-2.4-.8-3.4-1.1-3-.8m108.4 1c-.8.3-.8.3 0 .4.6 0 1-.2 1.2-.4.3-.5-.1-.5-1.2 0m-137.4.2c0 .2 9.9 5 10.3 5a163.6 163.6 0 00-10.3-5m33.8.6c.1.2.6.4 1.1.4.9 0 .9 0 .1-.4-1.1-.5-1.5-.5-1.2 0m101 0c-.8.3-.9.3-.2.4.4 0 1-.2 1.4-.4.7-.5.2-.5-1.2 0m-98.4.8c.3.2 1 .4 1.4.4h.8l-.8-.4c-1.2-.5-2.2-.5-1.4 0m95.8 0c-.8.3-.8.3 0 .4.6 0 1-.2 1.2-.4.3-.5-.1-.5-1.2 0m-93 .8c.3.2 1 .4 1.4.4h.8l-.8-.4c-1.2-.5-2.2-.5-1.4 0m90 0c-.8.5.2.5 1.4 0l.8-.3h-.8c-.4 0-1 0-1.4.3m34.4.6c-.6.3-.8.6-.6.6l1.4-.6c.5-.3.8-.6.6-.6l-1.4.6m-121.2.2c.3.2 1 .4 1.4.4h.8l-.8-.4c-1.2-.5-2.2-.5-1.4 0m83.8 0l-.8.3h.8c.4 0 1 0 1.4-.3.8-.5-.2-.5-1.4 0m-80.6.8c.3.2 1 .4 1.4.4h.8l-.8-.4c-1.2-.5-2.2-.5-1.4 0m77 0l-.8.3h.8c.4 0 1.2-.1 1.6-.3l.8-.3h-.8c-.4 0-1.2.1-1.6.3m-73.4.8c.5.2 1.4.3 1.8.3h.8l-.8-.3c-.4-.2-1.3-.3-1.8-.3h-1l1 .3m69.8 0l-.8.3h.8l1.8-.3 1-.3h-1c-.6 0-1.4.1-1.8.3m-66 .8c.7.2 1.6.3 2.2.3h1l-1-.3c-.6-.2-1.5-.3-2.2-.3h-1.2l1.2.3m61.8 0l-1 .3h1c.5 0 1.5-.1 2.2-.3l1.2-.3h-1.2c-.7 0-1.7.1-2.2.3m-56.8.8c13.2 2.9 37.4 3 52.8.1 3.3-.5 1.4-.4-4.4.3a184 184 0 01-43.2 0c-5-.7-7.3-.8-5.2-.4m81.7 5.9c-1 .3-1.7.7-1.6.7.1.1 1.2-.1 2.5-.6 1.3-.4 2-.7 1.6-.7l-2.5.6m-108.7.7l2.2.6c.3 0-.1-.3-1-.6l-2.2-.6c-.3 0 .1.3 1 .6m104.6.6c-.4.3-.3.4.6.2 1.5-.4 1.8-.6.8-.6a3 3 0 00-1.4.4m-101.2.4c.3.2 1 .4 1.4.4 1 0 .7-.2-.8-.6-.9-.2-1-.1-.6.2m97.4.6c-.9.3-1.3.5-1 .6l2.4-.6c1-.3 1.4-.5 1-.5-.4 0-1.5.2-2.4.5m-94.4.2c.4.2 1 .3 1.4.3.4 0 .3 0-.2-.3-.4-.2-1-.3-1.4-.3-.4 0-.3 0 .2.3m3 .8c.3.2 1 .4 1.4.4h.8l-.8-.4c-1.2-.5-2.2-.5-1.4 0m87.6 0c-.8.3-.8.3-.2.3.4 0 1.2-.1 1.6-.3 1-.4 0-.4-1.4 0m-84.2.8c.4.2 1 .3 1.4.3.4 0 .3 0-.2-.3-.4-.2-1-.3-1.4-.3-.4 0-.3 0 .2.3m80.8 0l-.8.3h.8c.4 0 1.2-.1 1.6-.3l.8-.3h-.8c-.4 0-1.2.1-1.6.3m-77.2.8c.4.2 1.2.3 1.6.3h.8l-.8-.3c-.4-.2-1.2-.3-1.6-.3h-.8l.8.3m73.6 0c-.5.2-.6.3-.2.3.3 0 1-.1 1.4-.3.5-.2.6-.3.2-.3-.3 0-1 .1-1.4.3m50.6.4c0 .2.3.4.6.4s.6-.2.6-.4-.3-.4-.6-.4-.6.2-.6.4m-120 .4c.5.2 1.4.3 1.8.3h.8l-.8-.3c-.4-.2-1.3-.3-1.8-.3h-1l1 .3m65 0l-.8.3h.8c.4 0 1.2-.1 1.6-.3l.8-.3h-.8c-.4 0-1.2.1-1.6.3m-60.2.8c.5.2 1.4.3 1.8.3h.8l-.8-.3c-.4-.2-1.3-.3-1.8-.3h-1l1 .3m55 0l-.8.3h.8l2-.3 1.2-.3h-1.2a6 6 0 00-2 .3m-50.6.5l2.4.4c1.4.2 2 .1 1.4 0-.8-.4-4.1-.7-3.8-.4m44.4.3c-1.4.5 0 .5 2.2 0l1.6-.3h-1.4c-.8 0-1.9.1-2.4.3m-37.2.5a31.1 31.1 0 006.2.3c-1.6-.3-6.5-.5-6.2-.3m27.4.3a33.3 33.3 0 006.6-.3c.3-.2-5 0-6.6.3m33.6 12.2c-.1.5 0 .6.4.4l.8-.2.2-.4c0-.7-1-.5-1.4.2"/>
    <path fill="#8c8c94" d="M183.1.3h3.2c.8-.1 0-.2-1.7-.2-1.8 0-2.4.1-1.5.2m30 0h3.4c.9 0 .2-.2-1.7-.2s-2.6.1-1.7.2m-39.9.5c0 .2 1 .4 2.2.4 1.2 0 2.2-.2 2.2-.4s-1-.4-2.2-.4c-1.2 0-2.2.2-2.2.4m48.4 0c0 .2.9.4 2 .4s2-.2 2-.4-.9-.4-2-.4-2 .2-2 .4m-54.2.9c-.2.3-.2.4 0 .2.2-.1.6 0 1 .1.9.5 2.8.1 2.8-.4 0-.6-3.5-.5-3.8.1m60.6-.1c0 .5 1.6.8 2.7.5.5 0 .8-.3.7-.5-.3-.5-3.4-.5-3.4 0m-65 .8c-.3.5 1.6 1 2.2.6.2-.1.4-.4.4-.6 0-.5-2.3-.5-2.6 0m70.6 0c0 .6 1 1 1.9.6l1-.3c.2 0 .2 0 .1-.3-.3-.5-3-.5-3 0m-74.8.8c-.4.3-.3.4.5.6 1.1.3 1.9 0 1.9-.6 0-.5-1.6-.5-2.4 0m79.3.1c0 .3.7.5 1.3.5s1.2-.2 1.3-.5c.1-.3-.3-.5-1.3-.5s-1.4.2-1.3.5m-83 .6c-.6.5-.2.9.9.9.8 0 1.2-.2 1.2-.6 0-.6-1.6-.9-2.1-.3m86.9.3c0 .5.3.6 1.3.5.7 0 1.3-.3 1.3-.5s-.6-.5-1.3-.5c-1-.1-1.3 0-1.3.5m-91.2.8c-.6.3-1.4.6-1.9.6s-1 .2-1.1.4c-.1.2.3.4 1 .4.6 0 1.2-.2 1.3-.5 0-.3.8-.4 1.8-.4 1.3.1 1.7 0 1.7-.5 0-.8-1.5-.8-2.8 0m95-.3c-.4.4.3.9 1.5.9 1 0 1.1 0 .7-.6-.5-.6-1.7-.8-2.1-.3m3.2 1.2c.1.3.7.5 1.4.5 1.4 0 1.1-.6-.5-.9-.8-.1-1 0-1 .4m-104.2.9c0 .2.5.4 1 .4s1-.2 1-.4-.5-.4-1-.4-1 .2-1 .4m107.6 0c0 .2.5.4 1 .4s1-.2 1-.4-.5-.4-1-.4-1 .2-1 .4m-110.2.8c-.1.2.2.4.8.4.5 0 1-.2 1-.4s-.3-.4-.8-.4c-.4 0-.9.2-1 .4m113 0c0 .2.5.4 1.2.3.7 0 1.2-.2 1.2-.4s-.5-.3-1.2-.3-1.2.2-1.2.4m-115.6.8c0 .2.4.4.8.4s.8-.2.8-.4-.4-.4-.8-.4-.8.2-.8.4m118.4 0c0 .2.5.4 1 .4s1-.2 1-.4-.5-.4-1-.4-1 .2-1 .4m-121.4.8c-.1.2.2.4.8.4.5 0 1-.2 1-.4s-.3-.4-.8-.4c-.4 0-.9.2-1 .4m124.2 0c0 .2.4.4.8.4s.8-.2.8-.4-.4-.4-.8-.4-.8.2-.8.4m-126.6.8c-.1.2.2.4.8.4.5 0 1-.2 1-.4s-.3-.4-.8-.4c-.4 0-.9.2-1 .4m129 0c0 .2.4.4.8.4s.8-.2.8-.4-.4-.4-.8-.4-.8.2-.8.4m-131.6.8c0 .2.5.4 1 .4s1-.2 1-.4-.4-.4-1-.4-1 .2-1 .4m134 0c0 .2.5.4 1 .4.6 0 1-.2.8-.4-.1-.2-.6-.4-1-.4-.5 0-.8.2-.8.4m-135.8.8c.1.2.5.4.8.4.3 0 .6-.2.6-.4s-.4-.4-.8-.4c-.5 0-.7.2-.6.4m138.2 0c0 .2.5.4 1 .4s1-.2 1-.4-.5-.4-1-.4-1 .2-1 .4m-140.4.8c0 .2.4.4.8.4s.8-.2.8-.4-.4-.4-.8-.4-.8.2-.8.4m142.6 0c-.1.2 0 .4.4.5.5.3 1 0 1-.6 0-.4-1.1-.4-1.4 0m-145.2.9c-.1.2-.6.4-1 .4-.9 0-1 .6-.3 1 .2.2.6 0 .9-.3.3-.4.9-.7 1.3-.7s.9-.2.9-.4-.3-.4-.8-.4c-.4 0-.9.2-1 .4m147.4 0c0 .2.5.4 1 .4.6 0 1-.2.8-.4-.1-.2-.6-.4-1-.4-.5 0-.8.2-.8.4m2.2.8c-.1.2 0 .5.2.6.5.3 1.2 0 1.2-.6 0-.5-1-.5-1.4 0m-153.4.8l-1.3.6c-1 .3-.9 1 .1 1 .4 0 .8-.2.8-.4s.4-.4.9-.5c.4 0 1-.3 1-.6.2-.6-.6-.6-1.5-.1m155.3 0c0 .4.6.7 1 .7.7.1 1 0 .8-.4 0-.3-.6-.6-1-.6-.7-.1-1 0-.8.4m2.1.6c-.4.5-.2.9.6.9.4 0 .8-.2.8-.4 0-.4-1-.8-1.4-.5m-91.5.4h3.4c.9 0 .2-.2-1.7-.2s-2.6.1-1.7.2m19.4 0a29.4 29.4 0 003.8 0c1 0 .2-.2-1.9-.2s-3 .1-1.9.2m-88.6.4c-.5.4-.3.9.3.9.3 0 .6-.2.6-.4 0-.5-.6-.8-1-.5m95.3 0h1.6c.4-.1 0-.2-.9-.2s-1.2 0-.7.2m67.6 0c-.5.4-.3.9.3.9.3 0 .6-.2.6-.4 0-.5-.6-.8-1-.5m-102.1.4h2c.5-.1 0-.2-1.1-.2s-1.5.1-.9.2m39.6 0h2c.5-.1 0-.2-1.1-.2s-1.5.1-.9.2m-45.8.8h1.6c.4-.1 0-.2-.9-.2s-1.2 0-.7.2m52.4 0h1.6c.4-.1 0-.2-.9-.2s-1.2 0-.7.2m57.7.1c0 .2.4.4.8.4s.8.2.8.4.4.4.8.4.8.2.8.4.5.4 1 .4 1 .2 1 .4.4.4.8.4.8.2.8.4.4.4.8.4.8.2.8.4.3.4.7.4c.8 0-1-1.6-1.8-1.6-.3 0-.5-.2-.5-.4s-.4-.4-.8-.4-.8-.2-.8-.4-.3-.4-.8-.4c-.4 0-.9-.2-1-.4-.1-.2-.6-.4-1-.4-.5 0-.8-.2-.8-.4s-.4-.4-.8-.4-.8.2-.8.4m-168.8.8c0 .2-.4.4-.8.4s-.8.2-.8.4-.5.4-1 .4-1 .2-1 .4-.3.4-.6.4c-.4 0-1 .3-1.3.6-.3.3-.7.5-1 .4-.1-.1-.3 0-.3.1s-.6.6-1.4.9c-1.4.6-1.9 1.2-.8 1.2.3 0 .6-.3.7-.6.2-.3.5-.5.9-.4.3.2.6 0 .6-.2s.4-.4.8-.4.8-.2.8-.4.4-.4.8-.4.8-.2.8-.4.3-.4.8-.4c.4 0 .9-.2 1-.4.1-.2.6-.4 1-.4.5 0 .8-.2.8-.4s.4-.4.8-.4.8-.2.8-.4-.4-.4-.8-.4-.8.2-.8.4m53.9-.1h1.6c.4-.1 0-.2-.9-.2s-1.2 0-.7.2m62.2 0h1.4c.4-.1 0-.2-.7-.2s-1 0-.7.2m4.4.8h1.4c.4-.1 0-.2-.7-.2s-1 0-.7.2m-73.9.5c-1 .3-1.1.3-.2.3.6 0 1.4-.1 1.8-.3 1-.4 0-.4-1.6 0m76.8 0c.8.3 3 .6 2.6.3l-1.8-.4c-1.1-.2-1.4-.2-.8 0m-80.2.9c-.8.3-.8.3-.2.3.4 0 1.2-.1 1.6-.3 1-.4 0-.4-1.4 0m83.8 0c.4.2 1.2.3 1.6.3.6 0 .6 0-.2-.3-1.4-.4-2.4-.4-1.4 0m51.8 2c0 .2.4.4.8.4s.8.2.8.4.3.4.8.4c.4 0 .8.3 1 .6s.4.5.6.4c.7-.4.4-.8-1-1.4-.8-.3-1.4-.7-1.4-.9 0-.2-.4-.3-.8-.3s-.8.2-.8.4m-190 1.6c0 .2.3.4.6.4s.6-.2.6-.4-.3-.4-.6-.4-.6.2-.6.4m-1.6.7c0 .2-.5.5-1.1.8-1.5.7-3 2-2.7 2.4.1.2.4 0 .7-.4.2-.4.5-.6.8-.5.2.2.5.1.6 0 .2-.2.8-.7 1.5-1 1.3-.8 1.8-1.6.8-1.6-.3 0-.6.1-.6.3m196.4.2c0 .3.6.8 1.4 1.1.8.3 1.4.7 1.4.9 0 .2.3.3.8.3.4 0 .8.2 1 .5 0 .3.2.4.4.2.6-.5-2.7-3-3.4-2.5-.2.1-.4 0-.4-.4a.6.6 0 00-.6-.6c-.3 0-.6.2-.6.5M94.6 29c-.7.6-.7.7 0 .7.3 0 .6-.2.6-.4s.3-.4.6-.4.6-.2.6-.4c0-.6-1-.4-1.8.4m172-.4c3.1 1.3 5.1 2 4.8 1.7-.5-.5-4.6-2.1-5.2-2-.2 0 0 .1.4.3m36.2 0c0 .2.3.4.6.4s.6.2.6.4.4.4.8.4.8.2.8.4.3.4.6.4.6.2.6.4.3.4.6.4.6.2.6.4.3.4.6.4.6-.2.6-.4-.3-.4-.6-.4-.6-.2-.6-.4-.3-.4-.6-.4-.6-.2-.6-.4-.3-.4-.6-.4-.6-.2-.6-.4c0-.3-.2-.3-.4-.2-.2.1-.6 0-1-.4-.6-.7-1.4-.8-1.4-.2m-110 .4c-2 .2.6.3 6.8.3 7.4 0 9.2-.1 6.4-.3-4.4-.4-8.4-.4-13.2 0m-11.4.8c-1.5.3-1.5.3.6.3 1.2 0 2.7-.1 3.2-.3 1.3-.4-1.4-.4-3.8 0m32.6 0c.6.2 1.9.3 3 .3h2l-1.6-.3c-2.2-.5-4.8-.5-3.4 0m-122.4.9c-.8.4-1.5 1-1.5 1.1-.1.2-.4.4-.8.4-.6 0-2 1.1-1.6 1.4.2.3 2.3-.7 2.3-1.1 0-.2.3-.3.6-.3s.6-.1.6-.3c0-.2.5-.5 1.2-.8.7-.3 1.2-.7 1.2-1 0-.5-.4-.4-2 .6m82.8 0l-4.4.7c-8.1 1.4-23.7 5.5-21.1 5.6.6 0 1.2-.2 1.3-.4.1-.2.8-.4 1.4-.4.6 0 1.3-.2 1.4-.4.1-.2.8-.4 1.4-.4.6 0 1.3-.2 1.4-.4.1-.2.9-.4 1.7-.5l3.3-.7c3.2-.8 7.2-1.6 13.8-2.6l4.6-.8c.3-.3-3-.1-4.8.2m45.6-.2l4.6.8a152.5 152.5 0 0125.7 5.8c2.7-.1-13.3-4.3-21.3-5.6a187.2 187.2 0 01-4.7-.8c-2-.4-4.6-.5-4.3-.2m53.2.8c0 .3 2.9 1.4 3.1 1.2.1-.1.1-.2 0-.2l-1.7-.6-1.4-.4m36.4 1.3c0 .4 1.6 1.4 2 1.1 0-.1-.2-.5-.6-.8-.9-.6-1.4-.8-1.4-.3m-224 2c-.3.5-1 1-1.5 1.3-2 1-3.1 2.4-2 2.4.5 0 1.5-1 1.5-1.5 0-.2.5-.5 1.2-.6.7-.2 1.2-.5 1.2-.9 0-.3.4-.6.8-.6.5 0 .7-.2.6-.4-.4-.6-1.1-.5-1.8.3M312 34c0 .2.3.4.6.4s.6.3.6.6.4.7 1 .8c.5.2 1.3.7 1.7 1.2.7 1 1.3 1.3 1.3.5 0-.4-1.5-1.9-2-1.9-.2 0-.8-.5-1.4-1-1.3-1-1.8-1.2-1.8-.6m-165.8 3.2c-.8.3-.8.3 0 .4.6 0 1-.2 1.2-.4.3-.5-.1-.5-1.2 0m105.6 0c.1.2.6.4 1.1.4.9 0 .9 0 .1-.4-1.1-.5-1.5-.5-1.2 0m-140.6.8c-.7.6-.7.7-.2.4 1.3-.6 2-1.2 1.6-1.2l-1.4.8m-31.5.7c-1.3 1.2-1.6 1.7-1 1.7.6 0 2.6-2 2.4-2.4 0-.3-.7 0-1.4.7m64.1-.7c-.8.3-.8.3 0 .4.6 0 1-.2 1.2-.4.3-.5-.1-.5-1.2 0m110.4 0c.1.2.6.4 1.1.4.9 0 .9 0 .1-.4-1.1-.5-1.5-.5-1.2 0m63.8.2c0 .4 1.1 1.4 1.5 1.4.3 0 .5.2.6.5.1.3.3.4.5.2.3-.3-1.5-2.3-2.2-2.3l-.4.2m-209.6 1.4c-.7.6-.7.7-.2.4 1.3-.6 2-1.2 1.6-1.2l-1.4.8m181.2-.4c1.4 1 2.2 1.2 1.2.4l-1.4-.8c-.2 0-.1.2.2.4m-150.4.4c-.5.3-.4.4.3.4.5 0 .9-.2.9-.4 0-.5-.4-.5-1.2 0m119.6 0c0 .1.4.4.9.5l1.9.5c.6.1.3-.1-.6-.6-1.8-.9-2.2-1-2.2-.4M75.7 41.9c-.8.7-1.3 1.5-1.2 1.6.3.2 2.7-2.2 2.7-2.7s0-.5-1.5 1m29.9-.6c-.7.6-.7.7-.2.4 1.3-.6 2-1.2 1.6-1.2l-1.4.8m215.6-.4c0 .2.1.4.3.4.2 0 .8.4 1.3.8 1.2 1.2 1.5.7.3-.6-1.1-1-1.9-1.3-1.9-.6m-186.4.5l-2.8 1.2c-4.4 2-13.3 6.3-13.1 6.5 0 .1 1.6-.5 3.3-1.4 1.7-.9 3.4-1.6 3.7-1.6.3 0 .5-.2.5-.4s.2-.4.5-.4 1.4-.4 2.5-1a104 104 0 014.2-1.8c2.2-1 3.3-1.6 2.6-1.6l-1.4.5m128.2-.2l2.6 1.3a104 104 0 016.7 2.8c.3 0 .5.2.5.4s.2.4.5.4 2 .7 3.7 1.6a13 13 0 003.3 1.4 148 148 0 00-17.4-8.2c-.2 0 0 .2.1.3m30.4.3c.4.4 1.2.8 1.6 1l.8.4-.8-.6c-.4-.4-1.2-.8-1.6-1l-.8-.4.8.6m32 2.3c1.3 2 3.8 3.8 3.8 2.7 0-.2-.1-.4-.3-.4-.2 0-1-.6-1.9-1.4-1.6-1.5-2-1.7-1.5-.9m-253.2.8a95.6 95.6 0 01-2.6 2.1 66.8 66.8 0 00-8.4 8.5c.1 0 2-1.6 4.1-3.7 2.1-2 4-3.8 4.3-3.8.4 0 4-3.6 3.8-3.8 0 0-.6.2-1.2.7M187 44c-.7.2-2.2.3-3.4.4a36 36 0 00-4.4.4 455.6 455.6 0 01-5 .8c-4.5.7-10.4 2.1-9.9 2.3.3.1 1.2 0 2-.2 8-2.3 24.2-3.9 36.5-3.6a149.4 149.4 0 0132.3 3.7c-.6-.7-11-2.6-18.9-3.5-4.5-.5-27.6-.7-29.2-.3m142.6 3c0 .2.6 1 1.3 1.7l3.2 3.1c1 1 2 1.8 2.2 1.7a29.4 29.4 0 00-6.7-6.5m-168.4 1.4c-.8.5.6.5 1.8 0 .7-.3.7-.3-.2-.4-.6 0-1.3.2-1.6.4m75.4 0c1.2.5 2.2.5 1.4 0-.3-.2-1-.4-1.4-.4h-.8l.8.4m-78.4.8c-.3.5.5.5 1.6 0 .7-.3.7-.3-.3-.4-.6 0-1.2.2-1.3.4m81.4 0c.8.5 1.7.5 1.4 0-.1-.2-.6-.4-1.1-.4-.7 0-.8 0-.3.4m65.8-.1c.6.7 8.6 6.5 8.6 6.3a92.9 92.9 0 00-8.6-6.3m-188.3.7c-.7.4-1.1.7-1 .8.2.3 2.3-.7 2.3-1.1 0-.4 0-.4-1.3.3m163.7-.3c0 .4 2 1.4 2.3 1.1l-1-.8c-.7-.3-1.3-.5-1.3-.3M91.4 50.6l-1.2 1 1.3-.8 1.3-1c0-.3-.2-.2-1.4.8m64-.6c-.3.5.5.5 1.6 0 .7-.3.7-.3-.3-.4-.6 0-1.2.2-1.3.4m87.2 0c1.1.5 1.5.5 1.2 0-.1-.2-.6-.4-1.1-.4-.9 0-.9 0-.1.4m-89.8.8c0 .5.3.5 1.4 0 .7-.3.7-.3-.3-.4-.6 0-1.1.2-1.1.4m92.6 0c1.1.5 1.5.5 1.2 0-.1-.2-.6-.4-1.1-.4-.9 0-.9 0-.1.4m-131.4.8c-.6.4-1.1.8-1.3.8a159.2 159.2 0 00-25.4 18.3c-3.6 3.2-3.8 2.6 2.2 8.6s5.1 5.7 8.4 2.8a165 165 0 0130-20.8 50.8 50.8 0 00-10 5.5 129.3 129.3 0 00-13.8 9.6c-.2 0-.8.4-1.3.9l-3.4 2.9a78.6 78.6 0 00-3.3 2.9c-1.2 1.2-.6 1.6-6.3-4.1-6-6-5.7-5.2-2-8.2a162.7 162.7 0 008.4-6.8 220.7 220.7 0 003.5-2.6 158.7 158.7 0 0115.9-10.2c0-.6-.5-.5-1.6.4m169.6-.4a105 105 0 0113.8 8.8c.2 0 .8.3 1.2.7a45.8 45.8 0 014.8 3.7 140.5 140.5 0 002 1.6 284.8 284.8 0 018.1 6.7c1.3 1.1 1.4.9-3.9 6.1-5.5 5.5-5.1 5.4-8 2.8a62.8 62.8 0 00-3.6-3.1 44 44 0 01-2.4-2c-.5-.5-1.1-.9-1.3-.9l-.8-.5c-.3-.3-1.1-1-1.9-1.5l-1.6-1.2a136.2 136.2 0 00-16-10c0-.3-.3-.4-.7-.4-.9 0-.2.5 3.3 2.4a44.8 44.8 0 014.8 2.8c1 0 11.8 8 18.5 13.5l4.6 3.8 5.1-5.1c2.9-2.9 5.2-5.4 5.2-5.6 0-.7-7-6.8-13.2-11.3a214.5 214.5 0 00-16.4-10.9c-1.1-.9-1.6-1-1.6-.4m-133.4.4c-.1.2-.6.4-1 .4-.5 0-1.2.2-1.7.5-1.9 1-2.3 1.1-2.9 1.1a61.2 61.2 0 01-5.2 2 27.1 27.1 0 00-6.1 3c.1.1 1.3-.2 2.6-.8a234.7 234.7 0 015.9-2.6l9.6-3.5 1.2-.4h-1c-.7 0-1.3 0-1.4.3m97.6 0c1.1.5 1.5.5 1.2 0-.1-.2-.6-.4-1.1-.4-.9 0-.9 0-.1.4M88 53l-2.4 2c-.3.4.5-.1 1.9-1.2l2.5-2c0-.3 0-.2-2 1.2m163-.3l5.2 2c4.7 1.8 8.3 3.4 12.7 5.6 1 .5 1.9.8 1.9.6 0-.2-1-.7-2.1-1.3a8241.6 8241.6 0 01-4.9-2.2 45.2 45.2 0 00-8.2-3.4l-1.6-.8c-.4-.2-1.1-.4-1.6-.4-.4 0-.9-.2-1-.4-.1-.2-.6-.4-1.1-.4-.6 0-.4.2.7.7m85.8 1.2c0 .2.5.5 1 .8 1 .5 1 .5.4-.3-.7-.8-1.4-1-1.4-.5m-22.4 1.8l2.3 2.2c1.2 1 2.1 1.7 2 1.4-.4-.5-4.3-3.9-4.3-3.6M82 58l-1.8 1.7 1.9-1.5c1.7-1.4 2.2-1.8 1.8-1.8l-2 1.6m257.7-1.5l2 2c2.4 2.3 2.7 2 .4-.4-1.3-1.4-2.4-2.1-2.4-1.6M77.8 61.7L76.6 63l1.3-1.2c1.2-1 1.5-1.4 1.2-1.4l-1.3 1.3M320 60.5a45 45 0 005.2 4.5 34.4 34.4 0 00-5.2-4.5M51 64.9c-1.9 2-3.4 3.7-3.2 3.8.2.2 7.4-6.9 7.4-7.3 0-.6-1 .2-4.1 3.5m23.3-.3a9 9 0 00-1.6 1.8l2-1.8a9 9 0 001.6-1.8l-2 1.8M345.6 63l1.7 2 3 3.2c.8.8 1.5 1.3 1.6 1a13 13 0 00-2.9-3.4c-2.9-2.8-3.4-3.3-3.4-2.8M46.2 70.2l-1.7 2.1c-1.5 1.8-.6 1.5 1.3-.4 1.7-1.7 2.2-2.7 1.5-2.7-.2 0-.7.5-1 1m306.1.3c0 .6 1.3 2.3 1.8 2.3l1 .8c1.8 1.6 1.2.4-.8-1.6-1.2-1.3-2-2-2-1.5m-288 4.1a9 9 0 00-1.6 1.8l2-1.8a9 9 0 001.6-1.8l-2 1.8M336 76.3l3.5 3.7c.3 0-4.5-5.3-5.7-6.4-.7-.6.3.7 2.2 2.7m-294.3-.5c-.8.9-1.1 1.5-.9 1.8.3.5.4.5.4 0 0-.2.5-1 1.2-1.6.7-.6 1.2-1.2 1.2-1.4 0-.5-.7 0-1.9 1.2m314.7-.4c0 .2 1 1.5 1.9 2.4.3.3.5.7.5 1 0 .2.2.4.4.4s.4.2.4.5.4.8.8 1.1c.4.3.8.8.8 1 0 .6 2 3 2.5 3l.2-.6c0-.3-.2-.5-.4-.4-.2.2-.3 0-.3-.3s-.5-1-1-1.6c-.6-.6-1-1.2-1-1.4 0-.2-.4-.6-.8-.9-.4-.3-.8-.8-.8-1 0-.4-.2-.6-.4-.6a.4.4 0 01-.4-.4c0-.2-.4-.9-1-1.4-1-1-1.4-1.2-1.4-.8M61.4 78l-1.2 1.3 1.3-1.2c1.2-1 1.5-1.4 1.2-1.4l-1.3 1.3m-22.7 1.6c-.7.7-1 1.3-.7 1.4.5.2 1.6-.8 1.6-1.5 0-.2.2-.4.4-.4s.4-.2.4-.4c0-.7-.6-.4-1.7.9m20.7.5a63 63 0 01-2.9 3.8c.3 0 3.6-4 3.4-4.2 0 0-.3 0-.5.4m280.2.3l1.3 1.3L342 83l-1-1.3c-.8-1-1.5-1.6-1.5-1.2M36.7 82.4a11.3 11.3 0 00-1.1 1.7l-1.3 1.6c-.5.5-.7.9-.5 1.4.3.6.3.6.5-.1.1-.4.5-1 1-1.3.4-.3.7-.9.7-1.3 0-.5.2-.8.4-.8.6 0 1.6-1 1.6-1.6 0-.6-.6-.5-1.3.4m283.3 7l-5.3 5.4 2.4 2.7c5.8 6.6 13 16.5 16.6 22.8A173 173 0 01347 149c.6 2 1 2.5 1 1.7 0-.6-.2-1.2-.4-1.3-.2-.1-.4-.6-.4-1 0-.5-.2-1.2-.4-1.6l-.8-1.6-.4-1.2a128 128 0 00-11.1-23.2l-1.3-2.2a239.9 239.9 0 00-12.2-17.2 73.1 73.1 0 00-3-3.6c-3-3-3.1-2.7 2.6-8.3l5-5 1.4 1.4a323.4 323.4 0 012.4 2.9 133.1 133.1 0 003.4 4l1.9 2.3 1.8 2.4 1.5 2.1 1.6 2.2a10 10 0 001.7 2.1c.2.1.3.3.3.6l1.1 2a95 95 0 016.1 9.9c1 0-6.8-12.3-12.4-19.8A133.1 133.1 0 00325.7 84c-.2 0-2.7 2.4-5.7 5.4M73 85l-3.8 4.5a174.4 174.4 0 00-18.4 26.1c-.8 1-1 1.6-.5 1.6a81 81 0 014.3-7 88.6 88.6 0 003.8-5.9c.4-.5.8-1 .8-1.4 0-.3.1-.5.3-.5a156.4 156.4 0 0113.3-16.5l1-1 5.1 5L84 95s-.4.6-.9 1-1.8 2-2.9 3.4a85.9 85.9 0 01-3.4 4.2l-1.2 1.6-1.2 1.6-1.2 1.6a176.7 176.7 0 00-10 15.6c-.5.4-2.8 5.3-2.6 5.5 0 .1.7-1 1.4-2.4a89.3 89.3 0 012.9-5l1.5-2.8c0-1 11.1-16.2 15.7-21.4 2.9-3.3 3.2-2.3-3-8.4-5.4-5.4-5.5-5.4-6.1-4.5m-18.8 1.7c-.6.8-1 1.3-.7 1.2.5-.4 2.3-2.7 2-2.7l-1.3 1.5m309.4-1.3c0 .4 1.7 1.9 1.9 1.7.3-.3-.8-1.9-1.4-1.9-.3 0-.5 0-.5.2m-17.6 3l1.3 1.5c.2.1 0-.4-.7-1.2-1.3-1.8-1.8-2-.6-.3m-313.5-.2c-.3.3-.5.8-.5 1.2 0 .3-.1.6-.3.6-.5 0-2.2 3.2-2 3.5.4.3 1.5-1.1 1.5-1.8 0-.3.2-.5.4-.5s.4-.3.4-.6.2-.6.4-.6c.1 0 .4-.3.6-.7 0-.4.3-1 .4-1.2.3-.7-.3-.6-.9.1m333.1-.3c0 .4 1 1.7 1.3 1.7.5 0 .3-.8-.3-1.4-.6-.7-1-.8-1-.3m1.6 2.5c0 .5 1 1.6 1.4 1.6.4 0 .2-.9-.4-1.4-.7-.7-1-.8-1-.2m-18.8 1.2l1 1.2c.2 0-.1-.5-.6-1.2l-1-1.2c-.2 0 .1.5.6 1.2m-298.7 1L49 94c.2 0 1.9-2.4 1.7-2.6l-1 1.2m319.1.4c0 .3.2.6.4.6s.4-.3.4-.6-.2-.6-.4-.6-.4.3-.4.6M28.7 94.8c-.8.9-1 1.6-.3 1.6.2 0 .4-.3.4-.6s.2-.6.5-.7c.2 0 .3-.4.3-.6-.2-.4-.4-.2-.9.3m340.9-.4c0 .7 1.2 1.7 1.5 1.4.2-.2 0-.4-.2-.5a.8.8 0 01-.5-.7c0-.3-.2-.6-.4-.6s-.4.2-.4.4m1.6 2.5c0 .4.2.7.4.7s.4.4.4.8.2.8.4.8.4.3.4.6.3.6.6.6.6-.2.6-.4-.3-.5-.6-.7c-.3 0-.6-.4-.6-.8 0-.3-.4-1-.8-1.4-.7-.7-.8-.7-.8-.2M26.3 98.4c-.6.8-1.1 1.7-1.1 2s-.2.4-.4.4-.4.3-.4.6c0 1 .8.6 1.5-.8.3-.8.8-1.4 1-1.4.2 0 .3-.3.2-.6-.2-.4 0-.7.3-.9.3 0 .6-.3.6-.5 0-.8-.6-.3-1.7 1.2m326.1-1.5c0 .4 2.4 4.3 2.7 4.3 0 0-.2-.7-.7-1.5-1.4-2.2-2-3.1-2-2.8m21.2 4.5c0 .3.3.6.6.6.5 0 .6.2.4.6 0 .4 0 .7.4.9.3 0 .6.5.6 1 0 .4.2.7.4.7s.4.4.4.8.2.8.4.8.4.4.4.8.2.8.4.8.4.3.4.6.2.6.4.6.4-.3.4-.6-.2-.6-.4-.6-.4-.4-.4-.8-.1-.8-.3-.8c-.4 0-1.3-2-1.3-2.7 0-.3-.2-.5-.4-.5s-.6-.6-.9-1.4c-.5-1.4-1.5-2-1.5-.8m-350 1.6c0 .3.2.6.4.6s.4-.3.4-.6-.2-.6-.4-.6-.4.3-.4.6m18.8.7a120 120 0 01-1.1 1.8l-.4.9c.3 0 2.4-3.2 2.2-3.4 0-.1-.4.2-.7.7m-20 1.7c-.3.8-.7 1.4-.9 1.4-.2 0-.3.4-.3.8s-.2.8-.4.8-.4.4-.4.8-.2.8-.4.8-.4.5-.4 1-.2 1-.4 1-.4.4-.4.8-.2.8-.4.8-.4.4-.4.8.2.8.4.8.4-.4.4-.8.2-.8.4-.8.4-.3.4-.8c0-.4.2-.9.4-1 .2-.1.4-.6.4-1 0-.5.2-.8.4-.8s.4-.4.4-.8.2-.8.4-.8.4-.4.4-.8.2-.8.4-.8c.3 0 .4-.3.2-.6 0-.4 0-.7.4-.9.3 0 .6-.4.6-.7 0-1-.6-.6-1.2.8m335-.4c.3.7.8 1.6 1.2 2 .4.4.3 0-.2-.8-1.1-2-2-2.9-1-1.2m21.4 5.8c0 .4.2.8.4.8s.4.4.4.8.2.8.4.8.4.5.4 1 .2 1 .4 1 .4.3.4.8c0 .4.3.8.6 1 .3 0 .5.4.3.8 0 .3 0 .6.3.6.2 0 .4-.4.4-.8s-.2-.8-.4-.8-.4-.4-.4-.8-.2-.8-.4-.8-.4-.4-.4-.8c0-.5-.3-1.1-.6-1.5-.3-.3-.5-.7-.4-1 .1-.1 0-.3-.2-.3s-.4-.4-.4-.8-.2-.8-.4-.8-.4.4-.4.8m-29.5 6.3a543.4 543.4 0 002.6 5.3c3 6.3 4.9 10.4 6.3 14 .4.9.8 1.5 1 1.4 0-.1 0-.6-.3-1.1l-2-4.7a198.7 198.7 0 00-7.6-14.9m-333 .8c-.3.3 0 .9.5.9.2 0 .4-.3.4-.6 0-.6-.5-.8-1-.3m30.3 6a167.5 167.5 0 00-5.7 12.5c0 .8.6 0 1.2-1.6 1-2.5 3.2-7.3 5.6-12.2 1.3-2.6 2.3-4.8 2.2-5 0 0-1.6 2.8-3.3 6.3m-31.1-4a15.2 15.2 0 01-.7 1.6c-.5 1-.2 1.5.5 1.1.3-.2.4-.5.2-.9a.6.6 0 01.4-.8c.7-.2.8-1.7.2-1.7-.2 0-.5.3-.6.7m367.4-.1c0 .3.2.6.4.6s.4-.3.4-.6-.2-.6-.4-.6-.4.3-.4.6m.8 1.7c0 .5.3 1 .6 1 .3.2.5.6.3 1-.1.7 0 .9.5.9l.6-.1c-.1-1.8-2-4.4-2-2.8m-351.3 1.1c-1 2-.8 2.3.1.5.5-.9.8-1.6.7-1.7 0-.1-.5.4-.8 1.2M13.6 124c0 .4-.2.9-.4 1-.2.1-.4.6-.4 1 0 .5.2.8.4.8s.4-.4.4-.9.3-1 .7-1.3c.3-.3.5-.7.3-1-.4-.7-1-.5-1 .4m371.8 1.2c-.3.4.2 1.6.6 1.6.5 0 .5-1.5 0-1.8a.4.4 0 00-.6.2m1 2.5c-.3.5-.3.7 0 .9.6.4.9 0 .7-.8 0-.7-.2-.7-.6-.1m-374.5.7c0 .4.2.8.4.8s.4-.4.4-.8-.2-.8-.4-.8-.4.4-.4.8m375.5 1c-.4.5-.4 1.4 0 1.4.3 0 .4-.4.4-.8 0-.9 0-.9-.4-.5m-376.3.9c0 .4.2.8.4.8s.4-.3.4-.6-.2-.7-.4-.8c-.2-.1-.4.1-.4.6m-.8 2.2c0 .6.2 1 .4 1s.4-.5.4-1-.2-1-.4-1-.4.5-.4 1m377.6-.2c0 .4.2.8.4.8s.4-.4.4-.8-.2-.8-.4-.8-.4.4-.4.8M58 134a89.5 89.5 0 01-3 7.2l-1 2.1-.4 1.3-.4 1.4-.8 1.6c-.2.4-.4 1.1-.4 1.6 0 .4-.2.9-.4 1-.2.1-.4.7-.4 1.3 0 .7.6-.5 1.6-3.1a188 188 0 015-12.7c.6-1.2 1-2.3.8-2.4 0-.1-.3.2-.5.7m-48.2.3c-.4.4-.3 1.7.1 1.7.2 0 .4-.4.4-1 0-1 0-1.2-.5-.7m378.9.5c0 .4.2.8.4.8s.4-.4.4-.8-.2-.8-.4-.8-.4.4-.4.8M9.1 136.7c-.4.4-.3 1.7.1 1.7.2 0 .4-.5.4-1 0-1 0-1.2-.5-.7m380.5.7c0 .6.2 1 .4 1s.4-.5.4-1-.2-1-.4-1-.4.5-.4 1m-349.3 0c-.2.2-.3.6-.3 1s.1.4.4.1c.3-.2.4-.6.3-.9 0-.2-.2-.3-.4-.2m318.9 1.6c0 .3.2.7.4.8.2.1.4 0 .4-.4 0-.3-.2-.7-.4-.8-.2-.1-.4 0-.4.4m31.2 1c0 .4.2.8.4.8s.4-.4.4-.8-.2-.8-.4-.8-.4.4-.4.8M8 140.4c0 .4.2.8.4.8s.4-.4.4-.8-.2-.8-.4-.8-.4.4-.4.8m30.7 1.4c-.2.4-.2.8-.1 1 .4.3.7-.3.5-1-.1-.8-.1-.8-.4 0m352.5.8c0 .6.2 1 .4 1s.4-.4.4-1-.2-1-.4-1-.4.5-.4 1m-384 .4c0 .5.2 1 .4 1s.4-.3.4-.8c0-.4-.2-.9-.4-1-.2-.1-.4.2-.4.8m353.6 0c0 .6.2 1 .4 1.2.5.3.5-.1 0-1.2-.3-.8-.3-.8-.4 0M37 146.9a142 142 0 00-3.9 14l-.7 3.4c-.9 3.7-1.9 10-2.2 13.2-.3 3.4 0 2.3.8-2.6a167.6 167.6 0 017.3-30.7c0-.4-.6.7-1.3 2.7m355-1.6c0 .7.2 1.2.4 1.2s.4-.5.4-1.2-.1-1.2-.3-1.2c-.2 0-.4.5-.4 1.2m-385.7.6c0 .6.2 1 .4 1s.4-.5.4-1-.2-1-.4-1-.4.5-.4 1m355.2-.3c0 .5.2 1 .4 1.1.5.3.5-.1 0-1.2-.3-.8-.3-.8-.4 0m.8 2.7c0 .6.2 1.2.4 1.3.2.1.4.8.4 1.4 0 .6.2 1.3.4 1.4.2.1.4.8.4 1.4 0 .6.2 1.3.4 1.4.2.1.4.9.4 1.6 0 .7.2 1.5.4 1.6.2.1.4.9.5 1.7l.6 3.3c1.1 5.1 2 9.7 2.9 17.2.4 3.4.7 4.7.7 3.5 0-1 0-3.2-.3-4.8l-.9-5.7c-1.3-9.4-6.1-28.7-6.3-25.3m30.4.3c0 .7.2 1.2.4 1.2s.4-.5.4-1.2-.2-1.2-.4-1.2-.4.5-.4 1.2M5.9 148l-.7 2c-.7 1.9-.7 3.3-.1 3.5.4.1.5-.4.5-1.6 0-1 .2-1.9.4-2 .3 0 .4-.7.3-1.3 0-.7-.2-1-.4-.6m371 2.4c0 .3 0 .9.3 1.2.3.5.4.5.4 0l-.4-1.2c-.3-.5-.4-.5-.4 0m16.8 1.6c0 .7.2 1.2.5 1.2.4 0 .5-.4.4-1.2-.1-.7-.3-1.2-.5-1.2s-.4.5-.4 1.2m-45.6.3c.1 1 .7 1.9.8 1 0-.5-.2-1-.4-1.1-.2-.1-.4-.1-.4 0m-297.3.9c-.2.1-.3.6-.3 1 0 .8 0 .8.4 0 .4-1 .3-1.5-.1-1m327 .1c0 .3.1 1 .3 1.4.2.5.3.6.3.2 0-.3-.1-1-.3-1.4-.2-.5-.3-.6-.3-.2M21 154.6c-.1.6-.2 1.2 0 1.3l.4-1c.1-.5.2-1 0-1.2l-.4 1m373.4.6c0 1 .2 1.5.5 1.4.7-.2.8-1.2.1-2.1-.5-.8-.6-.7-.6.7m-45.6-.4c.1 1.2.7 2.2.8 1 0-.6-.2-1.2-.4-1.3-.2-.1-.4 0-.4.3m-345 .2c-.5.5-.2 2.1.4 2.1.4 0 .6-.4.6-1.2 0-1.1-.4-1.5-1-1m45.8 1.7c0 1 .1 1 .4.3.5-1 .5-1.4 0-1.4-.2 0-.4.5-.4 1.1m328.9-.3c0 .3.1 1 .3 1.4.2.5.3.6.3.2 0-.3-.1-1-.3-1.4-.2-.5-.3-.6-.3-.2m-358.3 1.3c-.3 1.6 0 2 .4.3.2-.7.2-1.3 0-1.4 0-.1-.2.3-.3 1m329.3 0c.1 1.3.7 2.3.8 1.1 0-.6-.2-1.2-.4-1.3-.2-.1-.4 0-.4.3M3 159.3c-.3 1.7 0 2.3.7 1.6.3-.3.3-.8 0-1.8l-.4-1.3-.3 1.5m392.4-.7c-.4.8 0 1.9.5 2.1.3.1.5-.3.5-1 0-1.4-.7-2.1-1-1.1m-346.3 0c-.2.2-.3.7-.3 1.2 0 .7 0 .7.4-.2.4-1 .3-1.4-.1-1m330.2 1.2c0 .4.1 1.2.3 1.6.4 1 .4 0 0-1.4-.3-.8-.3-.8-.3-.2m-28.9 1c.1 1.3.7 2.3.8 1.1 0-.6-.2-1.2-.4-1.3-.2-.1-.4 0-.4.3m-302.1.5c-.2.2-.3.8-.3 1.4v1l.4-1c.5-1 .4-1.8-.1-1.4m347.9 1.6c-.4.8 0 1.9.5 2.1.3.1.5-.3.5-1 0-1.4-.7-2.1-1-1.1m-394 0c-.4.5-.3 2.6.2 2.6.2 0 .5-.3.7-.6.3-.8-.4-2.4-.8-2m349 .8c0 1.4.6 2.6.7 1.4 0-.6-.2-1.3-.4-1.6-.3-.5-.4-.5-.4.2m-303.6.3l-.8 4c-2.5 12.5-3 17-3 31.5 0 12 .4 17.4 2.1 27.4a28 28 0 002 7.9 154.6 154.6 0 01-.2-68.3c.2-1 .3-2 .2-2.3-.1-.3-.3-.4-.3-.2m349.4 3.6c-.3 1.5 0 2.3.6 2.3.5 0 .5-2.4 0-3.2-.2-.4-.4-.2-.6.9m-44.8.3c2.2 11.2 2.8 17.7 2.8 31.4a134.8 134.8 0 01-2.8 31.6c-.2.9-.2 1.5 0 1.4a82 82 0 002.2-11.4l.8-6.6c.6-4 .3-28-.3-33a87.4 87.4 0 00-2.7-14.5c-.2-.2-.2.3 0 1.1m28.7 0c0 .8 0 1 .2.7v-1.4c-.1-.4-.2 0-.2.7M1.2 169.4c0 1 .2 1.8.4 1.8s.4-.8.4-1.8-.2-1.8-.4-1.8-.4.8-.4 1.8m16.9-.4c0 .9 0 1.2.2.7V168c-.1-.4-.2 0-.2.9m363.6 4c0 .9 0 1.2.2.7V172c-.1-.4-.2 0-.2.9m16.1.4c-.2 1.1.2 3.4.7 3.4.1 0 .3-1 .3-2.2 0-2.3-.5-3-1-1.2m-380.5.8c0 .9 0 1.2.2.7v-1.6c-.1-.4-.2 0-.2.9M.4 175.4c0 1.2.2 2.2.4 2.2s.4-1 .4-2.2c0-1.2-.2-2.2-.4-2.2s-.4 1-.4 2.2m382.1 3.6c0 1.1 0 1.5.2.9v-2c-.1-.5-.2 0-.2 1.1m-366 1.8c0 1.2 0 1.7.2 1.1a8.9 8.9 0 000-2.2c-.1-.6-.2-.1-.2 1.1m382.3 1.8c0 1.7.2 3 .4 3s.4-1.2.4-2.8c0-1.5-.2-2.9-.4-3-.3-.2-.4.9-.4 2.8m-369.4.3a10 10 0 000 3c.3.3.7-2.4.5-4.1-.1-1.4-.2-1.2-.5 1.1M.1 184c0 1.9.1 2.6.2 1.7v-3.4c0-.9-.2-.2-.2 1.7m15.8 3.3c-.2 1.3-.3 4.5-.2 7 0 4.4 0 4.2.3-2.3.3-7.4.3-8.8-.1-4.8m367.4.8c0 1.9.1 2.6.2 1.7v-3.4c0-.9-.2-.2-.2 1.7m-13.1 11.4c0 7 0 11.6.2 10.2.4-3.4.4-17 0-20.4-.1-1.4-.2 3.2-.2 10.2m-341.5-3.9c-.2 3.2-.1 7.9 0 10.3.3 3.9.4 3.1.4-5.9.1-11.5 0-13.2-.4-4.4m371 .3c0 1.3.1 1.8.2 1v-2.3c0-.6-.2 0-.2 1.3m-16 4c0 1.3.1 1.8.2 1v-2.3c0-.6-.2 0-.2 1.3m16-.2c0 .8 0 1 .2.7v-1.4c-.1-.4-.2 0-.2.7m-384 6c0 3 .1 4.2.2 2.7a63.1 63.1 0 000-5.4c0-1.5-.1-.3-.1 2.7m384-2.2v1c.2-.6.2-1.7 0-2.3s0 0 0 1.3m-16.5 7.8c0 1.9.1 2.6.2 1.7v-3.4c0-.9-.2-.2-.2 1.7m-367.2 1.6c0 1 0 1.4.2.9a5.7 5.7 0 000-1.8c-.1-.5-.2 0-.2.9m-16 2.4c0 1.9.1 2.6.2 1.7v-3.4c0-.9-.2-.2-.2 1.7m29.2-.6c0 .9.1 2.3.3 3.2.3 1.6.3 1.6.3-.6a14 14 0 00-.3-3.2c-.3-.9-.3-.8-.3.6m339.8 4.2a167.2 167.2 0 01-6.7 32c.1 2.5 3.8-11.4 5.6-20.9 1.1-6 2.1-14 2-15.5-.1-.8-.5 1.1-1 4.4m29.7-3.5c-.3 2-.1 2.7.5 2.7.2 0 .4-1 .4-2.4 0-3-.6-3.2-1-.3m-15.7.7c0 .8 0 1 .2.7v-1.4c-.1-.4-.2 0-.2.7m-366.5 2.2c0 1.1.2 2.5.4 3.2.2.7.2 0 .1-1.8-.2-3.4-.5-4.3-.5-1.4m366.1 2.4c0 1.1.1 1.5.2.9v-2c-.1-.5-.2 0-.2 1.1m-352.5.6l.4 3.8.8 4.6c1.3 7 4 18.4 5.2 21.2l.3 1v-1c0-.7 0-1.3-.3-1.4-.2-.1-.4-.8-.4-1.4 0-.6-.2-1.3-.4-1.4-.2 0-.4-.8-.5-1.5a47.9 47.9 0 00-.7-3.1 165.8 165.8 0 01-1.6-7.2 154 154 0 01-1.8-10c-.7-4.8-1-5.5-1-3.6m-29.3.7c-.5.4-.3 4.1.1 4.1.2 0 .4-1 .4-2.2 0-2.2 0-2.4-.5-2m397.1 1.2c-.4 1.2-.2 2.6.4 2.6.4 0 .6-.4.6-1.6 0-1.6-.5-2.1-1-1m-380.5 2c0 .9 0 1.2.2.7V224c-.1-.4-.2 0-.2.9m364.4 1.6c0 .9 0 1.2.2.7v-1.6c-.1-.4-.2 0-.2.9M1.2 229.8c0 1 .2 1.8.4 1.8s.4-.7.4-1.6c0-.8-.2-1.7-.4-1.8-.2-.2-.4.5-.4 1.6m16.9.2c0 .8 0 1 .2.7v-1.4c-.1-.4-.2 0-.2.7m379-1c-.6.6-.3 2.5.3 2.5.4 0 .6-.4.6-1.4 0-1.2-.3-1.6-1-1m-16.1 2.1c0 .8 0 1 .2.7v-1.4c-.1-.4-.2 0-.2.7m-29.5 2.7c-.1.8-.2 1.5 0 1.6.2.3.7-1.7.5-2.4-.1-.3-.3.1-.5.8m-332.5.5c0 .8 0 1 .2.7v-1.4c-.1-.4-.2 0-.2.7m361.4-.3c-.2.5-.3 1.3-.3 1.7 0 .4.2.1.4-.8.4-1.6.3-2.5-.1-1M2 234.8c0 1.7.6 2.4 1 1.2.2-1.1 0-2.3-.6-2.3-.2 0-.4.5-.4 1.1m394 .8c0 .8.2 1.3.3 1 0-.3.3-.4.5-.3.2.1.4-.3.4-1 0-.8-.2-1.2-.6-1.2-.4 0-.6.4-.6 1.5m-348 .9c0 .5.2 1.3.4 1.6.5.8.5-.6 0-1.8-.3-.7-.3-.7-.4.2m-28.5 1l.4 1.8c.3.3 0-1.8-.3-2.6-.3-.6-.3-.3-.1.8m331.2 0c-.2.6-.2 1.2-.1 1.3.3.3.7-1 .5-1.8-.1-.5-.2-.4-.4.4m28.7 1.1c-.2.7-.2 1.3 0 1.4 0 .1.2-.3.3-1 .2-.8.2-1.4.1-1.5l-.4 1.1m16.3-.1c-.3 0-.5.8-.4 1.8 0 1 0 1.3.2.7.1-.7.3-.8.5-.4.3.4.4.1.4-.9l-.1-1.5-.6.3M2.8 239.6c0 1.4.6 2 1 .7.3-1.4.2-1.9-.4-1.9-.4 0-.6.4-.6 1.2m46 0c0 .7.2 1.3.4 1.4.5.3.5-.5 0-1.6-.3-.7-.3-.7-.4.3m301.2.2l-.3 1.2c-.2.5-.1.6.3.2.3-.2.4-.7.3-1.2-.1-.4-.2-.5-.3-.2m28.6 2c-.1.5-.2 1 0 1.2l.4-1c.1-.5.2-1 0-1.2l-.4 1m-329 .8c0 .5.2 1 .4 1.1.5.3.5-.6 0-1.4-.3-.5-.4-.4-.4.3m-46 .7c.1.6.4 1 .6 1 .2 0 .5-.4.5-1 .1-.7 0-1-.5-1s-.6.3-.5 1m345.5-.7l-.3 1.2c-.2.5-.1.6.3.2.3-.2.4-.7.3-1.2-.1-.4-.2-.5-.3-.2m45.2.5c0 1 1 .9 1.1-.1.1-.4-.1-.7-.5-.7-.3 0-.6.3-.6.8m-373.5.4c0 .3.1 1 .3 1.4.2.5.3.6.3.2 0-.3-.1-1-.3-1.4-.2-.5-.3-.6-.3-.2m29.5 1.7c0 .6.2 1.2.4 1.3.2.1.4.7.4 1.2s.2 1 .4 1.2c.2.1.4.7.4 1.2s.2 1 .4 1.2c.2.1.4.6.4 1 0 .5.2 1.1.4 1.5l.7 1.7 1.7 4.1c1.3 3.2 3.6 8 3.8 7.8.1 0-.2-1-.8-2.1a93.5 93.5 0 01-1.5-3.4l-1.4-3.2c-.8-1.9-1.3-3-3.7-10.2-1-2.6-1.6-4-1.6-3.3m297.9.4c-.2.7-.2 1.3-.1 1.4.3.3.7-1 .5-1.8-.1-.5-.2-.4-.4.4m45.8.2c-.6.2-.7 1.7-.1 1.7.1 0 .4-.4.5-.9.3-1 .3-1-.4-.8m-389.7.7c0 .8.4 1.8.8 1.8.2 0 .4-.5.4-1.2 0-.8-.2-1.2-.6-1.2-.3 0-.6.3-.6.6m342.9 2.4a154.8 154.8 0 01-3.4 8.9l-.7 1.9-2 4.4c-.9 2-1.5 3.6-1.4 3.7.2.2 3.4-6.7 4.6-9.7l1.6-3.9a3.9 3.9 0 00.4-1.5c0-.4.2-.9.4-1 .2-.1.4-.7.4-1.1 0-.5.2-1.1.4-1.4.3-.2.4-.7.3-1.1 0-.5-.3-.2-.6.8M5.5 250.2c.1.8.3 1.4.5 1.4.6 0 .5-2.3-.1-2.5-.4-.2-.5.2-.4 1.1m387.3-.2c0 .4.2.8.4.8s.4-.4.4-.8-.2-.8-.4-.8-.4.4-.4.8m-356 2.3c.1 1.2.7 1.8.8.8 0-.6-.2-1.1-.4-1.1s-.4.1-.4.3m325 0l-.2 1c0 .8 0 .8.4 0 .4-1 .3-1.5-.1-1M6.4 253.4c0 .6.2 1 .4 1s.4-.5.4-1-.2-1-.4-1-.4.5-.4 1m385.6-.2c0 .4.2.8.4.8s.4-.4.4-.8-.2-.8-.4-.8-.4.4-.4.8m-354.4 1.5c.1 1 .7 1.9.8 1 0-.5-.2-1-.4-1.1-.2-.1-.4-.1-.4 0m-30.4 1.8c0 .7.2 1.2.4 1.2s.4-.5.4-1.2-.2-1.2-.4-1.2-.4.5-.4 1.2m384-.4c0 .4.2.8.4.8s.4-.4.4-.8-.2-.8-.4-.8-.4.4-.4.8M8 259c0 .5.2 1 .4 1s.4-.3.4-.8c0-.4-.2-.9-.4-1-.2-.1-.4.2-.4.8m382.4-.4c0 .3.2.6.4.6s.4-.3.4-.6-.2-.6-.4-.6-.4.3-.4.6m-381.6 3c0 .4.2.8.4.8s.4-.4.4-.8-.2-.8-.4-.8-.4.4-.4.8m349.8-.2a151.5 151.5 0 01-3.8 9.3c0 .3-.2.5-.4.5s-.4.2-.4.5-.9 2.3-2 4.5-2 4-1.8 4.1A120.9 120.9 0 00359 261c-.2-.1-.4.1-.5.5m-317.8 1.7l.4 1.2 1 2.1c2.4 5.8 5.9 12.9 6.1 12.6.1 0-.8-2.2-2-4.7l-3.7-7.9c-1.5-3.6-1.8-4-1.8-3.3m-31.2 1.1c0 .6.2 1 .4 1s.4-.5.4-1-.2-1-.4-1-.4.5-.4 1m379-.4c0 .4 0 .6.4.6.3 0 .6-.3.6-.6s-.2-.6-.4-.6-.4.3-.5.6m-378 2c-.4.5-.3 1.8.1 1.8.2 0 .4-.5.4-1 0-1 0-1.2-.5-.7m377.2 0c-.5.5-.3 1.3.3 1 .3 0 .6-.4.6-.7 0-.6-.5-.8-1-.3m-17.7 2.8a9.3 9.3 0 00-.7 2.4l1-2.1c.5-1.2.8-2.3.7-2.4l-1 2.1m-358.9.3c0 .6.2 1 .4 1s.4-.5.4-1-.2-1-.4-1-.4.5-.4 1m375.9-.7c-.2.1-.3.6-.3 1 0 .7 0 .7.6.2.3-.4.6-.8.6-1 0-.6-.5-.6-1-.2m-49.2 2.9c-.3.6-.5 1.2-.3 1.2.4 0 1.4-2 1.1-2.3l-.8 1M12 271c0 .3.2.6.4.6s.4-.3.4-.6-.2-.6-.4-.6-.4.3-.4.6m374 0c0 .3.3.6.6.6s.6-.3.6-.6-.3-.6-.6-.6-.6.3-.6.6m-355.4 1.7c.6 1.4 1 2 1 1.6a11 11 0 00-1.4-3.1c-.1 0 0 .7.4 1.5m30.6-1c0 .4.1.7.3.8a100.2 100.2 0 006.7 11.2l6.8 9.8c6.7 8.3 7.9 9.7 8.4 9.7a181.5 181.5 0 01-20.6-29.5c-1.2-2.5-1.6-3-1.6-2m324.5.6c-.3 0-.5.6-.5 1.1 0 .6-.2 1-.4 1s-.4.5-.4 1-.2 1-.4 1-.4.3-.4.6.3.6.6.6c.4 0 .6-.4.6-1s.2-1 .4-1 .4-.5.4-1.2c0-.6.2-1.2.5-1.3.2 0 .3-.3.3-.6-.1-.2-.4-.3-.7-.2m-372.9.9c0 .4.2.8.4.8s.4-.4.4-.8-.2-.8-.4-.8-.4.4-.4.8m321.2 4.9a160.5 160.5 0 01-17.4 24.3c.3 0 1.8-1.5 3.6-3.8a87.3 87.3 0 013.4-4.3l.5-.8c.3-.3 1-1.1 1.5-1.9l1.2-1.6a127.8 127.8 0 008.4-12.9 5 5 0 011-1.6.6.6 0 00.1-.7c0-.2-1 1.3-2.3 3.3m-320.4-2.7c0 .7.9.6 1.1-.1.1-.3-.1-.5-.5-.5a.6.6 0 00-.6.6m.9 2c.2.9.9 1 1 .1.1-.4 0-.7-.5-.7-.4 0-.6.3-.5.6m368.3 1.4c0 .2.3.4.6.5.4.2.6 0 .6-.3a.6.6 0 00-.6-.6c-.3 0-.6.2-.6.4m-367.3.6c0 .3.3.6.5.6s.4-.3.4-.6-.3-.6-.6-.6-.5.2-.3.6m33.9 2.1c1 2 2.2 3.7 2.2 3.2 0-.2-.3-.9-.7-1.4l-1.3-2.4c-.3-.7-.7-1.3-.9-1.3-.2 0 .1.9.7 1.9m-33.1-.8c-.3.3 0 .9.5.9.2 0 .4-.3.4-.6 0-.6-.5-.8-1-.3m365.8.3c0 .3.2.6.4.6s.4-.3.4-.6-.2-.6-.4-.6-.4.3-.4.6m-33 .8a205.3 205.3 0 01-12.2 19 43.5 43.5 0 01-2 2.6 140.5 140.5 0 00-1.6 2 227 227 0 01-6.1 7.3l-1.6 1.8-4.4-4.4c-2.5-2.4-3.6-3.3-2.5-2.1l4.5 4.6 2.6 2.4 1.6-1.8c7.6-8.5 14.8-18.5 20.8-28.8 1.8-3 2.5-5 1-2.6m-331.8 1.4c0 .4.2.7.4.5.4-.2.4-1.3 0-1.3-.3 0-.4.3-.4.8m.7 1.4c0 .3.4 1.2.8 2s.8 1.7.8 2c0 .3.2.6.4.6s.4.4.4.8.1.8.3.8c.4 0 1.3 2 1.3 2.7 0 .3.2.5.4.5s.6.6.9 1.4c.5 1.4 1.1 1.9 1.1.8 0-.3-.2-.6-.4-.6s-.4-.4-.4-.8-.2-.8-.4-.8-.4-.4-.4-.8-.2-.8-.4-.8-.4-.4-.4-.8-.2-.8-.4-.8-.4-.4-.4-.8-.2-.8-.4-.8-.4-.4-.4-.8-.2-.8-.4-.8-.4-.4-.4-.8-.2-.8-.4-.8-.4-.5-.4-1-.2-1-.4-1-.4.3-.4.6m33.6.8l.8 1.4a188 188 0 0020.2 27.5c1.1 1.3 1.4 1.2 4.4-2l5.2-5.4c2-2 2.3-2.6 1.8-3a63 63 0 01-10.2 10.5c-.4 0-3.3-3-5.2-5.5a74.7 74.7 0 00-2-2.5l-3.4-4.2a423.5 423.5 0 00-2.5-3.4 14 14 0 01-1-1.7c-.4-.6-.8-1.1-1-1.1l-.7-1.2c-.3-.7-.7-1.2-.8-1.2a73.3 73.3 0 00-5.2-8.2c-.3-.2-.4-.2-.4 0m327.2 2.4c0 .3.2.6.4.6s.4-.3.4-.6-.2-.6-.4-.6-.4.3-.4.6m-340.8 0l.8 1.4c.6.7.7.7.4.2-.6-1.3-1.2-2-1.2-1.6m322.3 1.5l-.8 1.3.9-1c.7-.9 1-1.6.7-1.6 0 0-.5.6-.8 1.3m-320.7 1.3l.8 1.4c.6.7.7.7.4.2-.6-1.3-1.2-2-1.2-1.6m337.6.7c-.3.6-.7 1.1-.9 1.1-.1 0-.3.4-.3.8s-.2.8-.4.8-.4.4-.4.8-.1.8-.3.8c-.2 0-.6.6-.9 1.4-.3.8-.7 1.4-.8 1.4-.2 0-.4.3-.6.7a15.7 15.7 0 01-.4 1.2c-.2.3 0 .5.4.5.3 0 .6-.3.6-.8 0-.4.2-.8.4-.8s.4-.4.4-.8c0-.5.2-.7.4-.6.2.1.4-.1.4-.6 0-.4.2-.8.4-.8s.4-.4.4-.8.2-.8.4-.8.4-.4.4-.8.2-.8.4-.8.4-.3.4-.8c0-.4.2-.8.5-.9.2 0 .3-.4.2-.7-.1-.4-.3-.3-.7.5m-18.5.8l-.8 1.3.9-1c.7-.9 1-1.6.7-1.6 0 0-.5.6-.8 1.3m-2.4 3.8c-1.2 1.9-2 3.3-1.8 3.3a5 5 0 001-1.3 73.2 73.2 0 011.5-2.4c.4-.6.6-1.1.5-1.1l-1.2 1.5m-313 .7c.4.9 1 1.8 1.2 2 .6.6-.8-2-1.5-2.8-.4-.4-.3 0 .2.8m-18.8 1.2c0 .4.2.6.4.5.3 0 .5-.3.5-.5s-.2-.4-.5-.5c-.2-.1-.4.1-.4.5m.8 1.2l1 1.8c1 1.5 1.8 2 1.8 1.2 0-.2-.2-.4-.4-.4s-.4-.4-.4-.8-.2-.8-.4-.8-.4-.3-.4-.6-.3-.6-.6-.6-.6 0-.6.2m346 2.8c0 .3.2.6.4.6s.4-.3.4-.6-.2-.6-.4-.6-.4.3-.4.6m-19.6 1.4c-.5.7-.8 1.3-.7 1.4l1-1.2c1.1-1.7.9-1.8-.3-.2M48 304c1.2 1.8 1.2 1.8 1.2 1.4 0-.2-.5-1-1-1.6l-1-1.2.8 1.4m267.5-.5c-.7.7-.7.8.2 1.5.8.8.8.8.3 0s-.5-1 0-1.6c.7-.8.3-.8-.5.1m-287.5.1c0 .2.1.4.3.4.2 0 .6.6.9 1.4.4 1 .7 1.3 1 1 .3-.4.3-.6-.1-.7-.3 0-.5-.4-.5-.8 0-.5-1-1.7-1.4-1.7l-.2.4m2.4 4c0 .5 1 1.6 1.4 1.6.4 0 .2-.9-.4-1.4-.7-.7-1-.8-1-.2m317.2 1.2l-.7 1.2c.2 0 .6-.5 1.1-1.2l.7-1.2c-.2 0-.6.5-1.1 1.2m18 1.9a57.3 57.3 0 01-3.2 4.6c-.3.6-.7 1.1-.9 1.1-.2 0-.3.2-.3.4s.3.4.6.4c.4 0 .6-.4.6-.9 0-.7 0-.8.4-.3.3.5.4.5.4-.2 0-.5.4-1 .8-1.4.4-.3.8-.9.8-1.2 0-.3.4-.9.8-1.2.4-.3.8-.8.8-1.1 0-.3.4-1 .8-1.4.7-.7 1-1.9.6-1.9l-2.2 3.1M52 309.6l1 1.2c.2 0-.1-.5-.6-1.2l-1-1.2c-.2 0 .1.5.6 1.2m-20 .4c0 .7 1.2 1.7 1.5 1.4.2-.2 0-.4-.2-.5a.8.8 0 01-.5-.7c0-.3-.2-.6-.4-.6s-.4.2-.4.4m312.8 2.5c-.8 1-1 1.4-.7 1.1.8-.5 2.5-2.8 2.2-2.8l-1.5 1.7m-311.2-.3c0 .6 1.2 2 1.4 1.7.2-.1-.1-.7-.6-1.1-.4-.5-.8-.8-.8-.6m2 2.6c-.2.3.2 1 .7 1.5.8.8 1.7 1.2 1.7.7 0-.4-1.1-1.4-1.5-1.4-.3 0-.5-.3-.6-.7-.1-.6-.2-.6-.3-.1m306.2 1.5c-.9 1-1.4 1.7-1.1 1.6.5-.4 3-3.5 2.8-3.5-.1 0-.9.8-1.7 1.9m-252.3 3.6a52 52 0 00-5.1 5.5c0 .7 9.9 9 15 12.7a274 274 0 0012 7.9 198.4 198.4 0 012.7 1.6c.8.5 1.5.7 1.5.4a75.3 75.3 0 01-11.3-7.2c-.3 0-1-.4-1.4-.8-.5-.4-1-.8-1.3-.8a.4.4 0 01-.4-.4c0-.2-.2-.4-.4-.4s-.7-.3-1-.6a317 317 0 00-7-5.5 52.2 52.2 0 00-2.4-1.9l-3.2-2.7c-1-1-2-1.7-2.1-1.7-.8 0 0-1 4.7-5.7 5.8-5.9 5-5.4 6.7-3.8A159.3 159.3 0 00111 328a93.5 93.5 0 0014.2 8.9c0 .2.3.3.8.3.4 0 .8.2.9.5 0 .2.4.3.7.2.2 0-1.3-1-3.5-2.3a96.6 96.6 0 01-8.7-5.2c-.5 0-12-8.5-15-11a1119.1 1119.1 0 01-3.1-2.7c-2.7-2.4-1.9-2.7-7.8 3.2m214.3-4.7c-.2.3-.2.4.1.3.5-.3 10.5 9.2 10.5 10 0 .2-.8 1-1.8 2a103.7 103.7 0 00-2.8 2.3l-2.3 1.9-2 1.6a220.8 220.8 0 01-7 5.7c.3.3 9.3-6.7 15.6-12.3 1.4-1.3 1.8-.7-4.1-6.6-5.6-5.5-5.8-5.6-6.2-4.9m-246.6 1c1.2 1.6 3.6 4.2 3.6 3.9 0-.2-1-1.3-2.1-2.5-1.2-1.2-1.8-1.9-1.5-1.4m245.4-.3c-.1.3-1.9 1.8-4 3.5-4.5 3.8-4.1 3.5-8.3 6.6-2 1.4-3.4 2.6-3.3 2.8.2 0 .4 0 .5-.3 0-.3.4-.5.7-.5.3 0 .6-.2.6-.4s.3-.4.6-.4.6-.1.6-.3c0-.2.5-.6 1.2-1l1.7-1.2 3.5-2.8c3.7-2.8 7-5.8 6.7-6.1-.1-.2-.3 0-.5.1M38 318.5c0 .3.4.8 1 1.3.5.4.9.9.8 1-.1.2 0 .4.2.4s.4.2.4.4c0 .6 2 2.5 2.3 2.2l-.6-1c-.5-.4-.9-.9-.9-1.1 0-.3-.2-.5-.4-.5s-.4-.3-.4-.6-.2-.6-.4-.6-.4-.2-.4-.4c0-.5-1-1.6-1.4-1.6-.1 0-.2.2-.2.5m321.3.9c-.3.3-.5.7-.5 1l-1 1.2c-.6.6-1.5 1.6-2 2.4-.5.8-1.6 2-2.4 2.9-.8.8-1.4 1.6-1.4 1.7l-.8 1c-.9 1-.8 1.6.1.9.3-.3.7-.4.8-.2.2.1.3-.1.3-.5 0-.5.4-1 .8-1.4.4-.3.8-.8.8-1.1 0-.3.7-1.3 1.6-2.1.9-.8 1.6-1.8 1.6-2.2 0-.4.2-.5.4-.4.2.1.4 0 .4-.2 0-.3.3-.8.7-1.2 1-.7 1.9-2.4 1.4-2.4-.2 0-.5.3-.8.6m-22.5 2.7c-1.4 1.6-2 2.5-1.4 1.9 1.1-1 4.4-4.8 4.1-4.8l-2.7 2.9m-273.3 1.3a218.8 218.8 0 0010.4 10.3 342.9 342.9 0 01-8.6-8.6c-2.3-2.5-3.1-3.2-1.8-1.7M42.8 325l1.8 2c1 1 1.6 1.8 1.5 2s0 .2.2.2c1 0 .5-.8-1.3-2.6-1.7-1.7-2.2-2-2.2-1.6m240 6a175 175 0 01-6.8 4c-1.8 1.1-3.1 2-2.8 2.1.3.1.6 0 .7-.2.2-.1 1-.7 1.9-1.1 2.7-1.4 4.5-2.5 7.5-4.5 3.5-2.2 3.3-2 3-2.2l-3.5 2m-235.7-1.2c-.2.1 1 1.5 2.5 3 3.7 3.6 4.1 3.2.5-.5-1.5-1.5-2.9-2.7-3-2.5m300.1 4.2a216.4 216.4 0 01-14.4 14.5c0 .7 1.2-.2 4.4-3.4 2-2 3.8-3.6 4-3.5.4 0 .6-.1.5-.4 0-.3 1.5-2.1 3.5-4.1 3.3-3.2 4.1-4.4 3.3-4.4-.2 0-.7.6-1.3 1.3m-25.4 3c-2.7 2.6-2.8 2.6-.4.6 2.3-2 3.7-3.3 3.3-3.3l-2.9 2.7m-241.5 2.6c2.5 2.2 3.2 2.6 1.1.6-1.1-1-2.1-1.9-2.3-1.9-.2 0 .4.6 1.2 1.3m-24.8-.6c-.3.2 4 4.5 4.5 4.5.2 0-.2-.6-.9-1.3-2.1-2.3-3.4-3.4-3.6-3.2m241 .8c-.4.4-1.2 1-1.8 1.3-.6.3-1.1.7-1.1.9 0 .1-.2.3-.4.3l-3.1 1.7a245.2 245.2 0 01-3.8 2.5c-.7.4-1 .8-1 .9l2-1 2-1.3a94 94 0 008.7-5.8c0-.4-.7-.2-1.4.5m-30.8.5a146 146 0 01-15.6 6.3c-2.3.8-3 1.1-2.2 1.2.5.1 1 0 1.1-.3.1-.2.6-.4 1.1-.4.5 0 1-.2 1.2-.4.1-.2.7-.4 1.1-.4.5 0 1.1-.1 1.3-.3a88.3 88.3 0 0010.4-4.4c3.7-1.7 3.6-1.7 3.4-1.9-.1 0-1 .2-1.8.6m51.4.7l-1 1.1 1.2-1 1.4-1.1-.3-.1c-.2 0-.8.5-1.3 1.1m-182.4.3a232.6 232.6 0 017.6 3.4l1.2.4 1.6.8c.4.2 1.1.4 1.6.4.4 0 .9.2 1 .4.1.2.7.4 1.2.4s1 .2 1 .4c.2.3.7.4 1.2.3.7 0 .1-.4-2.2-1.2-3.6-1.2-8.5-3-11.7-4.5-2.2-1-2.5-1.1-2.5-.8m-72 4.4c0 .4 6 6.2 6.4 6.2.3 0-1-1.4-2.7-3.2-3.1-3-3.7-3.5-3.7-3m25.6.3c0 .2.5.6 1.2 1.1l1.2.7c0-.2-.5-.6-1.2-1.1l-1.2-.7m219.7 2c-1 .6-1.7 1.2-1.7 1.3 0 .1.8-.3 1.8-1l1.8-1.4c0-.3 0-.3-1.9 1m-24.9.4c-.5.4-.8.8-.6.8l1.4-.8c.6-.4.8-.8.6-.8l-1.4.8m-130.6 0c.1.2.7.4 1.3.4 1.2 0 1.1-.2-.4-.6-.8-.1-1 0-1 .2m92.9 0c-.8.3-.8.3 0 .4.6 0 1-.2 1.2-.4.3-.5-.1-.5-1.2 0m-129.4.2l2 1.2c1.1.6 2 .9 2 .7 0-.2-.8-.7-1.7-1a260.9 260.9 0 01-2-1h-.3m39.2.7c0 .2.5.4 1.1.4 1 0 1 0 .3-.4-1-.5-1.4-.5-1.4 0m87.4 0c-.7.3-.7.3.3.4.6 0 1.1-.2 1.1-.4 0-.5-.3-.5-1.4 0m-149.8.2l1.8 1.4c1 .7 1.8 1.1 1.8 1a9 9 0 00-1.8-1.4c-1-.7-1.8-1.1-1.8-1m187.7.3c-.5.3-.9.6-.9.8 0 .2.5 0 1.2-.3s1.2-.7 1.2-.8c0-.3-.5-.2-1.5.3m-122.3.3c.1.2.6.4 1.1.4.9 0 .9 0 .1-.4-1.1-.5-1.5-.5-1.2 0m81.6 0c-.8.3-.8.3 0 .4.6 0 1-.2 1.2-.4.3-.5-.1-.5-1.2 0m-78.8.8c.1.2.7.4 1.3.4 1 0 1 0 .3-.4-1.1-.5-1.9-.5-1.6 0m75.6 0c-.7.3-.7.3.3.4.6 0 1.2-.2 1.3-.4.3-.5-.5-.5-1.6 0m64.3 2.2c-3.4 2.3-5.2 3.6-3.7 2.8 2-1.1 7.1-4.6 7.4-5 .3-.5.5-.7-3.7 2.2m28.8-1.8l-1 .8c-.2 0-1 .6-1.8 1.4-.8.8-2.1 1.9-2.9 2.4-.8.5-1.8 1.4-2.4 2-.5.5-1.1 1-1.3 1-.4 0-1.5 1-1.5 1.4 0 .4 1.7-.7 2.4-1.5.4-.4 1-.7 1.2-.7.2 0 .3-.2.2-.4-.1-.2 0-.4.4-.4s1.4-.7 2.2-1.6c.8-.9 1.8-1.6 2-1.6.4 0 .9-.4 1.2-.8.3-.4 1-.8 1.4-.8.6 0 .7-.1.3-.4-.5-.2-.5-.4.1-.7.5-.3.7-.5.6-.7-.2 0-.6.2-1.1.6m-209.3-.2a148.5 148.5 0 0020.3 8.9c.1-.2-.1-.4-.5-.5A143.6 143.6 0 01127 354c-.3 0-.6-.2-.6-.4s-.4-.4-.8-.4-.8-.2-.8-.4-.4-.4-.8-.4-.8-.2-.8-.4-.3-.4-.8-.4c-.4 0-.9-.2-1-.4-.3-.4-1-.6-1-.2m154 1.8a140.5 140.5 0 01-12.2 5.4c-1 .3-1.8 1-1 1l1.1-.4 4.5-1.9c3.2-1.3 12.6-6 12-6-.3 0-2.3.8-4.4 1.9m-110-1.2c.3.2 1 .4 1.6.4 1 0 1 0 .2-.4-1.2-.5-2.6-.5-1.8 0m68.6 0c-.7.3-.7.3.2.4.6 0 1.3-.2 1.6-.4.8-.5-.6-.5-1.8 0m-65.8.5a197 197 0 0018.4 3c4.4.6 23.6.6 28 0a197 197 0 0018.4-3c.2-.2-.7-.1-5 .7-8.3 1.6-16.3 2.2-27.4 2.2s-19-.6-27.4-2.2c-4.3-.8-5.2-1-5-.7m-95.7 2c1 .8 1.9 1.5 2 1.3.3-.3-2.5-3-3.2-3-.3 0 .3.7 1.2 1.6m30.1 1.4s.5.5 1.2.8l1.2.4s-.5-.5-1.2-.8l-1.2-.4m-26.4 1.2c0 .5 3 3 3.4 3 .2 0 .7.4 1 .8.5.7 1.6 1.1 1.6.6 0-.4-1.1-1.4-1.6-1.4-.2 0-.4-.2-.4-.4s-.2-.4-.5-.4-1.1-.5-1.8-1.2c-1.3-1.2-1.7-1.4-1.7-1m218.1 1.2c-1 .6-1.7 1.1-1.7 1.3a13 13 0 003.4-2c.7-.6 0-.3-1.7.7m-186.1 1l1.4.8c.4 0-.3-.6-1.6-1.2-.5-.3-.5-.2.2.4m2.8 1.6l1.4.8c.4 0-.3-.6-1.6-1.2-.5-.3-.5-.2.2.4m177.4.8c-.7.4-1 .8-.8.8.4 0 2.6-1.6 2.2-1.6l-1.4.8m-143.6 0c1.1.5 1.5.5 1.2 0-.1-.2-.6-.4-1.1-.4-.9 0-.9 0-.1.4m-62.4.4c-.1.2 0 .4.2.4.3 0 .9.4 1.4.9.8.8 1.8 1.3 1.8 1 0-1.1-3-3-3.4-2.3m235 0c0 .1-.5.5-1.1.8a28.5 28.5 0 00-7.7 5.4c0 .5 1.2.1 2-.6.4-.4 1-.8 1.3-.8.3 0 .8-.4 1.1-.8.3-.4.9-.8 1.2-.8.3 0 .9-.4 1.2-.8.3-.4 1-.8 1.4-.8.7 0 .7 0 .2-.4-.5-.3-.4-.4.3-.4.5 0 .9-.2.9-.6 0-.3-.2-.6-.4-.6s-.4.2-.4.3m-170.2.5c1.1.5 1.5.5 1.2 0-.1-.2-.6-.4-1.1-.4-.9 0-.9 0-.1.4m105.8 0c0 .5.3.5 1.4 0 .7-.3.7-.3-.3-.4-.6 0-1.1.2-1.1.4m-101.8 1.3c2.7.8 12 3.2 15.4 3.9l4.2.8a119.4 119.4 0 0011.2 1.6c1.4.2 3.4.4 4.6.4 1.5 0 .4-.3-3.6-.8-7.9-1-10.4-1.4-17.6-2.8a96.8 96.8 0 00-3.7-.7c-.8 0-1.6-.3-1.7-.5-.1-.2-.9-.4-1.6-.4-.7 0-1.5-.2-1.6-.4-.1-.2-.8-.4-1.4-.4-.6 0-1.3-.2-1.4-.4-.1-.2-.8-.4-1.4-.4-.6 0-1.3-.2-1.4-.4-.1-.2-.7-.4-1.3-.4-.8 0-.4.3 1.3.9m99.2-.5c-.3.5.5.5 1.6 0 .7-.3.7-.3-.3-.4-.6 0-1.2.2-1.3.4m-2.8.8c0 .2-.8.4-1.5.5l-3.1.7a192 192 0 01-24 4.3c-3.4.4-5.7.8-5 .8a80.8 80.8 0 0016.6-2 62.1 62.1 0 007.8-1.5c4-.8 11-2.7 11.3-3 .2-.1-.2-.2-.8-.2-.6 0-1.2.2-1.3.4m-161.4.5c0 .3.4.7.8 1 1 .6 1 .2.2-.8-.6-.8-1-.9-1-.2m2.4 1.7c0 .4 1.1 1.4 1.6 1.4.6 0 .5-.4-.3-1-.7-.6-1.3-.7-1.3-.4m2.4 1.6c0 .4 1.1 1.4 1.6 1.4.6 0 .5-.3-.2-1-.5-.6-1.4-.8-1.4-.4m180.9 1.6c-.7.3-1.3.7-1.3.8 0 .2 2.8-.9 3.1-1.2.4-.4-.5-.1-1.8.4m-178.5.1c0 .2.6.6 1.3.9.7.3 1.4.7 1.6 1 .1.2.4.3.5.1.4-.4-.8-1.5-1.6-1.5-.3 0-.6-.2-.6-.4s-.3-.4-.6-.4-.6.1-.6.3m102 1.4c3.4.2 7.5.2 10.7 0 4.8-.4 4.4-.4-5.5-.4-10.2 0-10.4 0-5.1.4m70.5 1c-1.6.7-.6.7 1 0 .8-.4 1.1-.7.8-.7l-1.8.6m-167.9.6c.5.4 1.1.8 1.4.8.4 0 .7.3.8.6.2.3.5.6.7.6.2 0 .4-.3.4-.6s-.3-.6-.6-.6-.6-.2-.6-.4-.4-.4-.8-.4-.8-.2-.8-.4-.3-.4-.7-.4c-.5 0-.5.1.2.8m204.1-.4c0 .2.3.4.6.4s.6-.2.6-.4-.3-.4-.6-.4-.6.2-.6.4m-1.8 1l-1 .6c-.1.2-.8.5-1.5.8-.7.3-1.3.7-1.3.9 0 .2-.4.3-.8.3s-.8.2-.8.4-.3.4-.6.4a2 2 0 00-1.1.4l-1.3 1c-.7.5-.7.6-.1.6.4 0 .7-.2.7-.4s.4-.4.8-.4.8-.2.8-.4.4-.4.8-.4.8-.2.8-.4.4-.4.8-.4.8-.2.8-.4.4-.4.8-.4c.5 0 .7-.2.6-.4-.1-.2.1-.4.6-.4.4 0 .8-.2.8-.4s.4-.4.8-.4.8-.3.8-.6c0-.7-.3-.7-1.4 0M100.8 374c0 .3.6.8 1.4 1.1.8.3 1.4.7 1.4.9 0 .2.2.3.5.3.8 0 2.7 1 2.7 1.3 0 .2.3.3.6.3s.6-.2.6-.4-.3-.4-.6-.4-.6-.2-.6-.4-.4-.4-.8-.4-.8-.2-.8-.4-.3-.4-.8-.4c-.4 0-.8-.3-1-.6a.6.6 0 00-.7-.4c-.3.1-.7 0-.8-.4-.3-.7-1.1-.8-1.1 0m143.4 3.8c-.5.2-.6.3-.2.3.3 0 1-.1 1.4-.3.5-.2.6-.3.2-.3-.3 0-1 .1-1.4.3m-135.8.4c0 .2.3.4.6.4s.6-.2.6-.4-.3-.4-.6-.4-.6.2-.6.4m49 .4c.4.2 1 .3 1.4.3.4 0 .3 0-.2-.3-.4-.2-1-.3-1.4-.3-.4 0-.3 0 .2.3m-47.4.4c0 .2.4.4.8.4s.8.2.8.4.4.4.8.4.8.2.8.4.4.4 1 .4 1 .2 1 .4.4.4.8.4.8.2.8.4.4.4.8.4.8-.2.8-.4c0-.3-.3-.4-.6-.3-.4.2-.7 0-.9-.3 0-.3-.5-.6-1-.6-.4 0-.7-.2-.7-.4s-.5-.4-1-.4-1-.2-1-.4-.4-.4-.8-.4-.8-.2-.8-.4-.4-.4-.8-.4-.8.2-.8.4m177.2 0c0 .2.3.4.6.4s.6-.2.6-.4-.3-.4-.6-.4-.6.2-.6.4m-50.2.4c-1 .4 0 .4 1.4 0 .8-.3.8-.3.2-.3-.4 0-1.2.1-1.6.3m-4 .8c-.6.3-.3.3.8.1l1.8-.4c.3-.3-1.8 0-2.6.3m-64.5.7h1.4c.4-.1 0-.2-.7-.2s-1 0-.7.2m61.2 0h1.4c.4-.1 0-.2-.7-.2s-1 0-.7.2m-56.2.8h1.6c.4-.1 0-.2-.9-.2s-1.2 0-.7.2m50.8 0a5.7 5.7 0 001.8 0c.5-.1 0-.2-.9-.2s-1.4 0-.9.2m56.1.5c0 .2.3.4.6.4s.6-.2.6-.4-.3-.4-.6-.4-.6.2-.6.4m-100.7.3a8.9 8.9 0 002.2 0c.6-.1.1-.2-1.1-.2-1.2 0-1.7 0-1.1.2m38 0a8.9 8.9 0 002.2 0c.6-.1.1-.2-1.1-.2-1.2 0-1.7 0-1.1.2m-98.4.5c0 .3.3.5.5.5s.4-.2.5-.5c.1-.2-.1-.4-.5-.4s-.6.2-.5.4m65.8-.1h1.6c.4-.1 0-.2-.9-.2s-1.2 0-.7.2m28 0h1.6c.4-.1 0-.2-.9-.2s-1.2 0-.7.2m65.3.3c0 .3.3.6.6.6s.5-.2.3-.6c0-.3-.3-.6-.5-.6s-.4.3-.4.6M120.8 384c0 .2.3.4.6.6 1 .3 1 .3 1-.4 0-.3-.4-.6-.8-.6s-.8.2-.8.4m155.6 0c0 .2-.5.4-1 .4s-1 .2-1 .4-.4.4-1 .4c-.5 0-1 .3-1.1.6-.2.4 0 .6.3.6s.6-.2.6-.4.5-.4 1.2-.4 1.2-.2 1.2-.4.4-.4 1-.4 1-.2 1-.6c0-.3-.3-.6-.6-.6s-.6.2-.6.4m-153.3.7c-.4.3 0 .9.7.9a.6.6 0 00.6-.6c0-.6-.8-.8-1.3-.3m1.9.9c-.1.2 0 .5.4.7.8.2 1.2 0 .8-.7-.3-.5-.9-.5-1.2 0m2.6 1c-.4.5-.4.6.4.6.4 0 .8-.2.8-.4 0-.7-.7-.8-1.2-.2m142.8 0c0 .3.3.6.6.6s.6-.3.6-.6-.3-.6-.6-.6-.6.3-.6.6m-2.1.5c-.4.4-.4.9.1.9.3 0 .7-.3 1-.6.6-.5.6-.6-.1-.6-.4 0-.9.1-1 .3m-138.8.4c-.2.2.1.4.5.4.5 0 .8-.1.8-.3 0-.5-1-.5-1.3 0m136.4.3c-.5.4-.3.9.3.9.3 0 .6-.3.7-.6.3-.6-.5-.8-1-.3m-134.3.5c0 .2.4.4.8.4s.8-.2.8-.4-.4-.4-.8-.4-.8.2-.8.4m132.1.3c-.7.2-.6.9.1.9.3 0 .6-.3.6-.6l-.1-.6-.6.3m-129.7.5c0 .2.4.4.8.4s.8-.2.8-.4-.4-.4-.8-.4-.8.2-.8.4m2.4.8c0 .2.5.4 1 .4s1-.2 1-.4-.5-.4-1-.4-1 .2-1 .4m124.4 0c0 .2.3.4.6.4s.6-.2.6-.4-.3-.4-.6-.4-.6.2-.6.4m-121.6.8c0 .2.4.4.8.4s.8-.2.8-.4-.4-.4-.8-.4-.8.2-.8.4m118.8 0c0 .2.3.4.6.4s.6-.2.6-.4-.3-.4-.6-.4-.6.2-.6.4m-116.4.8c0 .2.5.4 1 .4s1-.2 1-.4-.5-.4-1-.4-1 .2-1 .4m113.6 0c0 .2.4.4.8.4s.8-.2.8-.4-.4-.4-.8-.4-.8.2-.8.4m-111.2.8c0 .2.5.4 1.2.4s1.2-.2 1.2-.4-.5-.4-1.2-.4-1.2.2-1.2.4m108.4 0c0 .2.4.4.8.4s.8-.2.8-.4-.4-.4-.8-.4-.8.2-.8.4m-105.2.8c0 .2.5.4 1.2.4s1.2-.2 1.2-.4-.5-.4-1.2-.4-1.2.2-1.2.4m102 0c0 .2.4.4.8.4s.8-.2.8-.4-.4-.4-.8-.4-.8.2-.8.4m-98.4.8c0 .2.5.4 1.2.5.8.1 1 0 1-.4-.3-.6-2.2-.7-2.2-.1m95 .2c-.1.5 0 .6.4.4l1-.2c.2 0 .4-.2.4-.4 0-.7-1.5-.5-1.8.2m-91.8.6c0 .5 1.8 1 2.4.6.2-.1.3-.4.2-.6-.3-.5-2.6-.5-2.6 0m88.4.2c0 .4.3.6.7.5 1-.2 1.1-1.1.1-1.1-.5 0-.8.3-.8.6m-84.1.4c-.5.5.1 1 1.4 1 .7 0 1.1-.2 1-.5-.2-.6-2-.9-2.4-.5m80 .4c-.2.5 0 .6 1.1.6.8 0 1.3-.2 1.2-.4-.1-.2.1-.4.5-.5.4-.1 0-.2-1-.3-1 0-1.7.2-1.8.6m-75.6.4c-.6.7-.2 1 1.1 1 1 0 1.4-.2 1.3-.5-.2-.6-2-.9-2.4-.5m71.6 0c-.6.6-.2 1 1 1 .6 0 1-.2 1-.4-.2-.2 0-.4.2-.5.3-.1 0-.3-.7-.3s-1.4.1-1.5.3m-67.3.8c-.7.3-.7.4 0 .6 1.2.5 3 .3 2.9-.2-.2-.6-1.8-.8-2.9-.4m62 0c-.5.6-.1.9 1.2.9 1 0 1.4-.2 1.4-.6 0-.6-2-.9-2.5-.3m-55.8.8c-1.7.3-.9.9 1.4.9 1.4 0 2.1-.1 1.9-.4-.5-.5-2.2-.7-3.3-.5m49.6 0c-1 .4-.4.9 1.3.9 1.4 0 1.7-.1 1.5-.6-.2-.6-1.7-.8-2.8-.3m-8.2.8c-2.2.2-1.4.9 1.1.9 2.3 0 3.2-.5 1.7-1-.5 0-1-.2-1.1-.1l-1.7.2m-34.9.5c.1.2 1.5.4 3 .4 1.6 0 2.8-.2 2.8-.4s-1.3-.4-3-.4c-2 0-3 .1-2.8.4m15 .7h2.3c.6 0 0-.2-1.3-.2s-1.8.1-1 .2m4.1 0h1.4c.4-.1 0-.2-.7-.2s-1 0-.7.2m3.4 0h2.4c.6 0 0-.2-1.3-.2s-1.8.1-1 .2"/>
  </g>
</svg>
