<?xml version="1.0" encoding="UTF-8"?>
<svg width="21px" height="20px" viewBox="0 0 21 20" version="1.1" xmlns="http://www.w3.org/2000/svg" xmlns:xlink="http://www.w3.org/1999/xlink">
    <title>-mockplus-</title>
    <g id="页面-1" stroke="none" stroke-width="1" fill="none" fill-rule="evenodd">
        <g id="首页" transform="translate(-88.000000, -431.000000)" fill-rule="nonzero">
            <g id="编组-16" transform="translate(24.000000, 278.000000)">
                <g id="编组-8" transform="translate(24.000000, 20.000000)">
                    <g id="编组-7" transform="translate(0.000000, 90.000000)">
                        <g id="03-数据录入/04-单选框/03-组合/01-默认/01-Default" transform="translate(12.095238, 38.000000)">
                            <g id="下拉" transform="translate(28.000000, 5.000000)">
                                <circle id="椭圆形" fill="#2775CA" cx="10" cy="10" r="10"></circle>
                                <path d="M8.125,3.25 L8.125,3.8359375 C8.125,3.9921875 8.0078125,4.171875 7.859375,4.2265625 C5.4609375,5.109375 3.75,7.4140625 3.75,10.1015625 C3.75,12.796875 5.4609375,15.09375 7.859375,15.96875 C8.0078125,16.0234375 8.125,16.203125 8.125,16.359375 L8.125,16.953125 C8.125,17.1875 7.9375,17.3203125 7.71875,17.25 C4.6875,16.28125 2.5,13.453125 2.5,10.1015625 C2.5,6.7578125 4.6875,3.921875 7.71875,2.953125 C7.9453125,2.8828125 8.125,3.015625 8.125,3.25 Z M12.28125,2.96875 C15.3125,3.921875 17.5,6.7578125 17.5,10.1015625 C17.5,13.453125 15.3125,16.28125 12.28125,17.25 C12.0546875,17.3203125 11.875,17.1875 11.875,16.953125 L11.875,16.3671875 C11.875,16.1953125 11.9765625,16.03125 12.140625,15.9765625 C14.53125,15.1015625 16.25,12.796875 16.25,10.109375 C16.25,7.4140625 14.5390625,5.1171875 12.140625,4.2421875 C11.9921875,4.1875 11.875,4.0078125 11.875,3.8515625 L11.875,3.265625 C11.875,3.03125 12.0625,2.8984375 12.28125,2.96875 Z M10.3125,5.1015625 C10.484375,5.1015625 10.625,5.2421875 10.625,5.4140625 L10.625,6.40625 C11.6328125,6.5859375 12.2734375,7.15625 12.484375,8.109375 C12.5234375,8.2890625 12.3828125,8.453125 12.1953125,8.453125 L11.5390625,8.453125 C11.3984375,8.453125 11.28125,8.359375 11.2421875,8.2265625 C11.0625,7.625 10.6328125,7.359375 9.8828125,7.359375 C9.0546875,7.359375 8.625,7.7578125 8.625,8.3203125 C8.625,8.9140625 8.8671875,9.2109375 10.140625,9.390625 C11.859375,9.625 12.75,10.1171875 12.75,11.578125 C12.75,12.6875 11.921875,13.5859375 10.6328125,13.7890625 L10.6328125,14.7890625 L10.625,14.7890625 C10.625,14.9609375 10.484375,15.1015625 10.3125,15.1015625 L9.6875,15.1015625 C9.515625,15.1015625 9.375,14.9609375 9.375,14.7890625 L9.375,13.8046875 C8.0078125,13.6171875 7.34375,12.859375 7.1640625,11.8125 C7.1328125,11.6328125 7.2734375,11.4765625 7.453125,11.4765625 L8.1640625,11.4765625 C8.3125,11.4765625 8.4375,11.5859375 8.46875,11.7265625 C8.6015625,12.34375 8.9609375,12.8203125 10.0546875,12.8203125 C10.859375,12.8203125 11.4375,12.3671875 11.4375,11.6953125 C11.4375,11.0234375 11.1015625,10.765625 9.9140625,10.5703125 C8.1640625,10.3359375 7.3359375,9.8046875 7.3359375,8.4375 C7.3359375,7.3828125 8.140625,6.5546875 9.375,6.3828125 L9.375,5.4140625 C9.375,5.2421875 9.515625,5.1015625 9.6875,5.1015625 L10.3125,5.1015625 Z" id="形状结合" fill="#FFFFFF"></path>
                            </g>
                        </g>
                    </g>
                </g>
            </g>
        </g>
    </g>
</svg>