<?xml version="1.0" encoding="UTF-8"?>
<svg width="21px" height="20px" viewBox="0 0 21 20" version="1.1" xmlns="http://www.w3.org/2000/svg" xmlns:xlink="http://www.w3.org/1999/xlink">
    <title>-mockplus-</title>
    <g id="页面-1" stroke="none" stroke-width="1" fill="none" fill-rule="evenodd">
        <g id="首页" transform="translate(-88.000000, -611.000000)" fill-rule="nonzero">
            <g id="编组-16" transform="translate(24.000000, 278.000000)">
                <g id="编组-8" transform="translate(24.000000, 20.000000)">
                    <g id="编组-7" transform="translate(0.000000, 90.000000)">
                        <g id="03-数据录入/04-单选框/03-组合/01-默认/01-Default" transform="translate(12.095238, 218.000000)">
                            <g id="susd" transform="translate(28.000000, 5.000000)">
                                <ellipse id="椭圆形" fill="#1E1A31" cx="10" cy="9.89" rx="10" ry="9.89"></ellipse>
                                <g id="编组" transform="translate(5.000000, 5.513667)" fill="#FFFFFF">
                                    <path d="M3.56333333,3.726 C3.831,3.726 4.04833333,3.946 4.04833333,4.218 C4.04833333,4.48966667 3.831,4.71 3.563,4.71 L2.30366667,4.71 C1.084,4.71 0.0953333333,3.70733333 0.0953333333,2.47066667 C0.0953333333,1.234 1.084,0.231666667 2.30366667,0.231666667 L5.55166667,0.231666667 C5.81966667,0.231666667 6.03666667,0.451666667 6.03666667,0.723333333 C6.03666667,0.995 5.81966667,1.21533333 5.55166667,1.21533333 L2.30333333,1.21533333 C1.61966667,1.21533333 1.06533333,1.77733333 1.06533333,2.47066667 C1.06533333,3.164 1.61966667,3.726 2.30333333,3.726 L3.56266667,3.726 L3.56333333,3.726 Z" id="路径"></path>
                                    <path d="M2.569,4.71 C2.301,4.71 2.08366667,4.48966667 2.08366667,4.218 C2.08366667,3.94633333 2.301,3.726 2.569,3.726 L3.82833333,3.726 C5.048,3.726 6.03666667,4.72866667 6.03666667,5.96533333 C6.03666667,7.202 5.048,8.20433333 3.82833333,8.20433333 L0.58,8.20433333 C0.312,8.20433333 0.095,7.98433333 0.095,7.71233333 C0.095,7.44066667 0.312,7.22066667 0.58,7.22066667 L3.828,7.22066667 C4.51166667,7.22066667 5.066,6.65866667 5.066,5.96533333 C5.066,5.272 4.51166667,4.71 3.828,4.71 L2.56866667,4.71 L2.569,4.71 Z" id="路径"></path>
                                    <polygon id="路径" fill-opacity="0.5" points="0.964 8.00566667 0.175 7.43266667 5.136 0.413333333 5.925 0.986666667"></polygon>
                                </g>
                                <g id="编组" transform="translate(13.136000, 9.557667) rotate(-90.000000) translate(-13.136000, -9.557667) translate(9.136000, 8.057667)">
                                    <g id="a-link" fill="#000000">
                                        <path d="M0.783333333,0.182333333 L0.783333333,1.75533333 C0.783333333,1.97466667 0.825333333,2.14 0.909333333,2.251 C0.993333333,2.362 1.126,2.41766667 1.30666667,2.41766667 C1.48766667,2.41766667 1.62066667,2.362 1.706,2.251 C1.79133333,2.14 1.834,1.97466667 1.834,1.75533333 L1.834,0.182333333 L2.40733333,0.182333333 L2.40733333,1.72433333 C2.40733333,2.11166667 2.31366667,2.40733333 2.12633333,2.611 C1.939,2.81533333 1.666,2.91766667 1.30666667,2.91766667 C0.947666667,2.91766667 0.675,2.81533333 0.489,2.611 C0.303333333,2.40766667 0.21,2.112 0.21,1.72466667 L0.21,0.182333333 L0.783333333,0.182333333 Z M3.30133333,2.011 C3.31133333,2.145 3.36566667,2.253 3.46366667,2.33433333 C3.56166667,2.41566667 3.69233333,2.45633333 3.85533333,2.45633333 C3.99033333,2.45633333 4.10066667,2.42733333 4.186,2.36933333 C4.26843744,2.31679985 4.31708195,2.22470466 4.314,2.127 C4.314,2.05466667 4.29033333,1.997 4.24333333,1.95466667 C4.196,1.912 4.13,1.87833333 4.04466667,1.854 C3.91392319,1.81888561 3.78194728,1.78853226 3.649,1.763 C3.47333333,1.72933333 3.32566667,1.68633333 3.20566667,1.633 C3.08858468,1.58220451 2.98753059,1.50050856 2.91333333,1.39666667 C2.83833333,1.29233333 2.80066667,1.15333333 2.80066667,0.980333333 C2.80066667,0.822666667 2.84333333,0.682 2.92866667,0.558 C3.01858288,0.430296194 3.14136144,0.32928607 3.284,0.265666667 C3.43566667,0.194666667 3.607,0.159 3.798,0.159 C3.99433333,0.159 4.17066667,0.195666667 4.32733333,0.269333333 C4.484,0.343 4.60733333,0.444333333 4.698,0.573666667 C4.78808102,0.701887902 4.83670828,0.854633353 4.83733333,1.01133333 L4.27566667,1.01133333 C4.26649691,0.902166811 4.2141929,0.801157706 4.13033333,0.730666667 C4.04633333,0.659333333 3.93566667,0.624 3.798,0.624 C3.67066667,0.624 3.56866667,0.651 3.49233333,0.705333333 C3.41566667,0.759666667 3.37766667,0.837 3.37766667,0.937666667 C3.37766667,1.01 3.40066667,1.06633333 3.44666667,1.10633333 C3.49233333,1.14633333 3.55733333,1.17866667 3.64133333,1.203 C3.72533333,1.22766667 3.85533333,1.25666667 4.03133333,1.29033333 C4.20933333,1.32366667 4.35966667,1.36566667 4.482,1.41633333 C4.60433333,1.46633333 4.703,1.543 4.778,1.64466667 C4.85333333,1.74666667 4.891,1.883 4.891,2.05333333 C4.891,2.21866667 4.84633333,2.36666667 4.757,2.497 C4.668,2.62733333 4.54366667,2.73033333 4.38466667,2.805 C4.21633767,2.88182787 4.03301067,2.92020128 3.848,2.91733333 C3.63366667,2.91733333 3.44333333,2.878 3.27633333,2.79933333 C3.1184735,2.72795974 2.98314525,2.61476353 2.885,2.472 C2.79100039,2.33359473 2.74040072,2.17030633 2.73966667,2.003 L3.30133333,2.011 Z M5.23466667,0.182333333 L6.16333333,0.182333333 C6.43066667,0.182333333 6.66666667,0.239666667 6.872,0.354666667 C7.07315562,0.465531542 7.23781467,0.632390681 7.346,0.835 C7.45666667,1.04033333 7.512,1.275 7.512,1.53833333 C7.512,1.80166667 7.45666667,2.036 7.346,2.24166667 C7.23776294,2.44415287 7.07310877,2.61089127 6.872,2.72166667 C6.667,2.83666667 6.43066667,2.894 6.16333333,2.894 L5.23466667,2.894 L5.23466667,0.182333333 Z M6.16333333,2.41 C6.40533333,2.41 6.59333333,2.33033333 6.72666667,2.17166667 C6.86066667,2.01266667 6.92733333,1.80166667 6.92733333,1.53833333 C6.92733333,1.275 6.86066667,1.06366667 6.727,0.905 C6.593,0.745666667 6.40533333,0.666666667 6.16333333,0.666666667 L5.808,0.666666667 L5.808,2.41 L6.16333333,2.41 Z" id="a"></path>
                                    </g>
                                    <g id="a-link" fill="#FFFFFF">
                                        <path d="M0.783333333,0.182333333 L0.783333333,1.75533333 C0.783333333,1.97466667 0.825333333,2.14 0.909333333,2.251 C0.993333333,2.362 1.126,2.41766667 1.30666667,2.41766667 C1.48766667,2.41766667 1.62066667,2.362 1.706,2.251 C1.79133333,2.14 1.834,1.97466667 1.834,1.75533333 L1.834,0.182333333 L2.40733333,0.182333333 L2.40733333,1.72433333 C2.40733333,2.11166667 2.31366667,2.40733333 2.12633333,2.611 C1.939,2.81533333 1.666,2.91766667 1.30666667,2.91766667 C0.947666667,2.91766667 0.675,2.81533333 0.489,2.611 C0.303333333,2.40766667 0.21,2.112 0.21,1.72466667 L0.21,0.182333333 L0.783333333,0.182333333 Z M3.30133333,2.011 C3.31133333,2.145 3.36566667,2.253 3.46366667,2.33433333 C3.56166667,2.41566667 3.69233333,2.45633333 3.85533333,2.45633333 C3.99033333,2.45633333 4.10066667,2.42733333 4.186,2.36933333 C4.26843744,2.31679985 4.31708195,2.22470466 4.314,2.127 C4.314,2.05466667 4.29033333,1.997 4.24333333,1.95466667 C4.196,1.912 4.13,1.87833333 4.04466667,1.854 C3.91392319,1.81888561 3.78194728,1.78853226 3.649,1.763 C3.47333333,1.72933333 3.32566667,1.68633333 3.20566667,1.633 C3.08858468,1.58220451 2.98753059,1.50050856 2.91333333,1.39666667 C2.83833333,1.29233333 2.80066667,1.15333333 2.80066667,0.980333333 C2.80066667,0.822666667 2.84333333,0.682 2.92866667,0.558 C3.01858288,0.430296194 3.14136144,0.32928607 3.284,0.265666667 C3.43566667,0.194666667 3.607,0.159 3.798,0.159 C3.99433333,0.159 4.17066667,0.195666667 4.32733333,0.269333333 C4.484,0.343 4.60733333,0.444333333 4.698,0.573666667 C4.78808102,0.701887902 4.83670828,0.854633353 4.83733333,1.01133333 L4.27566667,1.01133333 C4.26649691,0.902166811 4.2141929,0.801157706 4.13033333,0.730666667 C4.04633333,0.659333333 3.93566667,0.624 3.798,0.624 C3.67066667,0.624 3.56866667,0.651 3.49233333,0.705333333 C3.41566667,0.759666667 3.37766667,0.837 3.37766667,0.937666667 C3.37766667,1.01 3.40066667,1.06633333 3.44666667,1.10633333 C3.49233333,1.14633333 3.55733333,1.17866667 3.64133333,1.203 C3.72533333,1.22766667 3.85533333,1.25666667 4.03133333,1.29033333 C4.20933333,1.32366667 4.35966667,1.36566667 4.482,1.41633333 C4.60433333,1.46633333 4.703,1.543 4.778,1.64466667 C4.85333333,1.74666667 4.891,1.883 4.891,2.05333333 C4.891,2.21866667 4.84633333,2.36666667 4.757,2.497 C4.668,2.62733333 4.54366667,2.73033333 4.38466667,2.805 C4.21633767,2.88182787 4.03301067,2.92020128 3.848,2.91733333 C3.63366667,2.91733333 3.44333333,2.878 3.27633333,2.79933333 C3.1184735,2.72795974 2.98314525,2.61476353 2.885,2.472 C2.79100039,2.33359473 2.74040072,2.17030633 2.73966667,2.003 L3.30133333,2.011 Z M5.23466667,0.182333333 L6.16333333,0.182333333 C6.43066667,0.182333333 6.66666667,0.239666667 6.872,0.354666667 C7.07315562,0.465531542 7.23781467,0.632390681 7.346,0.835 C7.45666667,1.04033333 7.512,1.275 7.512,1.53833333 C7.512,1.80166667 7.45666667,2.036 7.346,2.24166667 C7.23776294,2.44415287 7.07310877,2.61089127 6.872,2.72166667 C6.667,2.83666667 6.43066667,2.894 6.16333333,2.894 L5.23466667,2.894 L5.23466667,0.182333333 Z M6.16333333,2.41 C6.40533333,2.41 6.59333333,2.33033333 6.72666667,2.17166667 C6.86066667,2.01266667 6.92733333,1.80166667 6.92733333,1.53833333 C6.92733333,1.275 6.86066667,1.06366667 6.727,0.905 C6.593,0.745666667 6.40533333,0.666666667 6.16333333,0.666666667 L5.808,0.666666667 L5.808,2.41 L6.16333333,2.41 Z" id="a"></path>
                                    </g>
                                </g>
                            </g>
                        </g>
                    </g>
                </g>
            </g>
        </g>
    </g>
</svg>