<?xml version="1.0" encoding="UTF-8"?>
<svg width="21px" height="20px" viewBox="0 0 21 20" version="1.1" xmlns="http://www.w3.org/2000/svg" xmlns:xlink="http://www.w3.org/1999/xlink">
    <title>-mockplus-</title>
    <g id="页面-1" stroke="none" stroke-width="1" fill="none" fill-rule="evenodd">
        <g id="首页" transform="translate(-88.000000, -551.000000)">
            <g id="编组-16" transform="translate(24.000000, 278.000000)">
                <g id="编组-8" transform="translate(24.000000, 20.000000)">
                    <g id="编组-7" transform="translate(0.000000, 90.000000)">
                        <g id="03-数据录入/04-单选框/03-组合/01-默认/01-Default" transform="translate(12.095238, 158.000000)">
                            <g id="下拉" transform="translate(28.000000, 5.000000)">
                                <circle id="椭圆形" fill="#0D74F6" cx="10" cy="10" r="10"></circle>
                                <path d="M13,10 L16,15.5 L12.5,15.5 L10.5,12 L9.5,12.333 L9.5,15.5 L6,15.5 L6.0000117,12.0748734 L6.418,12.067 L6.58788043,12.0615932 C6.68225095,12.057071 6.77648049,12.0514027 6.87054921,12.0445963 C6.90278469,12.0422634 6.93482699,12.039811 6.96684982,12.0372266 L6.87054921,12.0445963 C7.01238876,12.0343335 7.15386271,12.0214833 7.29490314,12.0060729 L6.96684982,12.0372266 C7.13169773,12.0239229 7.2960298,12.0071243 7.45973902,11.9868737 L7.29490314,12.0060729 C7.42754616,11.9915801 7.55980575,11.9748229 7.6916254,11.955824 L7.45973902,11.9868737 C7.60691152,11.9686687 7.75358064,11.9476739 7.89966865,11.9239207 L7.6916254,11.955824 C7.83685755,11.9348921 7.98155568,11.9112392 8.12564424,11.8848956 L7.89966865,11.9239207 C8.03655917,11.9016629 8.17293943,11.8769831 8.30874548,11.8499068 L8.12564424,11.8848956 C8.26232479,11.8599064 8.39845684,11.8324962 8.5339759,11.8026908 L8.30874548,11.8499068 C8.4519849,11.8213486 8.59458553,11.7901244 8.73647231,11.7562646 L8.5339759,11.8026908 C8.67638911,11.7713691 8.81812536,11.7374024 8.95910982,11.7008208 L8.73647231,11.7562646 C8.86909528,11.7246155 9.00109457,11.6906636 9.13240888,11.6544336 L8.95910982,11.7008208 C9.100639,11.6640978 9.24141057,11.6247397 9.38134881,11.5827768 L9.13240888,11.6544336 C10.0630627,11.3976635 10.9593111,11.0264662 11.7993343,10.5496147 C12.2052733,10.380718 12.6056806,10.1971597 13,10 Z M9.5,4.5 L9.50126077,8.71302227 C10.6376707,7.99895838 11.6556176,7.08563456 12.5,6 L12.5,6 L11.5,4.5 L16,4.5 L15.9287777,4.66915299 C13.7306332,9.88974622 7.81523405,12.4582441 2.5,10.5 L2.5,10.5 L3.29912287,10.5 C4.21832225,10.5 5.12436447,10.3915503 6.00080003,10.1826962 L6,4.5 L9.5,4.5 Z" id="形状结合" fill="#FFFFFF"></path>
                            </g>
                        </g>
                    </g>
                </g>
            </g>
        </g>
    </g>
</svg>