<?xml version="1.0" encoding="UTF-8"?>
<svg width="21px" height="20px" viewBox="0 0 21 20" version="1.1" xmlns="http://www.w3.org/2000/svg" xmlns:xlink="http://www.w3.org/1999/xlink">
    <title>-mockplus-</title>
    <g id="页面-1" stroke="none" stroke-width="1" fill="none" fill-rule="evenodd">
        <g id="首页" transform="translate(-88.000000, -641.000000)" fill-rule="nonzero">
            <g id="编组-16" transform="translate(24.000000, 278.000000)">
                <g id="编组-8" transform="translate(24.000000, 20.000000)">
                    <g id="编组-7" transform="translate(0.000000, 90.000000)">
                        <g id="03-数据录入/04-单选框/03-组合/01-默认/01-Default" transform="translate(12.095238, 248.000000)">
                            <g id="-mockplus-" transform="translate(28.000000, 5.000000)">
                                <g id="下拉" transform="translate(1.000000, 1.000000)">
                                    <g id="编组" transform="translate(0.000000, 0.500000)">
                                        <path d="M4.15915529,15.1254422 C5.25541618,16.3743079 6.80619954,17.132077 8.4651043,17.2294855 C9.44630651,17.1773901 10.372033,16.7581932 11.05846,16.0551357 C12.412414,14.8954867 13.8339126,13.8171085 15.3154777,12.825674 L16.1473088,12.4831553 C16.4898275,12.3363616 17.0770023,11.9938429 17.6152459,11.3577368 C18.2024208,10.574837 18.3002833,9.74300595 18.3002833,9.44941852 C18.2352235,8.52348273 17.9318134,7.63010833 17.419521,6.85606287 C14.7026562,11.6971483 9.70185674,14.815728 4.15915529,15.1254422 Z" id="路径" fill="#0293D6"></path>
                                        <path d="M6.01854236,1.22897041 C6.75673756,0.449236805 7.78281541,0.00696186982 8.85655421,0.00568944316 C9.53652656,-0.0398390454 10.2063426,0.189308563 10.7159413,0.641795547 C12.1194956,1.6361364 13.7913117,2.18203554 15.5112027,2.20759519 C15.9515838,2.25652642 16.8323461,2.40332014 17.419521,3.13728872 C17.8599021,3.72446359 17.9088334,4.36056969 17.9088334,4.65415712 C17.8694205,5.41024413 17.7040426,6.15444446 17.419521,6.85606287 L6.01854236,1.22897041 Z" id="路径" fill="#EBE638"></path>
                                        <path d="M4.15915529,15.1254422 C3.71877414,15.076511 3.13159928,14.9297173 2.44656194,14.6361298 C1.76152459,14.3425424 0.929693536,14.0000237 0.39144991,13.0703302 C0.0489312387,12.4831553 2.17603713e-14,11.8959805 2.17603713e-14,11.5045305 C0.0119461797,10.4664012 0.263108741,9.44500674 0.733968581,8.51972498 C1.20243127,7.3760718 1.51512586,6.17466626 1.66366212,4.94774456 L1.90831831,3.96911978 C2.05511203,3.47980739 2.1529745,2.99049501 2.49549318,2.50118262 L3.0337368,1.91400775 C3.92273545,1.3550777 4.97479134,1.11362225 6.01854236,1.22897041 C3.18261011,5.28579587 2.4895165,10.4657587 4.15915529,15.1254422 L4.15915529,15.1254422 Z" id="路径" fill="#BAD147"></path>
                                        <path d="M6.01854236,1.22897041 C5.96961113,1.22897041 8.66082926,1.37576413 10.3244914,1.96293899 L11.6945661,2.55011386 C11.1563224,2.50118262 7.73113572,2.3543889 5.13778007,4.94774456 C1.85938707,8.27506879 2.93587432,12.825674 2.98480556,13.0703302 C2.22506939,12.1144766 1.84207997,10.9132825 1.90831831,9.69407471 C2.03854305,6.42280313 3.52840834,3.35439009 6.01854236,1.22897041 L6.01854236,1.22897041 Z" id="路径" fill="#78B650"></path>
                                        <path d="M12.5753284,13.3149864 C14.4677634,9.87490297 14.1210123,5.63683425 11.6945661,2.55011386 C13.1118984,2.78708132 14.4155715,3.47322507 15.4133402,4.50736341 C16.0005151,4.99667579 16.7344836,5.73064437 17.419521,6.85606287 C16.4520206,9.42597977 14.7715485,11.6666093 12.5753284,13.3149864 L12.5753284,13.3149864 Z" id="路径" fill="#2F8260"></path>
                                        <path d="M14.141128,4.70308836 C13.3582282,3.38194492 12.2328097,2.79477005 11.7434973,2.55011386 C11.3520474,2.45225138 7.68220448,1.86507652 4.89312387,4.55629465 C2.64228689,6.70926915 2.49549318,9.49834976 2.49549318,10.0365934 C2.50585242,11.8806436 3.12511321,13.6696192 4.25701777,15.1254422 C5.71159551,15.4055193 7.20625152,15.4055193 8.66082926,15.1254422 C9.39479784,14.9786485 11.1073912,14.6850611 12.5753284,13.4128489 C12.7710533,13.2171239 14.9240278,11.2109431 15.0708215,8.0304126 C15.0708215,7.49216897 15.0708215,6.12209428 14.141128,4.70308836 L14.141128,4.70308836 Z M12.3796034,11.798118 C11.460922,12.7974734 10.165078,13.3655146 8.80762297,13.363921 C8.51403554,13.363921 6.55678599,13.3149864 5.18671131,11.7002555 C4.99098635,11.4555993 4.01236158,10.2812496 4.06129281,8.51972498 C4.15915529,6.17102552 6.01854236,4.80095084 6.40999227,4.50736341 C6.75251095,4.26270721 7.584342,3.72446359 8.80762297,3.67553235 C9.1012104,3.62660111 10.1287664,3.57766987 11.1563224,4.16484474 C13.4071594,5.3881257 13.5050219,8.32400003 13.5050219,8.51972498 C13.5050219,9.05796861 13.5050219,10.5259058 12.3796034,11.798118 Z" id="形状" fill="#085229"></path>
                                    </g>
                                </g>
                            </g>
                        </g>
                    </g>
                </g>
            </g>
        </g>
    </g>
</svg>