<?xml version="1.0" encoding="UTF-8"?>
<svg width="21px" height="20px" viewBox="0 0 21 20" version="1.1" xmlns="http://www.w3.org/2000/svg" xmlns:xlink="http://www.w3.org/1999/xlink">
    <title>-mockplus-</title>
    <g id="页面-1" stroke="none" stroke-width="1" fill="none" fill-rule="evenodd">
        <g id="首页" transform="translate(-88.000000, -461.000000)">
            <g id="编组-16" transform="translate(24.000000, 278.000000)">
                <g id="编组-8" transform="translate(24.000000, 20.000000)">
                    <g id="编组-7" transform="translate(0.000000, 90.000000)">
                        <g id="03-数据录入/04-单选框/03-组合/01-默认/01-Default" transform="translate(12.095238, 68.000000)">
                            <g id="下拉" transform="translate(28.000000, 5.000000)">
                                <path d="M19.6393208,7.34947744 C21.104259,12.6725181 17.9743909,18.1755601 12.6496152,19.6395713 C7.32483956,21.1035825 1.82307136,17.9755586 0.360132989,12.6515179 C-1.10280538,7.32747727 2.02306293,1.82443524 7.3478386,0.360424053 C12.6726143,-1.10358713 18.1743825,2.02443676 19.6393208,7.34947744 Z" id="路径" fill="#26A17B"></path>
                                <path d="M14.5825947,5 L14.5825947,7.23010733 L11.2196922,7.23010733 L11.2196922,8.69375671 L11.7567327,8.72463641 C14.213285,8.89175758 16,9.40087895 16,10.002737 C16,10.647585 13.9489241,11.185975 11.2204831,11.3113238 L11.2204831,11.3113238 L11.2204831,16 L8.78861172,16 L8.78861172,11.3117174 C6.05621643,11.185975 4,10.6471914 4,10.0017531 C4,9.39934407 5.79033183,8.88984313 8.25138505,8.72299378 L8.25138505,8.72299378 L8.78861172,8.69257603 L8.78861172,7.23010733 L5.42531387,7.23010733 L5.42531387,5 L14.5825947,5 Z M11.2208785,8.86338104 L11.2208785,10.4976386 C11.1689788,10.5023614 10.9439195,10.5210309 10.5182586,10.5300704 L10.5182586,10.5300704 L10.0247141,10.5350268 C9.71252513,10.5350268 9.44333872,10.5283855 9.23242825,10.5203913 L9.23242825,10.5203913 L8.789798,10.4976386 L8.789798,8.86338104 C6.37512769,8.97003578 4.57237948,9.38799642 4.57237948,9.88880143 C4.57237948,10.3896064 6.37492998,10.8081574 8.789798,10.9146154 L8.789798,10.9146154 C8.91427818,10.919102 9.22172999,10.9317274 9.66103272,10.9365194 L9.66103272,10.9365194 L10.3465421,10.9370683 C10.5986151,10.9349204 10.790103,10.9305177 10.9294539,10.9260098 L10.9294539,10.9260098 L11.7273917,10.8856459 C13.8780581,10.7461015 15.4293999,10.3515998 15.4293999,9.88821109 C15.4293999,9.42482239 13.87874,9.0304904 11.7275378,8.89097018 L11.7275378,8.89097018 L11.2208785,8.86338104 Z" id="形状结合" fill="#FFFFFF"></path>
                            </g>
                        </g>
                    </g>
                </g>
            </g>
        </g>
    </g>
</svg>