<?xml version="1.0" encoding="UTF-8"?>
<svg width="21px" height="20px" viewBox="0 0 21 20" version="1.1" xmlns="http://www.w3.org/2000/svg" xmlns:xlink="http://www.w3.org/1999/xlink">
    <title>-mockplus-</title>
    <g id="页面-1" stroke="none" stroke-width="1" fill="none" fill-rule="evenodd">
        <g id="首页" transform="translate(-88.000000, -491.000000)" fill-rule="nonzero">
            <g id="编组-16" transform="translate(24.000000, 278.000000)">
                <g id="编组-8" transform="translate(24.000000, 20.000000)">
                    <g id="编组-7" transform="translate(0.000000, 90.000000)">
                        <g id="03-数据录入/04-单选框/03-组合/01-默认/01-Default" transform="translate(12.095238, 98.000000)">
                            <g id="tusd" transform="translate(28.000000, 5.000000)">
                                <path d="M10,20 C4.5,20 0,15.5 0,10 C0,4.5 4.5,0 10,0 C15.5,0 20,4.5 20,10 C20,15.5 15.5,20 10,20 Z" id="Coin_BG" fill="#002868"></path>
                                <path d="M15.04,16 L4.96,16 C4.432,16 4,15.568 4,15.04 L4,4.96 C4,4.432 4.432,4 4.96,4 L15.04,4 C15.568,4 16,4.432 16,4.96 L16,15.04 C16,15.568 15.568,16 15.04,16 Z" id="BG_1_" fill="#FFFFFF"></path>
                                <path d="M6.3416,14.792 C6.31,14.792 6.2844,14.7632 6.2844,14.7316 L6.2844,13.1192 C6.2844,13.0876 6.2588,13.0588 6.2272,13.0588 L5.658,13.0588 C5.626,13.0588 5.5976,13.0332 5.5976,13.0016 L5.5976,12.69 C5.5976,12.6584 5.6264,12.6296 5.658,12.6296 L7.41,12.6296 C7.4416,12.6296 7.4704,12.658 7.4704,12.69 L7.4704,13.0016 C7.4704,13.0332 7.4416,13.0588 7.41,13.0588 L6.844,13.0588 C6.8124,13.0588 6.7836,13.0872 6.7836,13.1192 L6.7836,14.7316 C6.7836,14.7632 6.758,14.792 6.7264,14.792 L6.3416,14.792 Z" id="路径" fill="#002868"></path>
                                <path d="M9.2192,12.69 C9.2192,12.6584 9.2448,12.6296 9.2764,12.6296 L9.658,12.6296 C9.6896,12.6296 9.7184,12.658 9.7184,12.69 L9.7184,13.7904 C9.7184,14.4424 9.3496,14.8208 8.7644,14.8208 C8.1824,14.8208 7.8168,14.4424 7.8168,13.7904 L7.8168,12.69 C7.8168,12.6584 7.8424,12.6296 7.874,12.6296 L8.2556,12.6296 C8.2872,12.6296 8.316,12.658 8.316,12.69 L8.316,13.806 C8.316,14.1272 8.4812,14.356 8.7676,14.356 C9.054,14.356 9.2192,14.1272 9.2192,13.806 L9.2192,12.69 L9.2192,12.69 Z" id="路径" fill="#002868"></path>
                                <path d="M11.4708,13.3356 C11.42,13.3356 11.404,13.3164 11.3848,13.2784 C11.318,13.1224 11.1716,13.024 10.9492,13.024 C10.7488,13.024 10.5804,13.094 10.5804,13.2276 C10.5804,13.374 10.7364,13.4344 11.0796,13.4756 C11.6012,13.536 11.9,13.6952 11.9,14.1084 C11.9,14.5728 11.4928,14.8176 10.9716,14.8176 C10.52,14.8176 10.132,14.598 10.0716,14.1372 C10.0652,14.0928 10.0876,14.0768 10.132,14.0768 L10.482,14.0768 C10.5264,14.0768 10.552,14.096 10.5648,14.1308 C10.6124,14.2836 10.7748,14.4012 11.01,14.4012 C11.2168,14.4012 11.398,14.3248 11.398,14.1628 C11.398,13.9688 11.2072,13.934 10.8256,13.886 C10.3868,13.8288 10.0816,13.7016 10.0816,13.2976 C10.0816,12.8936 10.4284,12.6044 10.972,12.6044 C11.4616,12.6044 11.802,12.8684 11.872,13.2628 C11.8816,13.3072 11.8688,13.336 11.8212,13.336 L11.4708,13.336 L11.4708,13.3356 Z" id="路径" fill="#002868"></path>
                                <path d="M12.3324,14.792 C12.3008,14.792 12.2752,14.7632 12.2752,14.7316 L12.2752,12.69 C12.2752,12.6584 12.3008,12.6296 12.3324,12.6296 L13.1972,12.6296 C13.8396,12.6296 14.3388,13.0716 14.3388,13.7172 C14.3388,14.3532 13.846,14.792 13.1972,14.792 L12.3324,14.792 Z M13.1972,14.3624 C13.544,14.3624 13.814,14.0888 13.814,13.7104 C13.814,13.332 13.5436,13.0584 13.194,13.0584 L12.8348,13.0584 C12.8032,13.0584 12.7776,13.0868 12.7776,13.1188 L12.7776,14.3048 C12.7776,14.3364 12.8032,14.362 12.8348,14.362 L13.1972,14.362 L13.1972,14.3624 Z" id="形状" fill="#002868"></path>
                                <path d="M15.68,11.44 L4.32,11.44 C4.232,11.44 4.16,11.368 4.16,11.28 L4.16,4.96 C4.16,4.52 4.52,4.16 4.96,4.16 L15.04,4.16 C15.48,4.16 15.84,4.52 15.84,4.96 L15.84,11.28 C15.84,11.368 15.768,11.44 15.68,11.44 Z" id="BG" fill="#002868"></path>
                                <path d="M10.5892,10.1424 L9.5492,10.1424 C9.4832,10.1424 9.4292,10.0884 9.4292,10.0224 L9.4292,5.6224 C9.4292,5.5564 9.4832,5.5024 9.5492,5.5024 L10.5892,5.5024 C10.6552,5.5024 10.7092,5.5564 10.7092,5.6224 L10.7092,10.0224 C10.7092,10.0884 10.6552,10.1424 10.5892,10.1424 Z" id="_x7C_" fill="#FFFFFF"></path>
                                <path d="M12.36,6.7824 L7.64,6.7824 C7.574,6.7824 7.52,6.7284 7.52,6.6624 L7.52,5.6224 C7.52,5.5564 7.574,5.5024 7.64,5.5024 L12.36,5.5024 C12.426,5.5024 12.48,5.5564 12.48,5.6224 L12.48,6.6624 C12.48,6.7284 12.426,6.7824 12.36,6.7824 Z" id="_x2014_" fill="#FFFFFF"></path>
                            </g>
                        </g>
                    </g>
                </g>
            </g>
        </g>
    </g>
</svg>