<?xml version="1.0" encoding="UTF-8"?>
<svg width="21px" height="20px" viewBox="0 0 21 20" version="1.1" xmlns="http://www.w3.org/2000/svg" xmlns:xlink="http://www.w3.org/1999/xlink">
    <title>-mockplus-</title>
    <g id="页面-1" stroke="none" stroke-width="1" fill="none" fill-rule="evenodd">
        <g id="首页" transform="translate(-88.000000, -401.000000)" fill-rule="nonzero">
            <g id="编组-16" transform="translate(24.000000, 278.000000)">
                <g id="编组-8" transform="translate(24.000000, 20.000000)">
                    <g id="编组-7" transform="translate(0.000000, 90.000000)">
                        <g id="03-数据录入/04-单选框/03-组合/01-默认/01-Default" transform="translate(12.095238, 8.000000)">
                            <g id="multi-collateral-dai-dai-logo" transform="translate(28.000000, 5.000000)">
                                <path d="M10,0 C15.5233552,0 20,4.47754478 20,10 C20,15.5233552 15.5233552,20 10,20 C4.47754478,20 0,15.5229052 0,10 C0,4.47754478 4.47754478,0 10,0 Z" id="路径" fill="#F5AC37"></path>
                                <path d="M10.7685537,10.7060571 L14.5683917,10.7060571 C14.6493925,10.7060571 14.6876429,10.7060571 14.6934929,10.599856 C14.7245432,10.2133021 14.7245432,9.82449824 14.6934929,9.43749437 C14.6934929,9.36234362 14.6561426,9.33129331 14.5746917,9.33129331 L7.01236612,9.33129331 C6.91876519,9.33129331 6.89356494,9.36234362 6.89356494,9.4500945 L6.89356494,10.5625056 C6.89356494,10.7060571 6.89356494,10.7060571 7.04341643,10.7060571 L10.7685537,10.7060571 L10.7685537,10.7060571 Z M14.2691387,8.03123031 C14.2799388,8.00288003 14.2799388,7.97182972 14.2691387,7.94392944 C14.2056881,7.80577806 14.1305373,7.67392674 14.0432364,7.5501755 C13.9118351,7.33867339 13.7570336,7.14382144 13.5806318,6.96876969 C13.497381,6.86301863 13.40108,6.76806768 13.2930789,6.68751688 C12.7521735,6.22716227 12.1091171,5.90135901 11.4179102,5.73755738 C11.0691567,5.65925659 10.7127531,5.62190622 10.3554496,5.62505625 L6.99931599,5.62505625 C6.90571506,5.62505625 6.89311493,5.66240662 6.89311493,5.74385744 L6.89311493,7.96237962 C6.89311493,8.05598056 6.89311493,8.08118081 7.01191612,8.08118081 L14.2241382,8.08118081 C14.2241382,8.08118081 14.2866889,8.06858069 14.299289,8.03123031 L14.2686887,8.03123031 L14.2691387,8.03123031 Z M14.2691387,12.0061201 C14.1629376,11.9944199 14.0558366,11.9944199 13.9496355,12.0061201 L7.01866619,12.0061201 C6.92506525,12.0061201 6.89356494,12.0061201 6.89356494,12.1312213 L6.89356494,14.300243 C6.89356494,14.400144 6.89356494,14.4253443 7.01866619,14.4253443 L10.2186482,14.4253443 C10.3716497,14.4370444 10.5246512,14.4262443 10.6745027,14.3942939 C11.1389074,14.3609936 11.595662,14.2601926 12.0312663,14.0941409 C12.1896679,14.0392404 12.3426694,13.9676897 12.4871209,13.8817388 L12.5307713,13.8817388 C13.2809288,13.4915849 13.8902349,12.8786788 14.2745387,12.1262713 C14.2745387,12.1262713 14.3181892,12.0317703 14.2691387,12.0070201 L14.2691387,12.0061201 Z M5.63760238,15.5499055 L5.63760238,15.5125551 L5.63760238,14.0563406 L5.63760238,13.5626856 L5.63760238,12.0938709 C5.63760238,12.0124201 5.63760238,12.00027 5.53770138,12.00027 L4.18138781,12.00027 C4.10623706,12.00027 4.07518675,12.00027 4.07518675,11.900369 L4.07518675,10.7128071 L5.52510125,10.7128071 C5.60610206,10.7128071 5.63760238,10.7128071 5.63760238,10.6066061 L5.63760238,9.43164432 C5.63760238,9.35649356 5.63760238,9.33804338 5.53770138,9.33804338 L4.18138781,9.33804338 C4.10623706,9.33804338 4.07518675,9.33804338 4.07518675,9.23814238 L4.07518675,8.13833138 C4.07518675,8.06948069 4.07518675,8.05103051 4.17508775,8.05103051 L5.51880119,8.05103051 C5.61240212,8.05103051 5.63760238,8.05103051 5.63760238,7.93222932 L5.63760238,4.56349563 C5.63760238,4.46359464 5.63760238,4.43839438 5.76270363,4.43839438 L10.4499505,4.43839438 C10.7901539,4.45189452 11.1281073,4.48924489 11.4624606,4.55089551 C12.1514175,4.67824678 12.8133741,4.92439924 13.4186302,5.27585276 C13.8200342,5.51210512 14.1894879,5.79740797 14.5184412,6.12591126 C14.7659437,6.38286383 14.9891459,6.66096661 15.1871479,6.95706957 C15.3837998,7.25722257 15.5471515,7.57807578 15.6754028,7.91332913 C15.6911529,8.00063001 15.7748537,8.0595806 15.8621546,8.04473045 L16.9808658,8.04473045 C17.1244172,8.04473045 17.1244172,8.04473045 17.1307173,8.18243182 L17.1307173,9.20754208 C17.1307173,9.30744307 17.0933669,9.33264333 16.9930159,9.33264333 L16.1303573,9.33264333 C16.0430564,9.33264333 16.0178562,9.33264333 16.0241562,9.44514445 C16.0583566,9.82584826 16.0583566,10.2079021 16.0241562,10.5886059 C16.0241562,10.6948069 16.0241562,10.7074071 16.1434074,10.7074071 L17.1302673,10.7074071 C17.1739177,10.7636576 17.1302673,10.8199082 17.1302673,10.8766088 C17.1365674,10.9490595 17.1365674,11.0224102 17.1302673,11.0948609 L17.1302673,11.8513185 C17.1302673,11.9575196 17.099217,11.9890199 17.0051661,11.9890199 L15.8239042,11.9890199 C15.7415534,11.9732697 15.6614526,12.0259203 15.6425524,12.1078211 C15.3612996,12.8390784 14.9112951,13.4947349 14.3298893,14.0203402 C14.1174872,14.2115921 13.8942849,14.3915939 13.6611826,14.5576456 C13.4109801,14.701647 13.1675277,14.8514985 12.9110251,14.9702997 C12.4389704,15.1827018 11.9439654,15.3393034 11.4359104,15.4387544 C10.9535055,15.5251553 10.4643506,15.5643056 9.97339573,15.5575556 L5.63580236,15.5575556 L5.63580236,15.5512555 L5.63760238,15.5499055 Z" id="形状" fill="#FEFEFD"></path>
                            </g>
                        </g>
                    </g>
                </g>
            </g>
        </g>
    </g>
</svg>