<?xml version="1.0" encoding="UTF-8"?>
<svg width="21px" height="20px" viewBox="0 0 21 20" version="1.1" xmlns="http://www.w3.org/2000/svg" xmlns:xlink="http://www.w3.org/1999/xlink">
    <title>-mockplus-</title>
    <g id="页面-1" stroke="none" stroke-width="1" fill="none" fill-rule="evenodd">
        <g id="首页" transform="translate(-88.000000, -581.000000)">
            <g id="编组-16" transform="translate(24.000000, 278.000000)">
                <g id="编组-8" transform="translate(24.000000, 20.000000)">
                    <g id="编组-7" transform="translate(0.000000, 90.000000)">
                        <g id="03-数据录入/04-单选框/03-组合/01-默认/01-Default" transform="translate(12.095238, 188.000000)">
                            <g id="husd-husd-logo" transform="translate(28.000000, 5.000000)">
                                <path d="M2.808,9.235 L5.882,1.928 L14.614,2.934 L16.402,8.327 L15.508,15.787 C14.223,17.166 13.403,17.855 13.049,17.855 C12.695,17.855 10.013,17.366 5.002,16.388 L2.809,10.967 L2.808,9.235 Z" id="路径" fill="#F9F9F9"></path>
                                <path d="M14.19,15.794 L12.061,15.794 L12.061,12.129 C12.061,11.542 11.586,11.065 10.999,11.065 C10.999,11.065 10.998,11.065 10.998,11.065 L7.938,11.065 C6.763,11.065 5.81,10.112 5.81,8.937 L5.81,4.207 L7.938,4.207 L7.938,7.873 C7.938,8.46 8.414,8.937 9.001,8.937 C9.001,8.937 9.001,8.937 9.001,8.937 L12.061,8.937 C13.236,8.938 14.188,9.89 14.189,11.065 L14.19,15.794 Z M8.012,15.794 L5.883,15.794 L5.883,12.22 C7.058,12.22 8.011,13.172 8.011,14.348 L8.012,15.794 Z M11.988,4.206 L14.116,4.206 L14.116,7.782 C12.94,7.782 11.988,6.829 11.988,5.654 L11.988,4.206 Z M10,0 C4.477,0 0,4.478 0,10 C0,15.522 4.477,20 10,20 C15.523,20 20,15.523 20,10 C20,4.477 15.523,0 10,0 L10,0 Z" id="形状" fill="#005FFA"></path>
                            </g>
                        </g>
                    </g>
                </g>
            </g>
        </g>
    </g>
</svg>